<svg xmlns="http://www.w3.org/2000/svg" xmlns:xlink="http://www.w3.org/1999/xlink" xmlns:lucid="lucid" width="1593.57" height="1683.37"><g transform="translate(-11459.956742591665 6079.101892750332)" lucid:page-tab-id="0_0"><path d="M2000-7000h11500v5000H2000z" fill="#f2f3f5"/><path d="M11601.4-6073.1a6 6 0 0 1 6-6h133.13a6 6 0 0 1 6 6v29.47a6 6 0 0 1-6 6h-133.13a6 6 0 0 1-6-6z" fill="none"/><use xlink:href="#a" transform="matrix(1,0,0,1,11606.398303782706,-6074.101892750332) translate(0 25.4580078125)"/><use xlink:href="#b" transform="matrix(1,0,0,1,11606.398303782706,-6074.101892750332) translate(85.6044921875 25.4580078125)"/><path d="M11489.02-5006.13a6 6 0 0 1 6-6h70.24a6 6 0 0 1 6 6v29.47a6 6 0 0 1-6 6h-70.24a6 6 0 0 1-6-6z" fill="none"/><use xlink:href="#c" transform="matrix(1,0,0,1,11494.023465237991,-5007.12702144011) translate(0 25.4580078125)"/><path d="M11503.78-4828.6a6 6 0 0 1 6-6h49.58a6 6 0 0 1 6 6v29.47a6 6 0 0 1-6 6h-49.58a6 6 0 0 1-6-6z" fill="none"/><use xlink:href="#d" transform="matrix(1,0,0,1,11508.777236294387,-4829.5969620599635) translate(0 25.4580078125)"/><path d="M11499.03-4892.24a6 6 0 0 1 6-6h57.5a6 6 0 0 1 6 6v29.47a6 6 0 0 1-6 6h-57.5a6 6 0 0 1-6-6z" fill="none"/><use xlink:href="#e" transform="matrix(1,0,0,1,11504.02970234825,-4893.24012999103) translate(0 25.4580078125)"/><path d="M11463.76-5238.15a6 6 0 0 1 6-6h75.32a6 6 0 0 1 6 6v29.47a6 6 0 0 1-6 6h-75.32a6 6 0 0 1-6-6z" fill="none"/><use xlink:href="#f" transform="matrix(1,0,0,1,11468.763987590088,-5239.148834193608) translate(0 25.4580078125)"/><path d="M11495.75-5881.43a6 6 0 0 1 6-6h52.08a6 6 0 0 1 6 6v29.47a6 6 0 0 1-6 6h-52.08a6 6 0 0 1-6-6z" fill="none"/><use xlink:href="#g" transform="matrix(1,0,0,1,11500.755190354004,-5882.429585409979) translate(0 25.4580078125)"/><path d="M11501.66-4662.96a6 6 0 0 1 6-6h50.27a6 6 0 0 1 6 6v29.47a6 6 0 0 1-6 6h-50.27a6 6 0 0 1-6-6z" fill="none"/><use xlink:href="#h" transform="matrix(1,0,0,1,11506.657483057783,-4663.961099545669) translate(0 25.4580078125)"/><path d="M12949.94-5321a6 6 0 0 1 6-6h91.6a6 6 0 0 1 6 6v29.48a6 6 0 0 1-6 6h-91.6a6 6 0 0 1-6-6z" fill="none"/><use xlink:href="#i" transform="matrix(1,0,0,1,12954.940490791962,-5321.994223399543) translate(0 25.4580078125)"/><path d="M11459.96-5979.08a6 6 0 0 1 6-6h85.76a6 6 0 0 1 6 6v29.47a6 6 0 0 1-6 6h-85.76a6 6 0 0 1-6-6z" fill="none"/><use xlink:href="#j" transform="matrix(1,0,0,1,11464.956742591665,-5980.0772300497565) translate(0 25.4580078125)"/><path d="M11597.17-6031.3a6 6 0 0 1 6-6h1314.55a6 6 0 0 1 6 6v1628.56a6 6 0 0 1-6 6h-1314.55a6 6 0 0 1-6-6z" stroke="#000" stroke-width="2" fill="#cfe4ff"/><path d="M11739.5-5221.9v156.75M11739.5-5221.88v-1.53" stroke="#000" stroke-width="3" fill="none"/><path d="M11739.5-5060.65h-1.5v-4.54h1.5z" stroke="#000" stroke-width=".05"/><path d="M12025.8-5095.27a6 6 0 0 1 6-6h66.13a6 6 0 0 1 6 6v110.16a6 6 0 0 1-6 6h-66.14a6 6 0 0 1-6-6z" stroke="#000" stroke-width="2" fill="#fff"/><path d="M12096.17-5096.67a2.8 2.8 0 0 0-2.15-4.6h-59.56a2.8 2.8 0 0 0-2.15 4.6l28.1 33.6a5.02 5.02 0 0 0 7.7 0z" stroke="#000" stroke-width="2" fill="#fff"/><path d="M12034.27-5196.27a6 6 0 0 1 6-6h49.17a6 6 0 0 1 6 6v40.4a6 6 0 0 1-6 6h-49.17a6 6 0 0 1-6-6z" fill="none"/><use xlink:href="#k" transform="matrix(1,0,0,1,12039.272165946615,-5197.269824623159) translate(0 30.9580078125)"/><path d="M12064.86-5103.77v-44.6" stroke="#e81313" stroke-width="3" fill="none"/><path d="M12066.33-5102.27h-2.95v-1.54h2.95zM12066.33-5148.32h-2.95v-1.54h2.95z" stroke="#e81313" stroke-width=".05" fill="#e81313"/><path d="M12033.1-4978.9a6 6 0 0 1-6-6v-30.02a6 6 0 0 1 6-6h21.26a6 6 0 0 1 6 6v30.03a6 6 0 0 1-6 6z" fill="none"/><use xlink:href="#l" transform="matrix(6.123233995736766e-17,-1,1,6.123233995736766e-17,12032.09128826874,-4983.8866921136705) translate(0 18.46701388888889)"/><path d="M12077.38-4980.06a6 6 0 0 1-6-6v-32.5a6 6 0 0 1 6-6h19.52a6 6 0 0 1 6 6v32.5a6 6 0 0 1-6 6z" fill="none"/><use xlink:href="#m" transform="matrix(6.123233995736766e-17,-1,1,6.123233995736766e-17,12076.375344831049,-4985.0562350927685) translate(0 17.46701388888889)"/><g fill="#fff"><path d="M11952.7-5095.84v106.4h-56.3v-106.4z" fill-opacity="0"/><path d="M11896.4-5095.84l56.3 21.28v63.83l-56.3 21.28z" stroke="#000" stroke-width="1.33"/></g><use xlink:href="#n" transform="matrix(6.123233995736766e-17,1,-1,6.123233995736766e-17,11952.709191213587,-5095.842618906094) translate(41.8203125 42.181640625)"/><path d="M11954.88-5042.65h68.4" stroke="#000" stroke-width="3" fill="none"/><path d="M11954.9-5041.17h-1.52v-2.95h1.53zM12024.8-5041.17h-1.55v-2.95h1.54z" stroke="#000" stroke-width=".05"/><path d="M12228.95-5040.7v-68.18a24 24 0 0 0-24-24h-331.27a24 24 0 0 0-24 24v21.9a24 24 0 0 0 24 24h20.57M12229.5-5040.2h-1.55" stroke="#000" stroke-width="3" fill="none"/><path d="M11895.75-5061.5h-1.54v-2.94h1.55z" stroke="#000" stroke-width=".05"/><path d="M11780.74-5023.83l101.45.54" stroke="#000" stroke-width="3" fill="none"/><path d="M11780.8-5025.3l-.03 2.94h-1.53v-2.95zM11884-5024.76l-.32 1.4.07 1.1.16.45-1.76-.02.02-2.95z" stroke="#000" stroke-width=".05"/><path d="M12223.23-4979.98a6 6 0 0 1 6-6h83.3a6 6 0 0 1 6 6v51.06a6 6 0 0 1-6 6h-83.3a6 6 0 0 1-6-6z" stroke="#000" stroke-width="2" fill="#fff"/><use xlink:href="#o" transform="matrix(1,0,0,1,12228.230149638577,-4980.978901947834) translate(32.70811631944444 38.154513888888886)"/><path d="M12106.43-5040.2h140.45a24 24 0 0 1 24 24v27.72" stroke="#000" stroke-width="3" fill="none"/><path d="M12106.47-5038.72h-1.54v-2.95h1.54zM12272.35-4986.98h-2.95v-1.54h2.95z" stroke="#000" stroke-width=".05"/><path d="M12270.88-4920.41v82.54a24 24 0 0 1-24 24h-680.02" stroke="#000" stroke-width="3" fill="none"/><path d="M12272.35-4920.38h-2.95v-1.53l2.95-.02z" stroke="#000" stroke-width=".05"/><path d="M11566.9-4813.86h-1.54M12321.03-4954.44l105.57.4" stroke="#000" stroke-width="3" fill="none"/><path d="M12321.07-4955.92v2.95h-1.54v-2.95zM12428.1-4955.5v2.94h-1.54v-2.96z" stroke="#000" stroke-width=".05"/><path d="M12689.82-5307.5h-846.87a24 24 0 0 0-24 24v259.23" stroke="#000" stroke-width="3" fill="none"/><path d="M12691.32-5306.02h-1.53v-2.95h1.52z" stroke="#000" stroke-width=".05"/><path d="M11818.27-5023.62h1.54" stroke="#000" stroke-width="3" fill="none"/><path d="M12429.1-4969.56a6 6 0 0 1 6-6h83.3a6 6 0 0 1 6 6v72.07a6 6 0 0 1-6 6h-83.3a6 6 0 0 1-6-6z" stroke="#000" stroke-width="2" fill="#fff"/><use xlink:href="#p" transform="matrix(1,0,0,1,12434.099613827995,-4970.554594441589) translate(9.321614583333336 48.888888888888886)"/><path d="M11896.7-5023.28c0 3.6-2.7 6.5-6 6.5-3.32 0-6-2.9-6-6.5s2.68-6.5 6-6.5c3.3 0 6 2.9 6 6.5zM12692.32-5362.58a6 6 0 0 1 6-6h66.14a6 6 0 0 1 6 6v110.16a6 6 0 0 1-6 6h-66.14a6 6 0 0 1-6-6z" stroke="#000" stroke-width="2" fill="#fff"/><path d="M12762.7-5363.97a2.8 2.8 0 0 0-2.15-4.6H12701a2.8 2.8 0 0 0-2.15 4.6l28.08 33.58a5.02 5.02 0 0 0 7.7 0z" stroke="#000" stroke-width="2" fill="#fff"/><path d="M12700.8-5463.58a6 6 0 0 1 6-6h49.18a6 6 0 0 1 6 6v40.4a6 6 0 0 1-6 6h-49.17a6 6 0 0 1-6-6z" fill="none"/><use xlink:href="#k" transform="matrix(1,0,0,1,12705.808315067221,-5464.577549929815) translate(0 30.9580078125)"/><path d="M12731.4-5371.08v-44.6" stroke="#e81313" stroke-width="3" fill="none"/><path d="M12732.87-5369.58h-2.95v-1.53h2.95zM12732.87-5415.63h-2.95v-1.54h2.95z" stroke="#e81313" stroke-width=".05" fill="#e81313"/><path d="M12699.63-5246.2a6 6 0 0 1-6-6v-30.02a6 6 0 0 1 6-6h21.27a6 6 0 0 1 6 6v30.03a6 6 0 0 1-6 6z" fill="none"/><use xlink:href="#l" transform="matrix(6.123233995736766e-17,-1,1,6.123233995736766e-17,12698.627437389365,-5251.194417420326) translate(0 18.46701388888889)"/><path d="M12743.9-5247.36a6 6 0 0 1-6-6v-32.5a6 6 0 0 1 6-6h19.53a6 6 0 0 1 6 6v32.5a6 6 0 0 1-6 6z" fill="none"/><use xlink:href="#m" transform="matrix(6.123233995736766e-17,-1,1,6.123233995736766e-17,12742.911493951658,-5252.363960399424) translate(0 17.46701388888889)"/><path d="M12772.96-5307.5l175.48 1.23" stroke="#000" stroke-width="3" fill="none"/><path d="M12773-5308.96v2.95l-1.54-.02v-2.95z" stroke="#000" stroke-width=".05"/><path d="M12948.4-5306.27h1.54" stroke="#000" stroke-width="3" fill="none"/><path d="M12773.27-5343.07a6 6 0 0 1 6-6h91.6a6 6 0 0 1 6 6v29.47a6 6 0 0 1-6 6h-91.6a6 6 0 0 1-6-6z" fill="none"/><use xlink:href="#q" transform="matrix(1,0,0,1,12778.271016782104,-5344.073537976115) translate(0 25.4580078125)"/><path d="M11995.6-5937.08a6 6 0 0 1 6-6h329.8a6 6 0 0 1 6 6v206.44a6 6 0 0 1-6 6h-329.8a6 6 0 0 1-6-6z" stroke="#000" stroke-width="2" fill="#fff"/><use xlink:href="#r" transform="matrix(1,0,0,1,12000.587242515368,-5938.083734440785) translate(89.091796875 76.212890625)"/><use xlink:href="#s" transform="matrix(1,0,0,1,12000.587242515368,-5938.083734440785) translate(110.99755859375 113.96367187499999)"/><use xlink:href="#t" transform="matrix(1,0,0,1,12000.587242515368,-5938.083734440785) translate(149.38818359375 113.96367187499999)"/><use xlink:href="#u" transform="matrix(1,0,0,1,12000.587242515368,-5938.083734440785) translate(117.86572265625 151.71445312499998)"/><path d="M12087.63-5938.65a2.8 2.8 0 0 0-2.15-4.6h-59.55a2.8 2.8 0 0 0-2.16 4.6l28.08 33.58a5.02 5.02 0 0 0 7.7 0z" stroke="#000" stroke-width="2" fill="#fff"/><path d="M12024.54-6028.4a6 6 0 0 1 6-6h49.18a6 6 0 0 1 6 6v40.4a6 6 0 0 1-6 6h-49.18a6 6 0 0 1-6-6z" fill="none"/><use xlink:href="#k" transform="matrix(1,0,0,1,12029.543414582442,-6029.398374226337) translate(0 30.9580078125)"/><path d="M12055.68-5945.76l-.53-34.73" stroke="#e81313" stroke-width="3" fill="none"/><path d="M12057.18-5944.26h-2.95l-.03-1.5 2.95-.06zM12056.63-5980.47l-2.95.04-.03-1.56h2.95z" stroke="#e81313" stroke-width=".05" fill="#e81313"/><path d="M11996.12-5883.36a6 6 0 0 1 6-6h28.15a6 6 0 0 1 6 6v29.46a6 6 0 0 1-6 6h-28.15a6 6 0 0 1-6-6z" fill="none"/><use xlink:href="#v" transform="matrix(1,0,0,1,12001.118473963888,-5884.364096805017) translate(0 25.4580078125)"/><path d="M12063.1-5761a6 6 0 0 1 6-6h28.53a6 6 0 0 1 6 6v29.48a6 6 0 0 1-6 6h-28.53a6 6 0 0 1-6-6z" fill="none"/><use xlink:href="#w" transform="matrix(1,0,0,1,12068.096541746814,-5761.987297898201) translate(0 25.4580078125)"/><path d="M12222.23-5760.62a6 6 0 0 1 6-6h28.94a6 6 0 0 1 6 6v29.47a6 6 0 0 1-6 6h-28.94a6 6 0 0 1-6-6z" fill="none"/><use xlink:href="#x" transform="matrix(1,0,0,1,12227.225501410487,-5761.624302196859) translate(0 25.4580078125)"/><path d="M12266.2-5885.53a6 6 0 0 1 6-6h58.37a6 6 0 0 1 6 6v29.47a6 6 0 0 1-6 6h-58.38a6 6 0 0 1-6-6z" fill="none"/><use xlink:href="#y" transform="matrix(1,0,0,1,12271.191960987244,-5886.52901690355) translate(0 25.4580078125)"/><path d="M12526.9-4933.52h159.36a24 24 0 0 0 24-24v-287.17" stroke="#000" stroke-width="3" fill="none"/><path d="M12526.93-4932.05h-1.53v-2.95h1.53zM12711.74-5244.66h-2.95v-1.53h2.94z" stroke="#000" stroke-width=".05"/><path d="M11689.26-4718.07a6 6 0 0 1 6-6h329.82a6 6 0 0 1 6 6v206.44a6 6 0 0 1-6 6h-329.82a6 6 0 0 1-6-6z" stroke="#000" stroke-width="2" fill="#fff"/><use xlink:href="#r" transform="matrix(1,0,0,1,11694.25677311427,-4719.074525728596) translate(89.091796875 76.212890625)"/><use xlink:href="#s" transform="matrix(1,0,0,1,11694.25677311427,-4719.074525728596) translate(110.99755859375 113.96367187499999)"/><use xlink:href="#t" transform="matrix(1,0,0,1,11694.25677311427,-4719.074525728596) translate(149.38818359375 113.96367187499999)"/><use xlink:href="#z" transform="matrix(1,0,0,1,11694.25677311427,-4719.074525728596) translate(110.41357421875 151.71445312499998)"/><path d="M11781.3-4719.65a2.8 2.8 0 0 0-2.15-4.6h-59.55a2.8 2.8 0 0 0-2.16 4.6l28.08 33.6a5.02 5.02 0 0 0 7.7 0z" stroke="#000" stroke-width="2" fill="#fff"/><path d="M11717.8-4806.87a6 6 0 0 1 6-6h49.16a6 6 0 0 1 6 6v40.4a6 6 0 0 1-6 6h-49.17a6 6 0 0 1-6-6z" fill="none"/><use xlink:href="#k" transform="matrix(1,0,0,1,11722.784738298498,-4807.868636901818) translate(0 30.9580078125)"/><path d="M11749.33-4726.75l-.92-32.2" stroke="#e81313" stroke-width="3" fill="none"/><path d="M11750.85-4725.25h-2.95l-.05-1.5 2.95-.08zM11749.9-4758.96l-2.96.08-.05-1.58h2.95z" stroke="#e81313" stroke-width=".05" fill="#e81313"/><path d="M11689.8-4664.35a6 6 0 0 1 6-6h28.14a6 6 0 0 1 6 6v29.46a6 6 0 0 1-6 6h-28.15a6 6 0 0 1-6-6z" fill="none"/><use xlink:href="#v" transform="matrix(1,0,0,1,11694.788004562795,-4665.354888092828) translate(0 25.4580078125)"/><path d="M11756.77-4541.98a6 6 0 0 1 6-6h28.53a6 6 0 0 1 6 6v29.47a6 6 0 0 1-6 6h-28.53a6 6 0 0 1-6-6z" fill="none"/><use xlink:href="#w" transform="matrix(1,0,0,1,11761.766072345721,-4542.978089186013) translate(0 25.4580078125)"/><path d="M11915.9-4541.6a6 6 0 0 1 6-6h28.94a6 6 0 0 1 6 6v29.45a6 6 0 0 1-6 6h-28.94a6 6 0 0 1-6-6z" fill="none"/><use xlink:href="#x" transform="matrix(1,0,0,1,11920.895032009394,-4542.615093484671) translate(0 25.4580078125)"/><path d="M11959.86-4666.52a6 6 0 0 1 6-6h58.38a6 6 0 0 1 6 6v29.47a6 6 0 0 1-6 6h-58.38a6 6 0 0 1-6-6z" fill="none"/><use xlink:href="#y" transform="matrix(1,0,0,1,11964.86149158615,-4667.519808191361) translate(0 25.4580078125)"/><g fill="#fff"><path d="M11778.24-5106.52v157.37h-59.34v-157.37z" fill-opacity="0"/><path d="M11718.9-5106.52l59.34 31.47v94.42l-59.34 31.48z" stroke="#000" stroke-width="2"/></g><path d="M11718.53-5007.54a6 6 0 0 1 6-6h14.4a6 6 0 0 1 6 6v29.47a6 6 0 0 1-6 6h-14.4a6 6 0 0 1-6-6z" fill="none"/><use xlink:href="#A" transform="matrix(1,0,0,1,11723.529508273596,-5008.543908817732) translate(0 25.4580078125)"/><path d="M11718.9-5078.4a6 6 0 0 1 6-6h8.6a6 6 0 0 1 6 6v29.48a6 6 0 0 1-6 6h-8.6a6 6 0 0 1-6-6z" fill="none"/><use xlink:href="#B" transform="matrix(1,0,0,1,11723.900740406143,-5079.387428874808) translate(0 25.4580078125)"/><path d="M11572.76-4991.4l144.27-1.4M11572.8-4991.4h-1.54" stroke="#000" stroke-width="3" fill="none"/><path d="M11718.53-4991.33h-1.53l-.02-2.94h1.55z" stroke="#000" stroke-width=".05"/><path d="M11666.38-5063.67l51.02-.94" stroke="#000" stroke-width="3" fill="none"/><path d="M11666.44-5062.2l-1.56.04v-2.95l1.5-.04zM11718.9-5063.16l-1.5.02-.07-2.94 1.57-.03z" stroke="#000" stroke-width=".05"/><path d="M11613.7-5078.37a6 6 0 0 1 6-6h39.18a6 6 0 0 1 6 6v29.47a6 6 0 0 1-6 6h-39.18a6 6 0 0 1-6-6z" fill="none"/><use xlink:href="#C" transform="matrix(1,0,0,1,11618.69862085885,-5079.373463324362) translate(0 25.4580078125)"/><path d="M11552.58-5223.4h712.67a24 24 0 0 1 24 24v92.23a24 24 0 0 0 24 24h190.45M11552.6-5223.4h-1.52" stroke="#000" stroke-width="3" fill="none"/><path d="M12505.2-5081.7h-1.54v-2.94h1.54z" stroke="#000" stroke-width=".05"/><path d="M12105.5-5081.44a6 6 0 0 1 6-6h107.4a6 6 0 0 1 6 6v29.47a6 6 0 0 1-6 6h-107.4a6 6 0 0 1-6-6z" fill="none"/><use xlink:href="#D" transform="matrix(1,0,0,1,12110.502608445264,-5082.440629810406) translate(0 25.4580078125)"/><path d="M11561.33-5866.7l433.3-1.92M11561.37-5866.7h-1.54" stroke="#000" stroke-width="3" fill="none"/><path d="M11996.12-5867.15h-1.53l-.03-2.95h1.55z" stroke="#000" stroke-width=".05"/><path d="M11569.5-4878.04h677.47a6.7 6.7 0 0 0 6.7-6.7 6.7 6.7 0 0 1 6.7-6.7h22.18a6.7 6.7 0 0 1 6.7 6.7 6.7 6.7 0 0 0 6.7 6.7h42.88a6.7 6.7 0 0 0 6.7-6.7 6.7 6.7 0 0 1 6.7-6.7h11.77a6.7 6.7 0 0 1 6.7 6.7 6.7 6.7 0 0 0 6.7 6.7h5.9a12.6 12.6 0 0 0 12.58-12.6v-3.9a16.5 16.5 0 0 1 16.5-16.5h14.22M11568.53-4879.04v1.53" stroke="#000" stroke-width="3" fill="none"/><path d="M12428.1-4909.56h-1.54v-2.95h1.54z" stroke="#000" stroke-width=".05"/><path d="M12043.73-4977.4v97.86" stroke="#000" stroke-width="3" fill="none"/><path d="M12045.2-4977.35h-2.95v-1.54h2.95z" stroke="#000" stroke-width=".05"/><path d="M12043.73-4879.58v1.54M12084.35-5722.14v310.9a24 24 0 0 0 24 24h294.15a5.14 5.14 0 0 0 5.14-5.14 5.14 5.14 0 0 1 5.14-5.14h19.84a5.14 5.14 0 0 1 5.14 5.14 5.14 5.14 0 0 0 5.14 5.14h439.16a24 24 0 0 1 24 24v55.18" stroke="#000" stroke-width="3" fill="none"/><path d="M12085.83-5722.1h-2.95v-1.54h2.95z" stroke="#000" stroke-width=".05"/><path d="M12906.06-5308.1v1.54" stroke="#000" stroke-width="3" fill="none"/><path d="M12506.2-5142.78a6 6 0 0 1 6-6h83.3a6 6 0 0 1 6 6v72.06a6 6 0 0 1-6 6h-83.3a6 6 0 0 1-6-6z" stroke="#000" stroke-width="2" fill="#fff"/><use xlink:href="#E" transform="matrix(1,0,0,1,12511.19829104741,-5143.7831504287715) translate(21.094618055555557 48.888888888888886)"/><path d="M12640.4-5108.25V-5287a7.6 7.6 0 0 1 7.62-7.6 7.6 7.6 0 0 0 7.6-7.62v-7.3a7.6 7.6 0 0 0-7.6-7.62 7.6 7.6 0 0 1-7.6-7.6v-44.42a6.15 6.15 0 0 1 6.14-6.15 6.15 6.15 0 0 0 6.16-6.16v-9.9a6.15 6.15 0 0 0-6.16-6.16 6.15 6.15 0 0 1-6.15-6.15v-100.9a24 24 0 0 0-24-24h-23.9M12640.4-5108.3v1.55" stroke="#000" stroke-width="3" fill="none"/><path d="M12592.54-5527.1h-1.54v-2.95h1.54z" stroke="#000" stroke-width=".05"/><path d="M12339.9-5870.3h57.9a24 24 0 0 1 24 24v695.2a24 24 0 0 0 24 24h57.9" stroke="#000" stroke-width="3" fill="none"/><path d="M12339.94-5868.82h-1.53v-2.95h1.54zM12505.2-5125.63h-1.54v-2.95h1.54z" stroke="#000" stroke-width=".05"/><path d="M12604-5106.75h84.5a6.25 6.25 0 0 0 6.26-6.25 6.25 6.25 0 0 1 6.25-6.26h16.96a6.25 6.25 0 0 1 6.25 6.26 6.25 6.25 0 0 0 6.27 6.25h8.47a14.73 14.73 0 0 0 14.73-14.73v-124.38" stroke="#000" stroke-width="3" fill="none"/><path d="M12604.03-5105.28h-1.53v-2.95h1.53zM12755.15-5245.82h-2.95v-1.54h2.95z" stroke="#000" stroke-width=".05"/><path d="M11565.43-4648.24l122.86-1.36M11565.47-4648.24h-1.54" stroke="#000" stroke-width="3" fill="none"/><path d="M11689.8-4648.15l-1.53.02-.04-2.95 1.56-.02z" stroke="#000" stroke-width=".05"/><path d="M11936.37-4504.65v14.5a24 24 0 0 0 24 24h102.77a24 24 0 0 0 24-24v-488.4" stroke="#000" stroke-width="3" fill="none"/><path d="M11937.84-4504.6h-2.95v-1.55h2.94zM12088.6-4978.52h-2.94v-1.54h2.95z" stroke="#000" stroke-width=".05"/><path d="M11777.68-4490.26v40.65a24 24 0 0 0 24 24h533.3a24 24 0 0 0 24-24v-503.2" stroke="#000" stroke-width="3" fill="none"/><path d="M11777.58-4491.75l1.1-.07.48-.2v1.8h-2.95v-1.9z" stroke="#000" stroke-width=".05"/><path d="M12358.98-4952.76v-1.54M12031.74-4651.78l53.9.24" stroke="#000" stroke-width="3" fill="none"/><path d="M12031.78-4653.25v2.95h-1.54v-2.96z" stroke="#000" stroke-width=".05"/><path d="M12085.6-4651.54h1.54" stroke="#000" stroke-width="3" fill="none"/><path d="M11783.68-4499.26c0 3.6-2.68 6.5-6 6.5-3.3 0-6-2.9-6-6.5s2.7-6.5 6-6.5c3.32 0 6 2.9 6 6.5zM12494.7-5589.4a6 6 0 0 1 6-6h83.3a6 6 0 0 1 6 6v72.08a6 6 0 0 1-6 6h-83.3a6 6 0 0 1-6-6z" stroke="#000" stroke-width="2" fill="#fff"/><use xlink:href="#E" transform="matrix(1,0,0,1,12499.700584592854,-5590.387508601147) translate(21.094618055555557 48.888888888888886)"/><path d="M11559.22-5964.34h1053.6a24 24 0 0 1 24 24v342.54a24 24 0 0 1-24 24h-20.32M11559.25-5964.34h-1.53" stroke="#333" stroke-width="3" fill="none"/><path d="M12592.54-5572.32h-1.54v-2.95h1.54z" stroke="#333" stroke-width=".05" fill="#333"/><path d="M12492.2-5553.35h-48.8a5.64 5.64 0 0 1-5.64-5.64 5.64 5.64 0 0 0-5.63-5.63h-15.82a8.67 8.67 0 0 0-8.66 8.67 8.67 8.67 0 0 1-8.67 8.68h-112.3a24 24 0 0 1-24-24v-14.5" stroke="#333" stroke-width="3" fill="none"/><path d="M12493.7-5551.88h-1.54v-2.95h1.54zM12264.15-5585.74h-2.95v-1.54h2.95z" stroke="#333" stroke-width=".05" fill="#333"/><path d="M12499.35-5275.86a6 6 0 0 1 6-6h83.3a6 6 0 0 1 6 6v72.07a6 6 0 0 1-6 6h-83.3a6 6 0 0 1-6-6z" stroke="#000" stroke-width="2" fill="#fff"/><use xlink:href="#p" transform="matrix(1,0,0,1,12504.35504141168,-5276.857556130144) translate(9.321614583333336 48.888888888888886)"/><path d="M12278.6-5683.58a6 6 0 0 1 6 6v83.3a6 6 0 0 1-6 6h-72.06a6 6 0 0 1-6-6v-83.3a6 6 0 0 1 6-6z" stroke="#000" stroke-width="2" fill="#fff"/><use xlink:href="#E" transform="matrix(6.123233995736766e-17,1,-1,6.123233995736766e-17,12279.59973597412,-5678.580549992646) translate(21.094618055555557 48.888888888888886)"/><path d="M12242.57-5686.08v-18.72a.07.07 0 0 1 .06-.07.07.07 0 0 0 .07-.06v-18.72" stroke="#333" stroke-width="3" fill="none"/><path d="M12244.04-5684.58h-2.95v-1.54h2.94zM12244.17-5723.62h-2.94v-1.53h2.94z" stroke="#333" stroke-width=".05" fill="#333"/><path d="M12597.15-5259.56h18.2a5 5 0 0 0 5-5V-5306" stroke="#000" stroke-width="3" fill="none"/><path d="M12597.2-5258.08h-1.55v-2.95h1.54z" stroke="#000" stroke-width=".05"/><path d="M12620.35-5305.96v-1.54M12597.15-5219.77h24.18a5.64 5.64 0 0 0 5.64-5.63 5.64 5.64 0 0 1 5.64-5.64h17.37a5.66 5.66 0 0 1 5.66 5.66 5.66 5.66 0 0 0 5.67 5.67h47.46" stroke="#000" stroke-width="3" fill="none"/><path d="M12597.2-5218.3h-1.55v-2.94h1.54z" stroke="#000" stroke-width=".05"/><path d="M12708.72-5219.7h1.54M12496.85-5239.82a20.86 20.86 0 0 1-20.85-20.86v-29.22a4.7 4.7 0 0 1 4.7-4.7 4.7 4.7 0 0 0 4.7-4.72v-13.12a4.7 4.7 0 0 0-4.7-4.7 4.7 4.7 0 0 1-4.7-4.7v-52.24a4.7 4.7 0 0 1 4.7-4.7 4.7 4.7 0 0 0 4.7-4.72v-9.3a4.7 4.7 0 0 0-4.7-4.72 4.7 4.7 0 0 1-4.7-4.7v-44.36a19.12 19.12 0 0 0-19.12-19.12h-12.85a6.27 6.27 0 0 1-6.27-6.27 6.27 6.27 0 0 0-6.26-6.27h-17.6a6.27 6.27 0 0 0-6.26 6.27 6.27 6.27 0 0 1-6.27 6.27h-45.05" stroke="#000" stroke-width="3" fill="none"/><path d="M12498.35-5238.35h-1.53v-2.95h1.53zM12356.36-5464.23h-1.54v-2.95h1.54z" stroke="#000" stroke-width=".05"/><path d="M12258.53-5484.2a6 6 0 0 1 6-6h83.3a6 6 0 0 1 6 6v72.06a6 6 0 0 1-6 6h-83.3a6 6 0 0 1-6-6z" stroke="#000" stroke-width="2" fill="#fff"/><use xlink:href="#p" transform="matrix(1,0,0,1,12263.52608553267,-5485.20232127692) translate(9.321614583333336 48.888888888888886)"/><path d="M12356.32-5429.04h28.05v40.3" stroke="#000" stroke-width="3" fill="none"/><path d="M12356.36-5427.56h-1.54v-2.95h1.54z" stroke="#000" stroke-width=".05"/><path d="M12384.37-5388.78v1.54M12256.03-5448.17h-7.8a24 24 0 0 1-24-24v-113.6" stroke="#000" stroke-width="3" fill="none"/><path d="M12257.53-5446.7h-1.54v-2.95h1.53zM12225.7-5585.74h-2.96v-1.54h2.95z" stroke="#000" stroke-width=".05"/><path d="M11597.17-6031.3a6 6 0 0 1 6-6h1314.55a6 6 0 0 1 6 6v1628.56a6 6 0 0 1-6 6h-1314.55a6 6 0 0 1-6-6z" stroke="#000" stroke-width="2" fill="#cfe4ff"/><path d="M11739.5-5221.9v156.75M11739.5-5221.88v-1.53" stroke="#000" stroke-width="3" fill="none"/><path d="M11739.5-5060.65h-1.5v-4.54h1.5z" stroke="#000" stroke-width=".05"/><path d="M12025.8-5095.27a6 6 0 0 1 6-6h66.13a6 6 0 0 1 6 6v110.16a6 6 0 0 1-6 6h-66.14a6 6 0 0 1-6-6z" stroke="#000" stroke-width="2" fill="#fff"/><path d="M12096.17-5096.67a2.8 2.8 0 0 0-2.15-4.6h-59.56a2.8 2.8 0 0 0-2.15 4.6l28.1 33.6a5.02 5.02 0 0 0 7.7 0z" stroke="#000" stroke-width="2" fill="#fff"/><path d="M12034.27-5196.27a6 6 0 0 1 6-6h49.17a6 6 0 0 1 6 6v40.4a6 6 0 0 1-6 6h-49.17a6 6 0 0 1-6-6z" fill="none"/><use xlink:href="#k" transform="matrix(1,0,0,1,12039.272165946615,-5197.269824623159) translate(0 30.9580078125)"/><path d="M12064.86-5103.77v-44.6" stroke="#e81313" stroke-width="3" fill="none"/><path d="M12066.33-5102.27h-2.95v-1.54h2.95zM12066.33-5148.32h-2.95v-1.54h2.95z" stroke="#e81313" stroke-width=".05" fill="#e81313"/><path d="M12033.1-4978.9a6 6 0 0 1-6-6v-30.02a6 6 0 0 1 6-6h21.26a6 6 0 0 1 6 6v30.03a6 6 0 0 1-6 6z" fill="none"/><use xlink:href="#l" transform="matrix(6.123233995736766e-17,-1,1,6.123233995736766e-17,12032.09128826874,-4983.8866921136705) translate(0 18.46701388888889)"/><path d="M12077.38-4980.06a6 6 0 0 1-6-6v-32.5a6 6 0 0 1 6-6h19.52a6 6 0 0 1 6 6v32.5a6 6 0 0 1-6 6z" fill="none"/><use xlink:href="#m" transform="matrix(6.123233995736766e-17,-1,1,6.123233995736766e-17,12076.375344831049,-4985.0562350927685) translate(0 17.46701388888889)"/><g fill="#fff"><path d="M11952.7-5095.84v106.4h-56.3v-106.4z" fill-opacity="0"/><path d="M11896.4-5095.84l56.3 21.28v63.83l-56.3 21.28z" stroke="#000" stroke-width="1.33"/></g><use xlink:href="#n" transform="matrix(6.123233995736766e-17,1,-1,6.123233995736766e-17,11952.709191213587,-5095.842618906094) translate(41.8203125 42.181640625)"/><path d="M11954.88-5042.65h68.4" stroke="#000" stroke-width="3" fill="none"/><path d="M11954.9-5041.17h-1.52v-2.95h1.53zM12024.8-5041.17h-1.55v-2.95h1.54z" stroke="#000" stroke-width=".05"/><path d="M12228.95-5040.7v-68.18a24 24 0 0 0-24-24h-331.27a24 24 0 0 0-24 24v21.9a24 24 0 0 0 24 24h20.57M12229.5-5040.2h-1.55" stroke="#000" stroke-width="3" fill="none"/><path d="M11895.75-5061.5h-1.54v-2.94h1.55z" stroke="#000" stroke-width=".05"/><path d="M11780.74-5023.83l101.45.54" stroke="#000" stroke-width="3" fill="none"/><path d="M11780.8-5025.3l-.03 2.94h-1.53v-2.95zM11884-5024.76l-.32 1.4.07 1.1.16.45-1.76-.02.02-2.95z" stroke="#000" stroke-width=".05"/><path d="M12223.23-4979.98a6 6 0 0 1 6-6h83.3a6 6 0 0 1 6 6v51.06a6 6 0 0 1-6 6h-83.3a6 6 0 0 1-6-6z" stroke="#000" stroke-width="2" fill="#fff"/><use xlink:href="#o" transform="matrix(1,0,0,1,12228.230149638577,-4980.978901947834) translate(32.70811631944444 38.154513888888886)"/><path d="M12106.43-5040.2h140.45a24 24 0 0 1 24 24v27.72" stroke="#000" stroke-width="3" fill="none"/><path d="M12106.47-5038.72h-1.54v-2.95h1.54zM12272.35-4986.98h-2.95v-1.54h2.95z" stroke="#000" stroke-width=".05"/><path d="M12270.88-4920.41v82.54a24 24 0 0 1-24 24h-680.02" stroke="#000" stroke-width="3" fill="none"/><path d="M12272.35-4920.38h-2.95v-1.53l2.95-.02z" stroke="#000" stroke-width=".05"/><path d="M11566.9-4813.86h-1.54M12321.03-4954.44l105.57.4" stroke="#000" stroke-width="3" fill="none"/><path d="M12321.07-4955.92v2.95h-1.54v-2.95zM12428.1-4955.5v2.94h-1.54v-2.96z" stroke="#000" stroke-width=".05"/><path d="M12689.82-5307.5h-846.87a24 24 0 0 0-24 24v259.23" stroke="#000" stroke-width="3" fill="none"/><path d="M12691.32-5306.02h-1.53v-2.95h1.52z" stroke="#000" stroke-width=".05"/><path d="M11818.27-5023.62h1.54" stroke="#000" stroke-width="3" fill="none"/><path d="M12429.1-4969.56a6 6 0 0 1 6-6h83.3a6 6 0 0 1 6 6v72.07a6 6 0 0 1-6 6h-83.3a6 6 0 0 1-6-6z" stroke="#000" stroke-width="2" fill="#fff"/><use xlink:href="#p" transform="matrix(1,0,0,1,12434.099613827995,-4970.554594441589) translate(9.321614583333336 48.888888888888886)"/><path d="M11896.7-5023.28c0 3.6-2.7 6.5-6 6.5-3.32 0-6-2.9-6-6.5s2.68-6.5 6-6.5c3.3 0 6 2.9 6 6.5zM12692.32-5362.58a6 6 0 0 1 6-6h66.14a6 6 0 0 1 6 6v110.16a6 6 0 0 1-6 6h-66.14a6 6 0 0 1-6-6z" stroke="#000" stroke-width="2" fill="#fff"/><path d="M12762.7-5363.97a2.8 2.8 0 0 0-2.15-4.6H12701a2.8 2.8 0 0 0-2.15 4.6l28.08 33.58a5.02 5.02 0 0 0 7.7 0z" stroke="#000" stroke-width="2" fill="#fff"/><path d="M12700.8-5463.58a6 6 0 0 1 6-6h49.18a6 6 0 0 1 6 6v40.4a6 6 0 0 1-6 6h-49.17a6 6 0 0 1-6-6z" fill="none"/><use xlink:href="#k" transform="matrix(1,0,0,1,12705.808315067221,-5464.577549929815) translate(0 30.9580078125)"/><path d="M12731.4-5371.08v-44.6" stroke="#e81313" stroke-width="3" fill="none"/><path d="M12732.87-5369.58h-2.95v-1.53h2.95zM12732.87-5415.63h-2.95v-1.54h2.95z" stroke="#e81313" stroke-width=".05" fill="#e81313"/><path d="M12699.63-5246.2a6 6 0 0 1-6-6v-30.02a6 6 0 0 1 6-6h21.27a6 6 0 0 1 6 6v30.03a6 6 0 0 1-6 6z" fill="none"/><use xlink:href="#l" transform="matrix(6.123233995736766e-17,-1,1,6.123233995736766e-17,12698.627437389365,-5251.194417420326) translate(0 18.46701388888889)"/><path d="M12743.9-5247.36a6 6 0 0 1-6-6v-32.5a6 6 0 0 1 6-6h19.53a6 6 0 0 1 6 6v32.5a6 6 0 0 1-6 6z" fill="none"/><use xlink:href="#m" transform="matrix(6.123233995736766e-17,-1,1,6.123233995736766e-17,12742.911493951658,-5252.363960399424) translate(0 17.46701388888889)"/><path d="M12772.96-5307.5l175.48 1.23" stroke="#000" stroke-width="3" fill="none"/><path d="M12773-5308.96v2.95l-1.54-.02v-2.95z" stroke="#000" stroke-width=".05"/><path d="M12948.4-5306.27h1.54" stroke="#000" stroke-width="3" fill="none"/><path d="M12773.27-5343.07a6 6 0 0 1 6-6h91.6a6 6 0 0 1 6 6v29.47a6 6 0 0 1-6 6h-91.6a6 6 0 0 1-6-6z" fill="none"/><use xlink:href="#q" transform="matrix(1,0,0,1,12778.271016782104,-5344.073537976115) translate(0 25.4580078125)"/><path d="M11995.6-5937.08a6 6 0 0 1 6-6h329.8a6 6 0 0 1 6 6v206.44a6 6 0 0 1-6 6h-329.8a6 6 0 0 1-6-6z" stroke="#000" stroke-width="2" fill="#fff"/><use xlink:href="#r" transform="matrix(1,0,0,1,12000.587242515368,-5938.083734440785) translate(89.091796875 76.212890625)"/><use xlink:href="#s" transform="matrix(1,0,0,1,12000.587242515368,-5938.083734440785) translate(110.99755859375 113.96367187499999)"/><use xlink:href="#t" transform="matrix(1,0,0,1,12000.587242515368,-5938.083734440785) translate(149.38818359375 113.96367187499999)"/><use xlink:href="#u" transform="matrix(1,0,0,1,12000.587242515368,-5938.083734440785) translate(117.86572265625 151.71445312499998)"/><path d="M12087.63-5938.65a2.8 2.8 0 0 0-2.15-4.6h-59.55a2.8 2.8 0 0 0-2.16 4.6l28.08 33.58a5.02 5.02 0 0 0 7.7 0z" stroke="#000" stroke-width="2" fill="#fff"/><path d="M12024.54-6028.4a6 6 0 0 1 6-6h49.18a6 6 0 0 1 6 6v40.4a6 6 0 0 1-6 6h-49.18a6 6 0 0 1-6-6z" fill="none"/><use xlink:href="#k" transform="matrix(1,0,0,1,12029.543414582442,-6029.398374226337) translate(0 30.9580078125)"/><path d="M12055.68-5945.76l-.53-34.73" stroke="#e81313" stroke-width="3" fill="none"/><path d="M12057.18-5944.26h-2.95l-.03-1.5 2.95-.06zM12056.63-5980.47l-2.95.04-.03-1.56h2.95z" stroke="#e81313" stroke-width=".05" fill="#e81313"/><path d="M11996.12-5883.36a6 6 0 0 1 6-6h28.15a6 6 0 0 1 6 6v29.46a6 6 0 0 1-6 6h-28.15a6 6 0 0 1-6-6z" fill="none"/><use xlink:href="#v" transform="matrix(1,0,0,1,12001.118473963888,-5884.364096805017) translate(0 25.4580078125)"/><path d="M12063.1-5761a6 6 0 0 1 6-6h28.53a6 6 0 0 1 6 6v29.48a6 6 0 0 1-6 6h-28.53a6 6 0 0 1-6-6z" fill="none"/><use xlink:href="#w" transform="matrix(1,0,0,1,12068.096541746814,-5761.987297898201) translate(0 25.4580078125)"/><path d="M12222.23-5760.62a6 6 0 0 1 6-6h28.94a6 6 0 0 1 6 6v29.47a6 6 0 0 1-6 6h-28.94a6 6 0 0 1-6-6z" fill="none"/><use xlink:href="#x" transform="matrix(1,0,0,1,12227.225501410487,-5761.624302196859) translate(0 25.4580078125)"/><path d="M12266.2-5885.53a6 6 0 0 1 6-6h58.37a6 6 0 0 1 6 6v29.47a6 6 0 0 1-6 6h-58.38a6 6 0 0 1-6-6z" fill="none"/><use xlink:href="#y" transform="matrix(1,0,0,1,12271.191960987244,-5886.52901690355) translate(0 25.4580078125)"/><path d="M12526.9-4933.52h159.36a24 24 0 0 0 24-24v-287.17" stroke="#000" stroke-width="3" fill="none"/><path d="M12526.93-4932.05h-1.53v-2.95h1.53zM12711.74-5244.66h-2.95v-1.53h2.94z" stroke="#000" stroke-width=".05"/><path d="M11689.26-4718.07a6 6 0 0 1 6-6h329.82a6 6 0 0 1 6 6v206.44a6 6 0 0 1-6 6h-329.82a6 6 0 0 1-6-6z" stroke="#000" stroke-width="2" fill="#fff"/><use xlink:href="#r" transform="matrix(1,0,0,1,11694.25677311427,-4719.074525728596) translate(89.091796875 76.212890625)"/><use xlink:href="#s" transform="matrix(1,0,0,1,11694.25677311427,-4719.074525728596) translate(110.99755859375 113.96367187499999)"/><use xlink:href="#t" transform="matrix(1,0,0,1,11694.25677311427,-4719.074525728596) translate(149.38818359375 113.96367187499999)"/><use xlink:href="#z" transform="matrix(1,0,0,1,11694.25677311427,-4719.074525728596) translate(110.41357421875 151.71445312499998)"/><path d="M11781.3-4719.65a2.8 2.8 0 0 0-2.15-4.6h-59.55a2.8 2.8 0 0 0-2.16 4.6l28.08 33.6a5.02 5.02 0 0 0 7.7 0z" stroke="#000" stroke-width="2" fill="#fff"/><path d="M11717.8-4806.87a6 6 0 0 1 6-6h49.16a6 6 0 0 1 6 6v40.4a6 6 0 0 1-6 6h-49.17a6 6 0 0 1-6-6z" fill="none"/><use xlink:href="#k" transform="matrix(1,0,0,1,11722.784738298498,-4807.868636901818) translate(0 30.9580078125)"/><path d="M11749.33-4726.75l-.92-32.2" stroke="#e81313" stroke-width="3" fill="none"/><path d="M11750.85-4725.25h-2.95l-.05-1.5 2.95-.08zM11749.9-4758.96l-2.96.08-.05-1.58h2.95z" stroke="#e81313" stroke-width=".05" fill="#e81313"/><path d="M11689.8-4664.35a6 6 0 0 1 6-6h28.14a6 6 0 0 1 6 6v29.46a6 6 0 0 1-6 6h-28.15a6 6 0 0 1-6-6z" fill="none"/><use xlink:href="#v" transform="matrix(1,0,0,1,11694.788004562795,-4665.354888092828) translate(0 25.4580078125)"/><path d="M11756.77-4541.98a6 6 0 0 1 6-6h28.53a6 6 0 0 1 6 6v29.47a6 6 0 0 1-6 6h-28.53a6 6 0 0 1-6-6z" fill="none"/><use xlink:href="#w" transform="matrix(1,0,0,1,11761.766072345721,-4542.978089186013) translate(0 25.4580078125)"/><path d="M11915.9-4541.6a6 6 0 0 1 6-6h28.94a6 6 0 0 1 6 6v29.45a6 6 0 0 1-6 6h-28.94a6 6 0 0 1-6-6z" fill="none"/><use xlink:href="#x" transform="matrix(1,0,0,1,11920.895032009394,-4542.615093484671) translate(0 25.4580078125)"/><path d="M11959.86-4666.52a6 6 0 0 1 6-6h58.38a6 6 0 0 1 6 6v29.47a6 6 0 0 1-6 6h-58.38a6 6 0 0 1-6-6z" fill="none"/><use xlink:href="#y" transform="matrix(1,0,0,1,11964.86149158615,-4667.519808191361) translate(0 25.4580078125)"/><g fill="#fff"><path d="M11778.24-5106.52v157.37h-59.34v-157.37z" fill-opacity="0"/><path d="M11718.9-5106.52l59.34 31.47v94.42l-59.34 31.48z" stroke="#000" stroke-width="2"/></g><path d="M11718.53-5007.54a6 6 0 0 1 6-6h14.4a6 6 0 0 1 6 6v29.47a6 6 0 0 1-6 6h-14.4a6 6 0 0 1-6-6z" fill="none"/><use xlink:href="#A" transform="matrix(1,0,0,1,11723.529508273596,-5008.543908817732) translate(0 25.4580078125)"/><path d="M11718.9-5078.4a6 6 0 0 1 6-6h8.6a6 6 0 0 1 6 6v29.48a6 6 0 0 1-6 6h-8.6a6 6 0 0 1-6-6z" fill="none"/><use xlink:href="#B" transform="matrix(1,0,0,1,11723.900740406143,-5079.387428874808) translate(0 25.4580078125)"/><path d="M11572.76-4991.4l144.27-1.4M11572.8-4991.4h-1.54" stroke="#000" stroke-width="3" fill="none"/><path d="M11718.53-4991.33h-1.53l-.02-2.94h1.55z" stroke="#000" stroke-width=".05"/><path d="M11666.38-5063.67l51.02-.94" stroke="#000" stroke-width="3" fill="none"/><path d="M11666.44-5062.2l-1.56.04v-2.95l1.5-.04zM11718.9-5063.16l-1.5.02-.07-2.94 1.57-.03z" stroke="#000" stroke-width=".05"/><path d="M11613.7-5078.37a6 6 0 0 1 6-6h39.18a6 6 0 0 1 6 6v29.47a6 6 0 0 1-6 6h-39.18a6 6 0 0 1-6-6z" fill="none"/><use xlink:href="#C" transform="matrix(1,0,0,1,11618.69862085885,-5079.373463324362) translate(0 25.4580078125)"/><path d="M11552.58-5223.4h712.67a24 24 0 0 1 24 24v92.23a24 24 0 0 0 24 24h190.45M11552.6-5223.4h-1.52" stroke="#000" stroke-width="3" fill="none"/><path d="M12505.2-5081.7h-1.54v-2.94h1.54z" stroke="#000" stroke-width=".05"/><path d="M12105.5-5081.44a6 6 0 0 1 6-6h107.4a6 6 0 0 1 6 6v29.47a6 6 0 0 1-6 6h-107.4a6 6 0 0 1-6-6z" fill="none"/><use xlink:href="#D" transform="matrix(1,0,0,1,12110.502608445264,-5082.440629810406) translate(0 25.4580078125)"/><path d="M11561.33-5866.7l433.3-1.92M11561.37-5866.7h-1.54" stroke="#000" stroke-width="3" fill="none"/><path d="M11996.12-5867.15h-1.53l-.03-2.95h1.55z" stroke="#000" stroke-width=".05"/><path d="M11569.5-4878.04h677.47a6.7 6.7 0 0 0 6.7-6.7 6.7 6.7 0 0 1 6.7-6.7h22.18a6.7 6.7 0 0 1 6.7 6.7 6.7 6.7 0 0 0 6.7 6.7h42.88a6.7 6.7 0 0 0 6.7-6.7 6.7 6.7 0 0 1 6.7-6.7h11.77a6.7 6.7 0 0 1 6.7 6.7 6.7 6.7 0 0 0 6.7 6.7h5.9a12.6 12.6 0 0 0 12.58-12.6v-3.9a16.5 16.5 0 0 1 16.5-16.5h14.22M11568.53-4879.04v1.53" stroke="#000" stroke-width="3" fill="none"/><path d="M12428.1-4909.56h-1.54v-2.95h1.54z" stroke="#000" stroke-width=".05"/><path d="M12043.73-4977.4v97.86" stroke="#000" stroke-width="3" fill="none"/><path d="M12045.2-4977.35h-2.95v-1.54h2.95z" stroke="#000" stroke-width=".05"/><path d="M12043.73-4879.58v1.54M12084.35-5722.14v310.9a24 24 0 0 0 24 24h294.15a5.14 5.14 0 0 0 5.14-5.14 5.14 5.14 0 0 1 5.14-5.14h19.84a5.14 5.14 0 0 1 5.14 5.14 5.14 5.14 0 0 0 5.14 5.14h439.16a24 24 0 0 1 24 24v55.18" stroke="#000" stroke-width="3" fill="none"/><path d="M12085.83-5722.1h-2.95v-1.54h2.95z" stroke="#000" stroke-width=".05"/><path d="M12906.06-5308.1v1.54" stroke="#000" stroke-width="3" fill="none"/><path d="M12506.2-5142.78a6 6 0 0 1 6-6h83.3a6 6 0 0 1 6 6v72.06a6 6 0 0 1-6 6h-83.3a6 6 0 0 1-6-6z" stroke="#000" stroke-width="2" fill="#fff"/><use xlink:href="#E" transform="matrix(1,0,0,1,12511.19829104741,-5143.7831504287715) translate(21.094618055555557 48.888888888888886)"/><path d="M12640.4-5108.25V-5287a7.6 7.6 0 0 1 7.62-7.6 7.6 7.6 0 0 0 7.6-7.62v-7.3a7.6 7.6 0 0 0-7.6-7.62 7.6 7.6 0 0 1-7.6-7.6v-44.42a6.15 6.15 0 0 1 6.14-6.15 6.15 6.15 0 0 0 6.16-6.16v-9.9a6.15 6.15 0 0 0-6.16-6.16 6.15 6.15 0 0 1-6.15-6.15v-100.9a24 24 0 0 0-24-24h-23.9M12640.4-5108.3v1.55" stroke="#000" stroke-width="3" fill="none"/><path d="M12592.54-5527.1h-1.54v-2.95h1.54z" stroke="#000" stroke-width=".05"/><path d="M12339.9-5870.3h57.9a24 24 0 0 1 24 24v695.2a24 24 0 0 0 24 24h57.9" stroke="#000" stroke-width="3" fill="none"/><path d="M12339.94-5868.82h-1.53v-2.95h1.54zM12505.2-5125.63h-1.54v-2.95h1.54z" stroke="#000" stroke-width=".05"/><path d="M12604-5106.75h84.5a6.25 6.25 0 0 0 6.26-6.25 6.25 6.25 0 0 1 6.25-6.26h16.96a6.25 6.25 0 0 1 6.25 6.26 6.25 6.25 0 0 0 6.27 6.25h8.47a14.73 14.73 0 0 0 14.73-14.73v-124.38" stroke="#000" stroke-width="3" fill="none"/><path d="M12604.03-5105.28h-1.53v-2.95h1.53zM12755.15-5245.82h-2.95v-1.54h2.95z" stroke="#000" stroke-width=".05"/><path d="M11565.43-4648.24l122.86-1.36M11565.47-4648.24h-1.54" stroke="#000" stroke-width="3" fill="none"/><path d="M11689.8-4648.15l-1.53.02-.04-2.95 1.56-.02z" stroke="#000" stroke-width=".05"/><path d="M11936.37-4504.65v14.5a24 24 0 0 0 24 24h102.77a24 24 0 0 0 24-24v-488.4" stroke="#000" stroke-width="3" fill="none"/><path d="M11937.84-4504.6h-2.95v-1.55h2.94zM12088.6-4978.52h-2.94v-1.54h2.95z" stroke="#000" stroke-width=".05"/><path d="M11777.68-4490.26v40.65a24 24 0 0 0 24 24h533.3a24 24 0 0 0 24-24v-503.2" stroke="#000" stroke-width="3" fill="none"/><path d="M11777.58-4491.75l1.1-.07.48-.2v1.8h-2.95v-1.9z" stroke="#000" stroke-width=".05"/><path d="M12358.98-4952.76v-1.54M12031.74-4651.78l53.9.24" stroke="#000" stroke-width="3" fill="none"/><path d="M12031.78-4653.25v2.95h-1.54v-2.96z" stroke="#000" stroke-width=".05"/><path d="M12085.6-4651.54h1.54" stroke="#000" stroke-width="3" fill="none"/><path d="M11783.68-4499.26c0 3.6-2.68 6.5-6 6.5-3.3 0-6-2.9-6-6.5s2.7-6.5 6-6.5c3.32 0 6 2.9 6 6.5zM12494.7-5589.4a6 6 0 0 1 6-6h83.3a6 6 0 0 1 6 6v72.08a6 6 0 0 1-6 6h-83.3a6 6 0 0 1-6-6z" stroke="#000" stroke-width="2" fill="#fff"/><use xlink:href="#E" transform="matrix(1,0,0,1,12499.700584592854,-5590.387508601147) translate(21.094618055555557 48.888888888888886)"/><path d="M11559.22-5964.34h1053.6a24 24 0 0 1 24 24v342.54a24 24 0 0 1-24 24h-20.32M11559.25-5964.34h-1.53" stroke="#333" stroke-width="3" fill="none"/><path d="M12592.54-5572.32h-1.54v-2.95h1.54z" stroke="#333" stroke-width=".05" fill="#333"/><path d="M12492.2-5553.35h-48.8a5.64 5.64 0 0 1-5.64-5.64 5.64 5.64 0 0 0-5.63-5.63h-15.82a8.67 8.67 0 0 0-8.66 8.67 8.67 8.67 0 0 1-8.67 8.68h-112.3a24 24 0 0 1-24-24v-14.5" stroke="#333" stroke-width="3" fill="none"/><path d="M12493.7-5551.88h-1.54v-2.95h1.54zM12264.15-5585.74h-2.95v-1.54h2.95z" stroke="#333" stroke-width=".05" fill="#333"/><path d="M12499.35-5275.86a6 6 0 0 1 6-6h83.3a6 6 0 0 1 6 6v72.07a6 6 0 0 1-6 6h-83.3a6 6 0 0 1-6-6z" stroke="#000" stroke-width="2" fill="#fff"/><use xlink:href="#p" transform="matrix(1,0,0,1,12504.35504141168,-5276.857556130144) translate(9.321614583333336 48.888888888888886)"/><path d="M12278.6-5683.58a6 6 0 0 1 6 6v83.3a6 6 0 0 1-6 6h-72.06a6 6 0 0 1-6-6v-83.3a6 6 0 0 1 6-6z" stroke="#000" stroke-width="2" fill="#fff"/><use xlink:href="#E" transform="matrix(6.123233995736766e-17,1,-1,6.123233995736766e-17,12279.59973597412,-5678.580549992646) translate(21.094618055555557 48.888888888888886)"/><path d="M12242.57-5686.08v-18.72a.07.07 0 0 1 .06-.07.07.07 0 0 0 .07-.06v-18.72" stroke="#333" stroke-width="3" fill="none"/><path d="M12244.04-5684.58h-2.95v-1.54h2.94zM12244.17-5723.62h-2.94v-1.53h2.94z" stroke="#333" stroke-width=".05" fill="#333"/><path d="M12597.15-5259.56h18.2a5 5 0 0 0 5-5V-5306" stroke="#000" stroke-width="3" fill="none"/><path d="M12597.2-5258.08h-1.55v-2.95h1.54z" stroke="#000" stroke-width=".05"/><path d="M12620.35-5305.96v-1.54M12597.15-5219.77h24.18a5.64 5.64 0 0 0 5.64-5.63 5.64 5.64 0 0 1 5.64-5.64h17.37a5.66 5.66 0 0 1 5.66 5.66 5.66 5.66 0 0 0 5.67 5.67h47.46" stroke="#000" stroke-width="3" fill="none"/><path d="M12597.2-5218.3h-1.55v-2.94h1.54z" stroke="#000" stroke-width=".05"/><path d="M12708.72-5219.7h1.54M12496.85-5239.82a20.86 20.86 0 0 1-20.85-20.86v-29.22a4.7 4.7 0 0 1 4.7-4.7 4.7 4.7 0 0 0 4.7-4.72v-13.12a4.7 4.7 0 0 0-4.7-4.7 4.7 4.7 0 0 1-4.7-4.7v-52.24a4.7 4.7 0 0 1 4.7-4.7 4.7 4.7 0 0 0 4.7-4.72v-9.3a4.7 4.7 0 0 0-4.7-4.72 4.7 4.7 0 0 1-4.7-4.7v-44.36a19.12 19.12 0 0 0-19.12-19.12h-12.85a6.27 6.27 0 0 1-6.27-6.27 6.27 6.27 0 0 0-6.26-6.27h-17.6a6.27 6.27 0 0 0-6.26 6.27 6.27 6.27 0 0 1-6.27 6.27h-45.05" stroke="#000" stroke-width="3" fill="none"/><path d="M12498.35-5238.35h-1.53v-2.95h1.53zM12356.36-5464.23h-1.54v-2.95h1.54z" stroke="#000" stroke-width=".05"/><path d="M12258.53-5484.2a6 6 0 0 1 6-6h83.3a6 6 0 0 1 6 6v72.06a6 6 0 0 1-6 6h-83.3a6 6 0 0 1-6-6z" stroke="#000" stroke-width="2" fill="#fff"/><use xlink:href="#p" transform="matrix(1,0,0,1,12263.52608553267,-5485.20232127692) translate(9.321614583333336 48.888888888888886)"/><path d="M12356.32-5429.04h28.05v40.3" stroke="#000" stroke-width="3" fill="none"/><path d="M12356.36-5427.56h-1.54v-2.95h1.54z" stroke="#000" stroke-width=".05"/><path d="M12384.37-5388.78v1.54M12256.03-5448.17h-7.8a24 24 0 0 1-24-24v-113.6" stroke="#000" stroke-width="3" fill="none"/><path d="M12257.53-5446.7h-1.54v-2.95h1.53zM12225.7-5585.74h-2.96v-1.54h2.95z" stroke="#000" stroke-width=".05"/><path d="M12025.8-5095.27a6 6 0 0 1 6-6h66.13a6 6 0 0 1 6 6v110.16a6 6 0 0 1-6 6h-66.14a6 6 0 0 1-6-6z" stroke="#000" stroke-width="2" fill="#fff"/><path d="M12096.17-5096.67a2.8 2.8 0 0 0-2.15-4.6h-59.56a2.8 2.8 0 0 0-2.15 4.6l28.1 33.6a5.02 5.02 0 0 0 7.7 0z" stroke="#000" stroke-width="2" fill="#fff"/><path d="M12034.27-5196.27a6 6 0 0 1 6-6h49.17a6 6 0 0 1 6 6v40.4a6 6 0 0 1-6 6h-49.17a6 6 0 0 1-6-6z" fill="none"/><use xlink:href="#k" transform="matrix(1,0,0,1,12039.272165946615,-5197.269824623159) translate(0 30.9580078125)"/><path d="M12064.86-5103.77v-44.6" stroke="#e81313" stroke-width="3" fill="none"/><path d="M12066.33-5102.27h-2.95v-1.54h2.95zM12066.33-5148.32h-2.95v-1.54h2.95z" stroke="#e81313" stroke-width=".05" fill="#e81313"/><path d="M12033.1-4978.9a6 6 0 0 1-6-6v-30.02a6 6 0 0 1 6-6h21.26a6 6 0 0 1 6 6v30.03a6 6 0 0 1-6 6z" fill="none"/><use xlink:href="#l" transform="matrix(6.123233995736766e-17,-1,1,6.123233995736766e-17,12032.09128826874,-4983.8866921136705) translate(0 18.46701388888889)"/><path d="M12077.38-4980.06a6 6 0 0 1-6-6v-32.5a6 6 0 0 1 6-6h19.52a6 6 0 0 1 6 6v32.5a6 6 0 0 1-6 6z" fill="none"/><use xlink:href="#m" transform="matrix(6.123233995736766e-17,-1,1,6.123233995736766e-17,12076.375344831049,-4985.0562350927685) translate(0 17.46701388888889)"/><path d="M12692.32-5362.58a6 6 0 0 1 6-6h66.14a6 6 0 0 1 6 6v110.16a6 6 0 0 1-6 6h-66.14a6 6 0 0 1-6-6z" stroke="#000" stroke-width="2" fill="#fff"/><path d="M12762.7-5363.97a2.8 2.8 0 0 0-2.15-4.6H12701a2.8 2.8 0 0 0-2.15 4.6l28.08 33.58a5.02 5.02 0 0 0 7.7 0z" stroke="#000" stroke-width="2" fill="#fff"/><path d="M12700.8-5463.58a6 6 0 0 1 6-6h49.18a6 6 0 0 1 6 6v40.4a6 6 0 0 1-6 6h-49.17a6 6 0 0 1-6-6z" fill="none"/><use xlink:href="#k" transform="matrix(1,0,0,1,12705.808315067221,-5464.577549929815) translate(0 30.9580078125)"/><path d="M12731.4-5371.08v-44.6" stroke="#e81313" stroke-width="3" fill="none"/><path d="M12732.87-5369.58h-2.95v-1.53h2.95zM12732.87-5415.63h-2.95v-1.54h2.95z" stroke="#e81313" stroke-width=".05" fill="#e81313"/><path d="M12699.63-5246.2a6 6 0 0 1-6-6v-30.02a6 6 0 0 1 6-6h21.27a6 6 0 0 1 6 6v30.03a6 6 0 0 1-6 6z" fill="none"/><use xlink:href="#l" transform="matrix(6.123233995736766e-17,-1,1,6.123233995736766e-17,12698.627437389365,-5251.194417420326) translate(0 18.46701388888889)"/><path d="M12743.9-5247.36a6 6 0 0 1-6-6v-32.5a6 6 0 0 1 6-6h19.53a6 6 0 0 1 6 6v32.5a6 6 0 0 1-6 6z" fill="none"/><use xlink:href="#m" transform="matrix(6.123233995736766e-17,-1,1,6.123233995736766e-17,12742.911493951658,-5252.363960399424) translate(0 17.46701388888889)"/><path d="M11995.6-5937.08a6 6 0 0 1 6-6h329.8a6 6 0 0 1 6 6v206.44a6 6 0 0 1-6 6h-329.8a6 6 0 0 1-6-6z" stroke="#000" stroke-width="2" fill="#fff"/><use xlink:href="#r" transform="matrix(1,0,0,1,12000.587242515368,-5938.083734440785) translate(89.091796875 76.212890625)"/><use xlink:href="#s" transform="matrix(1,0,0,1,12000.587242515368,-5938.083734440785) translate(110.99755859375 113.96367187499999)"/><use xlink:href="#t" transform="matrix(1,0,0,1,12000.587242515368,-5938.083734440785) translate(149.38818359375 113.96367187499999)"/><use xlink:href="#u" transform="matrix(1,0,0,1,12000.587242515368,-5938.083734440785) translate(117.86572265625 151.71445312499998)"/><path d="M12087.63-5938.65a2.8 2.8 0 0 0-2.15-4.6h-59.55a2.8 2.8 0 0 0-2.16 4.6l28.08 33.58a5.02 5.02 0 0 0 7.7 0z" stroke="#000" stroke-width="2" fill="#fff"/><path d="M12024.54-6028.4a6 6 0 0 1 6-6h49.18a6 6 0 0 1 6 6v40.4a6 6 0 0 1-6 6h-49.18a6 6 0 0 1-6-6z" fill="none"/><use xlink:href="#k" transform="matrix(1,0,0,1,12029.543414582442,-6029.398374226337) translate(0 30.9580078125)"/><path d="M12055.68-5945.76l-.53-34.73" stroke="#e81313" stroke-width="3" fill="none"/><path d="M12057.18-5944.26h-2.95l-.03-1.5 2.95-.06zM12056.63-5980.47l-2.95.04-.03-1.56h2.95z" stroke="#e81313" stroke-width=".05" fill="#e81313"/><path d="M11996.12-5883.36a6 6 0 0 1 6-6h28.15a6 6 0 0 1 6 6v29.46a6 6 0 0 1-6 6h-28.15a6 6 0 0 1-6-6z" fill="none"/><use xlink:href="#v" transform="matrix(1,0,0,1,12001.118473963888,-5884.364096805017) translate(0 25.4580078125)"/><path d="M12063.1-5761a6 6 0 0 1 6-6h28.53a6 6 0 0 1 6 6v29.48a6 6 0 0 1-6 6h-28.53a6 6 0 0 1-6-6z" fill="none"/><use xlink:href="#w" transform="matrix(1,0,0,1,12068.096541746814,-5761.987297898201) translate(0 25.4580078125)"/><path d="M12222.23-5760.62a6 6 0 0 1 6-6h28.94a6 6 0 0 1 6 6v29.47a6 6 0 0 1-6 6h-28.94a6 6 0 0 1-6-6z" fill="none"/><use xlink:href="#x" transform="matrix(1,0,0,1,12227.225501410487,-5761.624302196859) translate(0 25.4580078125)"/><path d="M12266.2-5885.53a6 6 0 0 1 6-6h58.37a6 6 0 0 1 6 6v29.47a6 6 0 0 1-6 6h-58.38a6 6 0 0 1-6-6z" fill="none"/><use xlink:href="#y" transform="matrix(1,0,0,1,12271.191960987244,-5886.52901690355) translate(0 25.4580078125)"/><path d="M11689.26-4718.07a6 6 0 0 1 6-6h329.82a6 6 0 0 1 6 6v206.44a6 6 0 0 1-6 6h-329.82a6 6 0 0 1-6-6z" stroke="#000" stroke-width="2" fill="#fff"/><use xlink:href="#r" transform="matrix(1,0,0,1,11694.25677311427,-4719.074525728596) translate(89.091796875 76.212890625)"/><use xlink:href="#s" transform="matrix(1,0,0,1,11694.25677311427,-4719.074525728596) translate(110.99755859375 113.96367187499999)"/><use xlink:href="#t" transform="matrix(1,0,0,1,11694.25677311427,-4719.074525728596) translate(149.38818359375 113.96367187499999)"/><use xlink:href="#z" transform="matrix(1,0,0,1,11694.25677311427,-4719.074525728596) translate(110.41357421875 151.71445312499998)"/><path d="M11781.3-4719.65a2.8 2.8 0 0 0-2.15-4.6h-59.55a2.8 2.8 0 0 0-2.16 4.6l28.08 33.6a5.02 5.02 0 0 0 7.7 0z" stroke="#000" stroke-width="2" fill="#fff"/><path d="M11717.8-4806.87a6 6 0 0 1 6-6h49.16a6 6 0 0 1 6 6v40.4a6 6 0 0 1-6 6h-49.17a6 6 0 0 1-6-6z" fill="none"/><use xlink:href="#k" transform="matrix(1,0,0,1,11722.784738298498,-4807.868636901818) translate(0 30.9580078125)"/><path d="M11749.33-4726.75l-.92-32.2" stroke="#e81313" stroke-width="3" fill="none"/><path d="M11750.85-4725.25h-2.95l-.05-1.5 2.95-.08zM11749.9-4758.96l-2.96.08-.05-1.58h2.95z" stroke="#e81313" stroke-width=".05" fill="#e81313"/><path d="M11689.8-4664.35a6 6 0 0 1 6-6h28.14a6 6 0 0 1 6 6v29.46a6 6 0 0 1-6 6h-28.15a6 6 0 0 1-6-6z" fill="none"/><use xlink:href="#v" transform="matrix(1,0,0,1,11694.788004562795,-4665.354888092828) translate(0 25.4580078125)"/><path d="M11756.77-4541.98a6 6 0 0 1 6-6h28.53a6 6 0 0 1 6 6v29.47a6 6 0 0 1-6 6h-28.53a6 6 0 0 1-6-6z" fill="none"/><use xlink:href="#w" transform="matrix(1,0,0,1,11761.766072345721,-4542.978089186013) translate(0 25.4580078125)"/><path d="M11915.9-4541.6a6 6 0 0 1 6-6h28.94a6 6 0 0 1 6 6v29.45a6 6 0 0 1-6 6h-28.94a6 6 0 0 1-6-6z" fill="none"/><use xlink:href="#x" transform="matrix(1,0,0,1,11920.895032009394,-4542.615093484671) translate(0 25.4580078125)"/><path d="M11959.86-4666.52a6 6 0 0 1 6-6h58.38a6 6 0 0 1 6 6v29.47a6 6 0 0 1-6 6h-58.38a6 6 0 0 1-6-6z" fill="none"/><use xlink:href="#y" transform="matrix(1,0,0,1,11964.86149158615,-4667.519808191361) translate(0 25.4580078125)"/><g fill="#fff"><path d="M11778.24-5106.52v157.37h-59.34v-157.37z" fill-opacity="0"/><path d="M11718.9-5106.52l59.34 31.47v94.42l-59.34 31.48z" stroke="#000" stroke-width="2"/></g><path d="M11718.53-5007.54a6 6 0 0 1 6-6h14.4a6 6 0 0 1 6 6v29.47a6 6 0 0 1-6 6h-14.4a6 6 0 0 1-6-6z" fill="none"/><use xlink:href="#A" transform="matrix(1,0,0,1,11723.529508273596,-5008.543908817732) translate(0 25.4580078125)"/><path d="M11718.9-5078.4a6 6 0 0 1 6-6h8.6a6 6 0 0 1 6 6v29.48a6 6 0 0 1-6 6h-8.6a6 6 0 0 1-6-6z" fill="none"/><use xlink:href="#B" transform="matrix(1,0,0,1,11723.900740406143,-5079.387428874808) translate(0 25.4580078125)"/><path d="M12025.8-5095.27a6 6 0 0 1 6-6h66.13a6 6 0 0 1 6 6v110.16a6 6 0 0 1-6 6h-66.14a6 6 0 0 1-6-6z" stroke="#000" stroke-width="2" fill="#fff"/><path d="M12096.17-5096.67a2.8 2.8 0 0 0-2.15-4.6h-59.56a2.8 2.8 0 0 0-2.15 4.6l28.1 33.6a5.02 5.02 0 0 0 7.7 0z" stroke="#000" stroke-width="2" fill="#fff"/><path d="M12034.27-5196.27a6 6 0 0 1 6-6h49.17a6 6 0 0 1 6 6v40.4a6 6 0 0 1-6 6h-49.17a6 6 0 0 1-6-6z" fill="none"/><use xlink:href="#k" transform="matrix(1,0,0,1,12039.272165946615,-5197.269824623159) translate(0 30.9580078125)"/><path d="M12064.86-5103.77v-44.6" stroke="#e81313" stroke-width="3" fill="none"/><path d="M12066.33-5102.27h-2.95v-1.54h2.95zM12066.33-5148.32h-2.95v-1.54h2.95z" stroke="#e81313" stroke-width=".05" fill="#e81313"/><path d="M12033.1-4978.9a6 6 0 0 1-6-6v-30.02a6 6 0 0 1 6-6h21.26a6 6 0 0 1 6 6v30.03a6 6 0 0 1-6 6z" fill="none"/><use xlink:href="#l" transform="matrix(6.123233995736766e-17,-1,1,6.123233995736766e-17,12032.09128826874,-4983.8866921136705) translate(0 18.46701388888889)"/><path d="M12077.38-4980.06a6 6 0 0 1-6-6v-32.5a6 6 0 0 1 6-6h19.52a6 6 0 0 1 6 6v32.5a6 6 0 0 1-6 6z" fill="none"/><use xlink:href="#m" transform="matrix(6.123233995736766e-17,-1,1,6.123233995736766e-17,12076.375344831049,-4985.0562350927685) translate(0 17.46701388888889)"/><path d="M12692.32-5362.58a6 6 0 0 1 6-6h66.14a6 6 0 0 1 6 6v110.16a6 6 0 0 1-6 6h-66.14a6 6 0 0 1-6-6z" stroke="#000" stroke-width="2" fill="#fff"/><path d="M12762.7-5363.97a2.8 2.8 0 0 0-2.15-4.6H12701a2.8 2.8 0 0 0-2.15 4.6l28.08 33.58a5.02 5.02 0 0 0 7.7 0z" stroke="#000" stroke-width="2" fill="#fff"/><path d="M12700.8-5463.58a6 6 0 0 1 6-6h49.18a6 6 0 0 1 6 6v40.4a6 6 0 0 1-6 6h-49.17a6 6 0 0 1-6-6z" fill="none"/><use xlink:href="#k" transform="matrix(1,0,0,1,12705.808315067221,-5464.577549929815) translate(0 30.9580078125)"/><path d="M12731.4-5371.08v-44.6" stroke="#e81313" stroke-width="3" fill="none"/><path d="M12732.87-5369.58h-2.95v-1.53h2.95zM12732.87-5415.63h-2.95v-1.54h2.95z" stroke="#e81313" stroke-width=".05" fill="#e81313"/><path d="M12699.63-5246.2a6 6 0 0 1-6-6v-30.02a6 6 0 0 1 6-6h21.27a6 6 0 0 1 6 6v30.03a6 6 0 0 1-6 6z" fill="none"/><use xlink:href="#l" transform="matrix(6.123233995736766e-17,-1,1,6.123233995736766e-17,12698.627437389365,-5251.194417420326) translate(0 18.46701388888889)"/><path d="M12743.9-5247.36a6 6 0 0 1-6-6v-32.5a6 6 0 0 1 6-6h19.53a6 6 0 0 1 6 6v32.5a6 6 0 0 1-6 6z" fill="none"/><use xlink:href="#m" transform="matrix(6.123233995736766e-17,-1,1,6.123233995736766e-17,12742.911493951658,-5252.363960399424) translate(0 17.46701388888889)"/><path d="M11995.6-5937.08a6 6 0 0 1 6-6h329.8a6 6 0 0 1 6 6v206.44a6 6 0 0 1-6 6h-329.8a6 6 0 0 1-6-6z" stroke="#000" stroke-width="2" fill="#fff"/><use xlink:href="#r" transform="matrix(1,0,0,1,12000.587242515368,-5938.083734440785) translate(89.091796875 76.212890625)"/><use xlink:href="#s" transform="matrix(1,0,0,1,12000.587242515368,-5938.083734440785) translate(110.99755859375 113.96367187499999)"/><use xlink:href="#t" transform="matrix(1,0,0,1,12000.587242515368,-5938.083734440785) translate(149.38818359375 113.96367187499999)"/><use xlink:href="#u" transform="matrix(1,0,0,1,12000.587242515368,-5938.083734440785) translate(117.86572265625 151.71445312499998)"/><path d="M12087.63-5938.65a2.8 2.8 0 0 0-2.15-4.6h-59.55a2.8 2.8 0 0 0-2.16 4.6l28.08 33.58a5.02 5.02 0 0 0 7.7 0z" stroke="#000" stroke-width="2" fill="#fff"/><path d="M12024.54-6028.4a6 6 0 0 1 6-6h49.18a6 6 0 0 1 6 6v40.4a6 6 0 0 1-6 6h-49.18a6 6 0 0 1-6-6z" fill="none"/><use xlink:href="#k" transform="matrix(1,0,0,1,12029.543414582442,-6029.398374226337) translate(0 30.9580078125)"/><path d="M12055.68-5945.76l-.53-34.73" stroke="#e81313" stroke-width="3" fill="none"/><path d="M12057.18-5944.26h-2.95l-.03-1.5 2.95-.06zM12056.63-5980.47l-2.95.04-.03-1.56h2.95z" stroke="#e81313" stroke-width=".05" fill="#e81313"/><path d="M11996.12-5883.36a6 6 0 0 1 6-6h28.15a6 6 0 0 1 6 6v29.46a6 6 0 0 1-6 6h-28.15a6 6 0 0 1-6-6z" fill="none"/><use xlink:href="#v" transform="matrix(1,0,0,1,12001.118473963888,-5884.364096805017) translate(0 25.4580078125)"/><path d="M12063.1-5761a6 6 0 0 1 6-6h28.53a6 6 0 0 1 6 6v29.48a6 6 0 0 1-6 6h-28.53a6 6 0 0 1-6-6z" fill="none"/><use xlink:href="#w" transform="matrix(1,0,0,1,12068.096541746814,-5761.987297898201) translate(0 25.4580078125)"/><path d="M12222.23-5760.62a6 6 0 0 1 6-6h28.94a6 6 0 0 1 6 6v29.47a6 6 0 0 1-6 6h-28.94a6 6 0 0 1-6-6z" fill="none"/><use xlink:href="#x" transform="matrix(1,0,0,1,12227.225501410487,-5761.624302196859) translate(0 25.4580078125)"/><path d="M12266.2-5885.53a6 6 0 0 1 6-6h58.37a6 6 0 0 1 6 6v29.47a6 6 0 0 1-6 6h-58.38a6 6 0 0 1-6-6z" fill="none"/><use xlink:href="#y" transform="matrix(1,0,0,1,12271.191960987244,-5886.52901690355) translate(0 25.4580078125)"/><path d="M11689.26-4718.07a6 6 0 0 1 6-6h329.82a6 6 0 0 1 6 6v206.44a6 6 0 0 1-6 6h-329.82a6 6 0 0 1-6-6z" stroke="#000" stroke-width="2" fill="#fff"/><g><use xlink:href="#r" transform="matrix(1,0,0,1,11694.25677311427,-4719.074525728596) translate(89.091796875 76.212890625)"/><use xlink:href="#s" transform="matrix(1,0,0,1,11694.25677311427,-4719.074525728596) translate(110.99755859375 113.96367187499999)"/><use xlink:href="#t" transform="matrix(1,0,0,1,11694.25677311427,-4719.074525728596) translate(149.38818359375 113.96367187499999)"/><use xlink:href="#z" transform="matrix(1,0,0,1,11694.25677311427,-4719.074525728596) translate(110.41357421875 151.71445312499998)"/></g><g><path d="M11781.3-4719.65a2.8 2.8 0 0 0-2.15-4.6h-59.55a2.8 2.8 0 0 0-2.16 4.6l28.08 33.6a5.02 5.02 0 0 0 7.7 0z" stroke="#000" stroke-width="2" fill="#fff"/></g><path d="M11717.8-4806.87a6 6 0 0 1 6-6h49.16a6 6 0 0 1 6 6v40.4a6 6 0 0 1-6 6h-49.17a6 6 0 0 1-6-6z" fill="none"/><g><use xlink:href="#k" transform="matrix(1,0,0,1,11722.784738298498,-4807.868636901818) translate(0 30.9580078125)"/></g><path d="M11749.33-4726.75l-.92-32.2" stroke="#e81313" stroke-width="3" fill="none"/><path d="M11750.85-4725.25h-2.95l-.05-1.5 2.95-.08zM11749.9-4758.96l-2.96.08-.05-1.58h2.95z" stroke="#e81313" stroke-width=".05" fill="#e81313"/><path d="M11689.8-4664.35a6 6 0 0 1 6-6h28.14a6 6 0 0 1 6 6v29.46a6 6 0 0 1-6 6h-28.15a6 6 0 0 1-6-6z" fill="none"/><g><use xlink:href="#v" transform="matrix(1,0,0,1,11694.788004562795,-4665.354888092828) translate(0 25.4580078125)"/></g><path d="M11756.77-4541.98a6 6 0 0 1 6-6h28.53a6 6 0 0 1 6 6v29.47a6 6 0 0 1-6 6h-28.53a6 6 0 0 1-6-6z" fill="none"/><g><use xlink:href="#w" transform="matrix(1,0,0,1,11761.766072345721,-4542.978089186013) translate(0 25.4580078125)"/></g><path d="M11915.9-4541.6a6 6 0 0 1 6-6h28.94a6 6 0 0 1 6 6v29.45a6 6 0 0 1-6 6h-28.94a6 6 0 0 1-6-6z" fill="none"/><g><use xlink:href="#x" transform="matrix(1,0,0,1,11920.895032009394,-4542.615093484671) translate(0 25.4580078125)"/></g><path d="M11959.86-4666.52a6 6 0 0 1 6-6h58.38a6 6 0 0 1 6 6v29.47a6 6 0 0 1-6 6h-58.38a6 6 0 0 1-6-6z" fill="none"/><g><use xlink:href="#y" transform="matrix(1,0,0,1,11964.86149158615,-4667.519808191361) translate(0 25.4580078125)"/></g><g fill="#fff"><path d="M11778.24-5106.52v157.37h-59.34v-157.37z" fill-opacity="0"/><path d="M11718.9-5106.52l59.34 31.47v94.42l-59.34 31.48z" stroke="#000" stroke-width="2"/></g><path d="M11718.53-5007.54a6 6 0 0 1 6-6h14.4a6 6 0 0 1 6 6v29.47a6 6 0 0 1-6 6h-14.4a6 6 0 0 1-6-6z" fill="none"/><g><use xlink:href="#A" transform="matrix(1,0,0,1,11723.529508273596,-5008.543908817732) translate(0 25.4580078125)"/></g><path d="M11718.9-5078.4a6 6 0 0 1 6-6h8.6a6 6 0 0 1 6 6v29.48a6 6 0 0 1-6 6h-8.6a6 6 0 0 1-6-6z" fill="none"/><g><use xlink:href="#B" transform="matrix(1,0,0,1,11723.900740406143,-5079.387428874808) translate(0 25.4580078125)"/></g><defs><path fill="#635dff" d="M52 0l541-1490h220L1361 0h-200l-149-416H398L254 0H52zm404-582h497c-103-290-145-390-251-756-108 377-145 460-246 756" id="F"/><path fill="#635dff" d="M577 24c-279 0-473-224-473-580 0-354 195-576 474-576 218 0 287 134 324 193h14v-551h180V0H922v-173h-20C865-111 790 24 577 24zm27-161c203 0 314-172 314-421 0-247-108-413-314-413-212 0-317 181-317 413 0 235 108 421 317 421" id="G"/><path fill="#635dff" d="M158 0v-1118h175l1 205c55-151 181-225 313-225 147 0 245 90 285 228 53-141 190-228 352-228 194 0 352 125 352 384V0h-181v-749c0-161-105-225-225-225-151 0-243 103-243 244V0H807v-767c0-124-93-207-219-207-131 0-250 92-250 270V0H158" id="H"/><path fill="#635dff" d="M158 0v-1118h180V0H158zm91-1301c-68 0-125-53-125-119s57-119 125-119c69 0 126 53 126 119s-57 119-126 119" id="I"/><path fill="#635dff" d="M338-670V0H158v-1118h173l1 207c72-158 192-221 342-221 226 0 378 139 378 422V0H872v-695c0-172-96-275-252-275-161 0-282 109-282 300" id="J"/><g id="a"><use transform="matrix(0.0126953125,0,0,0.0126953125,0,0)" xlink:href="#F"/><use transform="matrix(0.0126953125,0,0,0.0126953125,17.9384765625,0)" xlink:href="#G"/><use transform="matrix(0.0126953125,0,0,0.0126953125,33.8583984375,0)" xlink:href="#H"/><use transform="matrix(0.0126953125,0,0,0.0126953125,56.6337890625,0)" xlink:href="#I"/><use transform="matrix(0.0126953125,0,0,0.0126953125,62.9306640625,0)" xlink:href="#J"/></g><path fill="#635dff" d="M763 24c-353 0-583-224-583-531v-983h190v968c0 214 149 370 393 370 243 0 391-156 391-370v-968h190v983c0 307-230 531-581 531" id="K"/><path fill="#635dff" d="M598-1118v154H368v674c0 100 37 144 132 144 23 0 62-6 92-12L629-6c-37 13-88 20-134 20-193 0-307-107-307-290v-688H20v-154h168v-266h180v266h230" id="L"/><g id="b"><use transform="matrix(0.0126953125,0,0,0.0126953125,0,0)" xlink:href="#K"/><use transform="matrix(0.0126953125,0,0,0.0126953125,19.34765625,0)" xlink:href="#J"/><use transform="matrix(0.0126953125,0,0,0.0126953125,34.708984375,0)" xlink:href="#I"/><use transform="matrix(0.0126953125,0,0,0.0126953125,41.005859375,0)" xlink:href="#L"/></g><path d="M538 24C308 24 148-78 108-271l171-41c32 123 123 178 257 178 156 0 256-77 256-169 0-77-54-128-164-154l-186-44c-203-48-300-148-300-305 0-192 176-326 414-326 230 0 351 112 402 269l-163 42c-31-80-94-158-238-158-133 0-233 69-233 162 0 83 57 129 188 160l169 40c203 48 298 149 298 302 0 196-179 339-441 339" id="M"/><path d="M158 0v-1118h180V0H158zm91-1301c-68 0-125-53-125-119s57-119 125-119c69 0 126 53 126 119s-57 119-126 119" id="N"/><path d="M611 442c-248 0-391-105-460-228l146-94c47 65 117 165 314 165 178 0 307-82 307-266v-224h-17C863-141 792-18 576-18c-268 0-472-195-472-546 0-346 197-568 476-568 216 0 288 133 326 193h17v-179h175V29c0 289-215 413-487 413zm-5-620c203 0 314-146 314-390 0-237-108-403-314-403-213 0-319 180-319 403 0 230 109 390 319 390" id="O"/><path d="M338-670V0H158v-1118h173l1 207c72-158 192-221 342-221 226 0 378 139 378 422V0H872v-695c0-172-96-275-252-275-161 0-282 109-282 300" id="P"/><path d="M471 26C259 26 90-98 90-318c0-256 228-303 435-329 202-27 287-16 287-108 0-139-79-219-234-219-161 0-248 86-283 164l-173-57c86-203 278-265 451-265 150 0 419 46 419 395V0H815v-152h-12C765-73 660 26 471 26zm31-159c199 0 310-134 310-271v-155c-30 35-226 55-295 64-131 17-246 59-246 186 0 116 97 176 231 176" id="Q"/><path d="M338-1490V0H158v-1490h180" id="R"/><g id="c"><use transform="matrix(0.0126953125,0,0,0.0126953125,0,0)" xlink:href="#M"/><use transform="matrix(0.0126953125,0,0,0.0126953125,13.7236328125,0)" xlink:href="#N"/><use transform="matrix(0.0126953125,0,0,0.0126953125,20.0205078125,0)" xlink:href="#O"/><use transform="matrix(0.0126953125,0,0,0.0126953125,35.9658203125,0)" xlink:href="#P"/><use transform="matrix(0.0126953125,0,0,0.0126953125,51.3271484375,0)" xlink:href="#Q"/><use transform="matrix(0.0126953125,0,0,0.0126953125,65.9267578125,0)" xlink:href="#R"/></g><path d="M158 0v-1118h175l1 205c55-151 181-225 313-225 147 0 245 90 285 228 53-141 190-228 352-228 194 0 352 125 352 384V0h-181v-749c0-161-105-225-225-225-151 0-243 103-243 244V0H807v-767c0-124-93-207-219-207-131 0-250 92-250 270V0H158" id="S"/><path d="M65 0l393-574-370-544h210c88 136 192 297 267 435 67-142 176-302 264-435h206L661-564 1053 0H844c-94-144-206-310-287-458C484-308 366-142 273 0H65" id="T"/><g id="d"><use transform="matrix(0.0126953125,0,0,0.0126953125,0,0)" xlink:href="#S"/><use transform="matrix(0.0126953125,0,0,0.0126953125,22.775390625,0)" xlink:href="#Q"/><use transform="matrix(0.0126953125,0,0,0.0126953125,37.375,0)" xlink:href="#T"/></g><path d="M613 24c-304 0-509-231-509-576 0-350 205-580 509-580 305 0 511 230 511 580 0 345-206 576-511 576zm0-161c226 0 329-195 329-415 0-222-103-419-329-419-223 0-326 196-326 419 0 220 103 415 326 415" id="U"/><g id="e"><use transform="matrix(0.0126953125,0,0,0.0126953125,0,0)" xlink:href="#R"/><use transform="matrix(0.0126953125,0,0,0.0126953125,6.296875,0)" xlink:href="#U"/><use transform="matrix(0.0126953125,0,0,0.0126953125,21.88671875,0)" xlink:href="#O"/><use transform="matrix(0.0126953125,0,0,0.0126953125,37.83203125,0)" xlink:href="#N"/><use transform="matrix(0.0126953125,0,0,0.0126953125,44.12890625,0)" xlink:href="#P"/></g><path d="M537 14c-226 0-379-139-379-422v-710h180v695c0 172 97 275 253 275 160 0 281-109 281-300v-670h181V0H879v-209C806-46 684 14 537 14" id="V"/><path d="M598-1118v154H368v674c0 100 37 144 132 144 23 0 62-6 92-12L629-6c-37 13-88 20-134 20-193 0-307-107-307-290v-688H20v-154h168v-266h180v266h230" id="W"/><g id="f"><use transform="matrix(0.0126953125,0,0,0.0126953125,0,0)" xlink:href="#R"/><use transform="matrix(0.0126953125,0,0,0.0126953125,6.296875,0)" xlink:href="#U"/><use transform="matrix(0.0126953125,0,0,0.0126953125,21.88671875,0)" xlink:href="#O"/><use transform="matrix(0.0126953125,0,0,0.0126953125,37.83203125,0)" xlink:href="#U"/><use transform="matrix(0.0126953125,0,0,0.0126953125,53.421875,0)" xlink:href="#V"/><use transform="matrix(0.0126953125,0,0,0.0126953125,68.7958984375,0)" xlink:href="#W"/></g><path d="M657 26c-323 0-524-166-541-416h195c15 169 171 246 346 246 202 0 356-106 356-265 5-203-294-238-475-293-239-73-380-191-380-389 0-252 224-419 512-419 294 0 499 171 508 396H992c-17-145-151-228-328-228-193 0-321 102-321 242 0 156 175 211 284 241l149 41c160 44 422 134 422 412 0 244-197 432-541 432" id="X"/><path d="M628 24c-324 0-524-230-524-574 0-343 198-582 503-582 237 0 487 146 487 559v75H286c9 234 145 362 343 362 132 0 231-58 273-172l174 48C1024-91 857 24 628 24zM287-650h624c-17-190-120-322-304-322-192 0-309 151-320 322" id="Y"/><g id="g"><use transform="matrix(0.0126953125,0,0,0.0126953125,0,0)" xlink:href="#W"/><use transform="matrix(0.0126953125,0,0,0.0126953125,8.505859375,0)" xlink:href="#X"/><use transform="matrix(0.0126953125,0,0,0.0126953125,25.1875,0)" xlink:href="#Y"/><use transform="matrix(0.0126953125,0,0,0.0126953125,40.345703125,0)" xlink:href="#M"/></g><path d="M784 20c-382 0-662-292-662-764 0-473 280-766 662-766s660 293 660 766c0 472-278 764-660 764zm0-176c266 0 475-207 475-588 0-383-209-590-475-590-268 0-477 208-477 590 0 380 209 588 477 588" id="Z"/><g id="h"><use transform="matrix(0.0126953125,0,0,0.0126953125,0,0)" xlink:href="#W"/><use transform="matrix(0.0126953125,0,0,0.0126953125,8.505859375,0)" xlink:href="#Z"/><use transform="matrix(0.0126953125,0,0,0.0126953125,28.38671875,0)" xlink:href="#V"/><use transform="matrix(0.0126953125,0,0,0.0126953125,43.7607421875,0)" xlink:href="#W"/></g><g id="i"><use transform="matrix(0.0126953125,0,0,0.0126953125,0,0)" xlink:href="#M"/><use transform="matrix(0.0126953125,0,0,0.0126953125,13.7236328125,0)" xlink:href="#Y"/><use transform="matrix(0.0126953125,0,0,0.0126953125,28.8818359375,0)" xlink:href="#M"/><use transform="matrix(0.0126953125,0,0,0.0126953125,42.60546875,0)" xlink:href="#M"/><use transform="matrix(0.0126953125,0,0,0.0126953125,56.3291015625,0)" xlink:href="#N"/><use transform="matrix(0.0126953125,0,0,0.0126953125,62.6259765625,0)" xlink:href="#U"/><use transform="matrix(0.0126953125,0,0,0.0126953125,78.2158203125,0)" xlink:href="#P"/></g><path d="M158 0v-1118h174v172h12c41-113 157-188 290-188 26 0 70 2 91 3v181c-11-2-60-10-108-10-161 0-279 109-279 260V0H158" id="aa"/><path d="M678-1118v154H420V0H240v-964H20v-154h220v-149c0-194 155-293 318-293 85 0 141 18 168 30l-50 154c-19-6-47-17-97-17-111 0-159 58-159 166v109h258" id="ab"/><path d="M338-670V0H158v-1490h180v566c73-149 190-208 336-208 226 0 379 139 379 422V0H872v-695c0-172-96-275-252-275-161 0-282 109-282 300" id="ac"/><g id="j"><use transform="matrix(0.0126953125,0,0,0.0126953125,0,0)" xlink:href="#aa"/><use transform="matrix(0.0126953125,0,0,0.0126953125,9.3564453125,0)" xlink:href="#Y"/><use transform="matrix(0.0126953125,0,0,0.0126953125,24.5146484375,0)" xlink:href="#ab"/><use transform="matrix(0.0126953125,0,0,0.0126953125,34.1376953125,0)" xlink:href="#aa"/><use transform="matrix(0.0126953125,0,0,0.0126953125,43.494140625,0)" xlink:href="#Y"/><use transform="matrix(0.0126953125,0,0,0.0126953125,58.65234375,0)" xlink:href="#M"/><use transform="matrix(0.0126953125,0,0,0.0126953125,72.3759765625,0)" xlink:href="#ac"/></g><path fill="#e81313" d="M783 20c-382 0-661-292-661-764 0-473 279-766 661-766 302 0 548 182 601 489h-190c-42-204-217-313-411-313-268 0-476 208-476 590 0 381 209 588 476 588 195 0 369-110 411-313h190c-52 303-296 489-601 489" id="ad"/><path fill="#e81313" d="M180 0v-1490h190v1322h690V0H180" id="ae"/><path fill="#e81313" d="M180 0v-1490h190c0 262 1 526-3 784 217-279 467-523 702-784h249L716-845 1319 0h-225L585-716 370-489V0H180" id="af"/><g id="k"><use transform="matrix(0.0126953125,0,0,0.0126953125,0,0)" xlink:href="#ad"/><use transform="matrix(0.0126953125,0,0,0.0126953125,18.9921875,0)" xlink:href="#ae"/><use transform="matrix(0.0126953125,0,0,0.0126953125,33.693359375,0)" xlink:href="#af"/></g><path fill="#008a0e" d="M180 0v-1490h908v168H370v486h669v168H370v500h727V0H180" id="ag"/><path fill="#008a0e" d="M180 0v-1490h224l606 953c40 63 108 177 176 312-27-437-7-821-13-1265h190V0h-226C860-448 622-778 356-1262c27 476 11 792 15 1262H180" id="ah"/><g id="l"><use transform="matrix(0.008680555555555556,0,0,0.008680555555555556,0,0)" xlink:href="#ag"/><use transform="matrix(0.008680555555555556,0,0,0.008680555555555556,10.68576388888889,0)" xlink:href="#ah"/></g><path fill="#008a0e" d="M783 20c-382 0-661-292-661-764 0-473 279-766 661-766 302 0 548 182 601 489h-190c-42-204-217-313-411-313-268 0-476 208-476 590 0 381 209 588 476 588 195 0 369-110 411-313h190c-52 303-296 489-601 489" id="ai"/><path fill="#008a0e" d="M180 0v-1490h190v1322h690V0H180" id="aj"/><path fill="#008a0e" d="M180 0v-1490h510c348 0 508 194 508 460 0 198-88 351-276 417L1256 0h-220L726-579c-117 2-238 0-356 1V0H180zm190-747h312c235 0 327-108 327-283 0-177-92-293-329-293H370v576" id="ak"/><g id="m"><use transform="matrix(0.008680555555555556,0,0,0.008680555555555556,0,0)" xlink:href="#ai"/><use transform="matrix(0.008680555555555556,0,0,0.008680555555555556,12.986111111111112,0)" xlink:href="#aj"/><use transform="matrix(0.008680555555555556,0,0,0.008680555555555556,23.038194444444446,0)" xlink:href="#ak"/></g><path d="M671-608v428H524v-428H100v-146h424v-428h147v428h424v146H671" id="al"/><use transform="matrix(0.01953125,0,0,0.01953125,0,0)" xlink:href="#al" id="n"/><path d="M174-520v-126l944-476v196L406-588v12l712 338v194" id="am"/><use transform="matrix(0.015190972222222222,0,0,0.015190972222222222,0,0)" xlink:href="#am" id="o"/><path d="M52 0l541-1490h220L1361 0h-200l-149-416H398L254 0H52zm404-582h497c-103-290-145-390-251-756-108 377-145 460-246 756" id="an"/><path d="M180 0v-1490h224l606 953c40 63 108 177 176 312-27-437-7-821-13-1265h190V0h-226C860-448 622-778 356-1262c27 476 11 792 15 1262H180" id="ao"/><path d="M645 0H180v-1490h484c435 0 692 280 692 742 0 466-257 748-711 748zM370-168h263c363 0 539-218 539-580 0-358-176-574-521-574H370v1154" id="ap"/><g id="p"><use transform="matrix(0.015190972222222222,0,0,0.015190972222222222,0,0)" xlink:href="#an"/><use transform="matrix(0.015190972222222222,0,0,0.015190972222222222,21.46484375,0)" xlink:href="#ao"/><use transform="matrix(0.015190972222222222,0,0,0.015190972222222222,44.904513888888886,0)" xlink:href="#ap"/></g><path fill="#bc1c7f" d="M538 24C308 24 148-78 108-271l171-41c32 123 123 178 257 178 156 0 256-77 256-169 0-77-54-128-164-154l-186-44c-203-48-300-148-300-305 0-192 176-326 414-326 230 0 351 112 402 269l-163 42c-31-80-94-158-238-158-133 0-233 69-233 162 0 83 57 129 188 160l169 40c203 48 298 149 298 302 0 196-179 339-441 339" id="aq"/><path fill="#bc1c7f" d="M628 24c-324 0-524-230-524-574 0-343 198-582 503-582 237 0 487 146 487 559v75H286c9 234 145 362 343 362 132 0 231-58 273-172l174 48C1024-91 857 24 628 24zM287-650h624c-17-190-120-322-304-322-192 0-309 151-320 322" id="ar"/><path fill="#bc1c7f" d="M158 0v-1118h180V0H158zm91-1301c-68 0-125-53-125-119s57-119 125-119c69 0 126 53 126 119s-57 119-126 119" id="as"/><path fill="#bc1c7f" d="M613 24c-304 0-509-231-509-576 0-350 205-580 509-580 305 0 511 230 511 580 0 345-206 576-511 576zm0-161c226 0 329-195 329-415 0-222-103-419-329-419-223 0-326 196-326 419 0 220 103 415 326 415" id="at"/><path fill="#bc1c7f" d="M338-670V0H158v-1118h173l1 207c72-158 192-221 342-221 226 0 378 139 378 422V0H872v-695c0-172-96-275-252-275-161 0-282 109-282 300" id="au"/><g id="q"><use transform="matrix(0.0126953125,0,0,0.0126953125,0,0)" xlink:href="#aq"/><use transform="matrix(0.0126953125,0,0,0.0126953125,13.7236328125,0)" xlink:href="#ar"/><use transform="matrix(0.0126953125,0,0,0.0126953125,28.8818359375,0)" xlink:href="#aq"/><use transform="matrix(0.0126953125,0,0,0.0126953125,42.60546875,0)" xlink:href="#aq"/><use transform="matrix(0.0126953125,0,0,0.0126953125,56.3291015625,0)" xlink:href="#as"/><use transform="matrix(0.0126953125,0,0,0.0126953125,62.6259765625,0)" xlink:href="#at"/><use transform="matrix(0.0126953125,0,0,0.0126953125,78.2158203125,0)" xlink:href="#au"/></g><path d="M783 20c-382 0-661-292-661-764 0-473 279-766 661-766 302 0 548 182 601 489h-190c-42-204-217-313-411-313-268 0-476 208-476 590 0 381 209 588 476 588 195 0 369-110 411-313h190c-52 303-296 489-601 489" id="av"/><path d="M158 418v-1536h174v179h20c37-59 106-193 324-193 279 0 474 222 474 576 0 356-194 580-473 580-213 0-288-135-325-197h-14v591H158zm492-555c209 0 317-186 317-421 0-232-105-413-317-413-206 0-314 166-314 413 0 249 111 421 314 421" id="aw"/><path d="M577 24c-279 0-473-224-473-580 0-354 195-576 474-576 218 0 287 134 324 193h14v-551h180V0H922v-173h-20C865-111 790 24 577 24zm27-161c203 0 314-172 314-421 0-247-108-413-314-413-212 0-317 181-317 413 0 235 108 421 317 421" id="ax"/><g id="r"><use transform="matrix(0.0126953125,0,0,0.0126953125,0,0)" xlink:href="#av"/><use transform="matrix(0.0126953125,0,0,0.0126953125,18.9921875,0)" xlink:href="#U"/><use transform="matrix(0.0126953125,0,0,0.0126953125,34.58203125,0)" xlink:href="#S"/><use transform="matrix(0.0126953125,0,0,0.0126953125,57.357421875,0)" xlink:href="#aw"/><use transform="matrix(0.0126953125,0,0,0.0126953125,73.53125,0)" xlink:href="#Q"/><use transform="matrix(0.0126953125,0,0,0.0126953125,88.130859375,0)" xlink:href="#aa"/><use transform="matrix(0.0126953125,0,0,0.0126953125,97.9189453125,0)" xlink:href="#Q"/><use transform="matrix(0.0126953125,0,0,0.0126953125,112.5185546875,0)" xlink:href="#ax"/><use transform="matrix(0.0126953125,0,0,0.0126953125,128.4384765625,0)" xlink:href="#U"/><use transform="matrix(0.0126953125,0,0,0.0126953125,144.0283203125,0)" xlink:href="#aa"/></g><g id="s"><use transform="matrix(0.0126953125,0,0,0.0126953125,0,0)" xlink:href="#ax"/><use transform="matrix(0.0126953125,0,0,0.0126953125,15.919921875,0)" xlink:href="#Y"/></g><path d="M613 24c-304 0-509-231-509-576 0-350 205-580 509-580 216 0 392 114 453 309l-173 49c-33-115-133-197-280-197-223 0-326 196-326 419 0 220 103 415 326 415 150 0 252-85 285-206l172 49C1010-95 832 24 613 24" id="ay"/><g id="t"><use transform="matrix(0.0126953125,0,0,0.0126953125,0,0)" xlink:href="#ay"/><use transform="matrix(0.0126953125,0,0,0.0126953125,14.853515625,0)" xlink:href="#N"/><use transform="matrix(0.0126953125,0,0,0.0126953125,21.150390625,0)" xlink:href="#ay"/><use transform="matrix(0.0126953125,0,0,0.0126953125,36.00390625,0)" xlink:href="#R"/><use transform="matrix(0.0126953125,0,0,0.0126953125,42.30078125,0)" xlink:href="#U"/><use transform="matrix(0.0126953125,0,0,0.0126953125,57.890625,0)" xlink:href="#M"/></g><path d="M218-607c0-325 108-727 258-974h175c-155 315-250 682-250 974 0 265 78 531 250 886H476C306-10 218-315 218-607" id="az"/><path d="M96 279C273-86 346-350 346-607c0-292-95-659-250-974h175c150 246 258 650 258 974 0 297-91 602-258 886H96" id="aA"/><g id="u"><use transform="matrix(0.0126953125,0,0,0.0126953125,0,0)" xlink:href="#az"/><use transform="matrix(0.0126953125,0,0,0.0126953125,9.4833984375,0)" xlink:href="#R"/><use transform="matrix(0.0126953125,0,0,0.0126953125,15.7802734375,0)" xlink:href="#U"/><use transform="matrix(0.0126953125,0,0,0.0126953125,31.3701171875,0)" xlink:href="#O"/><use transform="matrix(0.0126953125,0,0,0.0126953125,47.3154296875,0)" xlink:href="#U"/><use transform="matrix(0.0126953125,0,0,0.0126953125,62.9052734375,0)" xlink:href="#V"/><use transform="matrix(0.0126953125,0,0,0.0126953125,78.279296875,0)" xlink:href="#W"/><use transform="matrix(0.0126953125,0,0,0.0126953125,86.78515625,0)" xlink:href="#aA"/></g><path fill="#82755b" d="M598-1118v154H368v674c0 100 37 144 132 144 23 0 62-6 92-12L629-6c-37 13-88 20-134 20-193 0-307-107-307-290v-688H20v-154h168v-266h180v266h230" id="aB"/><path fill="#82755b" d="M613 24c-304 0-509-231-509-576 0-350 205-580 509-580 305 0 511 230 511 580 0 345-206 576-511 576zm0-161c226 0 329-195 329-415 0-222-103-419-329-419-223 0-326 196-326 419 0 220 103 415 326 415" id="aC"/><path fill="#82755b" d="M338-1490V0H158v-1490h180" id="aD"/><g id="v"><use transform="matrix(0.0126953125,0,0,0.0126953125,0,0)" xlink:href="#aB"/><use transform="matrix(0.0126953125,0,0,0.0126953125,8.251953125,0)" xlink:href="#aC"/><use transform="matrix(0.0126953125,0,0,0.0126953125,23.841796875,0)" xlink:href="#aD"/></g><path fill="#82755b" d="M628 24c-324 0-524-230-524-574 0-343 198-582 503-582 237 0 487 146 487 559v75H286c9 234 145 362 343 362 132 0 231-58 273-172l174 48C1024-91 857 24 628 24zM287-650h624c-17-190-120-322-304-322-192 0-309 151-320 322" id="aE"/><path fill="#82755b" d="M338-670V0H158v-1118h173l1 207c72-158 192-221 342-221 226 0 378 139 378 422V0H872v-695c0-172-96-275-252-275-161 0-282 109-282 300" id="aF"/><g id="w"><use transform="matrix(0.0126953125,0,0,0.0126953125,0,0)" xlink:href="#aE"/><use transform="matrix(0.0126953125,0,0,0.0126953125,15.158203125,0)" xlink:href="#aF"/></g><path fill="#82755b" d="M613 24c-304 0-509-231-509-576 0-350 205-580 509-580 216 0 392 114 453 309l-173 49c-33-115-133-197-280-197-223 0-326 196-326 419 0 220 103 415 326 415 150 0 252-85 285-206l172 49C1010-95 832 24 613 24" id="aG"/><path fill="#82755b" d="M158 0v-1118h174v172h12c41-113 157-188 290-188 26 0 70 2 91 3v181c-11-2-60-10-108-10-161 0-279 109-279 260V0H158" id="aH"/><g id="x"><use transform="matrix(0.0126953125,0,0,0.0126953125,0,0)" xlink:href="#aG"/><use transform="matrix(0.0126953125,0,0,0.0126953125,14.853515625,0)" xlink:href="#aD"/><use transform="matrix(0.0126953125,0,0,0.0126953125,21.150390625,0)" xlink:href="#aH"/></g><path fill="#82755b" d="M538 24C308 24 148-78 108-271l171-41c32 123 123 178 257 178 156 0 256-77 256-169 0-77-54-128-164-154l-186-44c-203-48-300-148-300-305 0-192 176-326 414-326 230 0 351 112 402 269l-163 42c-31-80-94-158-238-158-133 0-233 69-233 162 0 83 57 129 188 160l169 40c203 48 298 149 298 302 0 196-179 339-441 339" id="aI"/><path fill="#82755b" d="M471 26C259 26 90-98 90-318c0-256 228-303 435-329 202-27 287-16 287-108 0-139-79-219-234-219-161 0-248 86-283 164l-173-57c86-203 278-265 451-265 150 0 419 46 419 395V0H815v-152h-12C765-73 660 26 471 26zm31-159c199 0 310-134 310-271v-155c-30 35-226 55-295 64-131 17-246 59-246 186 0 116 97 176 231 176" id="aJ"/><g id="y"><use transform="matrix(0.0126953125,0,0,0.0126953125,0,0)" xlink:href="#aI"/><use transform="matrix(0.0126953125,0,0,0.0126953125,13.7236328125,0)" xlink:href="#aB"/><use transform="matrix(0.0126953125,0,0,0.0126953125,22.3564453125,0)" xlink:href="#aJ"/><use transform="matrix(0.0126953125,0,0,0.0126953125,36.9560546875,0)" xlink:href="#aB"/><use transform="matrix(0.0126953125,0,0,0.0126953125,45.2080078125,0)" xlink:href="#aE"/></g><g id="z"><use transform="matrix(0.0126953125,0,0,0.0126953125,0,0)" xlink:href="#az"/><use transform="matrix(0.0126953125,0,0,0.0126953125,9.4833984375,0)" xlink:href="#W"/><use transform="matrix(0.0126953125,0,0,0.0126953125,17.9892578125,0)" xlink:href="#N"/><use transform="matrix(0.0126953125,0,0,0.0126953125,24.2861328125,0)" xlink:href="#S"/><use transform="matrix(0.0126953125,0,0,0.0126953125,47.0615234375,0)" xlink:href="#Y"/><use transform="matrix(0.0126953125,0,0,0.0126953125,62.2197265625,0)" xlink:href="#U"/><use transform="matrix(0.0126953125,0,0,0.0126953125,77.8095703125,0)" xlink:href="#V"/><use transform="matrix(0.0126953125,0,0,0.0126953125,93.18359375,0)" xlink:href="#W"/><use transform="matrix(0.0126953125,0,0,0.0126953125,101.689453125,0)" xlink:href="#aA"/></g><path fill="#d916a8" d="M646 20c-332 0-524-278-524-764 0-483 194-766 524-766s524 283 524 766c0 485-191 764-524 764zm0-166c218 0 341-220 341-598 0-380-123-601-341-601s-341 222-341 601c0 378 123 598 341 598" id="aK"/><use transform="matrix(0.0126953125,0,0,0.0126953125,0,0)" xlink:href="#aK" id="A"/><path fill="#d916a8" d="M653-1490V0H466v-1314h-10L96-1047v-204l324-239h233" id="aL"/><use transform="matrix(0.0126953125,0,0,0.0126953125,0,0)" xlink:href="#aL" id="B"/><path d="M646 20c-332 0-524-278-524-764 0-483 194-766 524-766s524 283 524 766c0 485-191 764-524 764zm0-166c218 0 341-220 341-598 0-380-123-601-341-601s-341 222-341 601c0 378 123 598 341 598" id="aM"/><path d="M653-1490V0H466v-1314h-10L96-1047v-204l324-239h233" id="aN"/><g id="C"><use transform="matrix(0.0126953125,0,0,0.0126953125,0,0)" xlink:href="#aM"/><use transform="matrix(0.0126953125,0,0,0.0126953125,16.40234375,0)" xlink:href="#T"/><use transform="matrix(0.0126953125,0,0,0.0126953125,30.595703125,0)" xlink:href="#aN"/></g><path fill="#bc1c7f" d="M52 0l541-1490h220L1361 0h-200l-149-416H398L254 0H52zm404-582h497c-103-290-145-390-251-756-108 377-145 460-246 756" id="aO"/><path fill="#bc1c7f" d="M598-1118v154H368v674c0 100 37 144 132 144 23 0 62-6 92-12L629-6c-37 13-88 20-134 20-193 0-307-107-307-290v-688H20v-154h168v-266h180v266h230" id="aP"/><path fill="#bc1c7f" d="M158 0v-1118h175l1 205c55-151 181-225 313-225 147 0 245 90 285 228 53-141 190-228 352-228 194 0 352 125 352 384V0h-181v-749c0-161-105-225-225-225-151 0-243 103-243 244V0H807v-767c0-124-93-207-219-207-131 0-250 92-250 270V0H158" id="aQ"/><path fill="#bc1c7f" d="M158 418v-1536h174v179h20c37-59 106-193 324-193 279 0 474 222 474 576 0 356-194 580-473 580-213 0-288-135-325-197h-14v591H158zm492-555c209 0 317-186 317-421 0-232-105-413-317-413-206 0-314 166-314 413 0 249 111 421 314 421" id="aR"/><g id="D"><use transform="matrix(0.0126953125,0,0,0.0126953125,0,0)" xlink:href="#aO"/><use transform="matrix(0.0126953125,0,0,0.0126953125,17.4306640625,0)" xlink:href="#aP"/><use transform="matrix(0.0126953125,0,0,0.0126953125,25.3017578125,0)" xlink:href="#aP"/><use transform="matrix(0.0126953125,0,0,0.0126953125,33.5537109375,0)" xlink:href="#ar"/><use transform="matrix(0.0126953125,0,0,0.0126953125,48.7119140625,0)" xlink:href="#aQ"/><use transform="matrix(0.0126953125,0,0,0.0126953125,71.4873046875,0)" xlink:href="#aR"/><use transform="matrix(0.0126953125,0,0,0.0126953125,87.4072265625,0)" xlink:href="#aP"/><use transform="matrix(0.0126953125,0,0,0.0126953125,95.6591796875,0)" xlink:href="#aq"/></g><path d="M180 0v-1490h510c348 0 508 194 508 460 0 198-88 351-276 417L1256 0h-220L726-579c-117 2-238 0-356 1V0H180zm190-747h312c235 0 327-108 327-283 0-177-92-293-329-293H370v576" id="aS"/><g id="E"><use transform="matrix(0.015190972222222222,0,0,0.015190972222222222,0,0)" xlink:href="#Z"/><use transform="matrix(0.015190972222222222,0,0,0.015190972222222222,23.7890625,0)" xlink:href="#aS"/></g></defs></g></svg>