<svg xmlns="http://www.w3.org/2000/svg" xmlns:xlink="http://www.w3.org/1999/xlink" xmlns:lucid="lucid" width="2132.15" height="1393.84"><g transform="translate(-11222.098533609931 4169.955024378728)" lucid:page-tab-id="0_0"><path d="M2000-7000h11500v5000H2000z" fill="#f2f3f5"/><path d="M11442.9-4121.4a6 6 0 0 1 6-6h1687.98a6 6 0 0 1 6 6v1338.28a6 6 0 0 1-6 6H11448.9a6 6 0 0 1-6-6z" stroke="#000" stroke-width="2" fill="#fff7a1"/><path d="M12134-3412.37a6 6 0 0 1 6-6h460a6 6 0 0 1 6 6v256a6 6 0 0 1-6 6h-460a6 6 0 0 1-6-6z" stroke="#000" stroke-width="2" fill="#fff"/><use xlink:href="#a" transform="matrix(1,0,0,1,12138.991062682753,-3413.3714406434146) translate(205.00634765625 119.669921875)"/><use xlink:href="#b" transform="matrix(1,0,0,1,12138.991062682753,-3413.3714406434146) translate(178.38427734375 157.420703125)"/><path d="M12134.6-3395.87a6 6 0 0 1 6-6h91.04a6 6 0 0 1 6 6v29.46a6 6 0 0 1-6 6h-91.04a6 6 0 0 1-6-6z" fill="none"/><use xlink:href="#c" transform="matrix(1,0,0,1,12139.602151184783,-3396.8739035162916) translate(0 25.4580078125)"/><path d="M12134.67-3334.3a6 6 0 0 1 6-6h70.02a6 6 0 0 1 6 6v29.46a6 6 0 0 1-6 6h-70.03a6 6 0 0 1-6-6z" fill="none"/><use xlink:href="#d" transform="matrix(1,0,0,1,12139.670437682753,-3335.3059328309146) translate(0 25.4580078125)"/><path d="M12134.67-3266.3a6 6 0 0 1 6-6h69.28a6 6 0 0 1 6 6v29.46a6 6 0 0 1-6 6h-69.28a6 6 0 0 1-6-6z" fill="none"/><use xlink:href="#e" transform="matrix(1,0,0,1,12139.670437682753,-3267.3059328309146) translate(0 25.4580078125)"/><path d="M12134.67-3204.3a6 6 0 0 1 6-6h67.94a6 6 0 0 1 6 6v29.46a6 6 0 0 1-6 6h-67.93a6 6 0 0 1-6-6z" fill="none"/><use xlink:href="#f" transform="matrix(1,0,0,1,12139.670437682753,-3205.3059328309146) translate(0 25.4580078125)"/><path d="M12439.4-3343.24a6 6 0 0 1 6-6h154.74a6 6 0 0 1 6 6v29.47a6 6 0 0 1-6 6h-154.74a6 6 0 0 1-6-6z" fill="none"/><use xlink:href="#g" transform="matrix(1,0,0,1,12444.403771016088,-3344.239266164248) translate(0 25.4580078125)"/><path d="M12440.07-3254.57a6 6 0 0 1 6-6h153.4a6 6 0 0 1 6 6v29.47a6 6 0 0 1-6 6h-153.4a6 6 0 0 1-6-6z" fill="none"/><use xlink:href="#h" transform="matrix(1,0,0,1,12445.070437682753,-3255.572599497581) translate(0 25.4580078125)"/><path d="M12209.7-3103.67a6 6 0 0 1 6-6h326a6 6 0 0 1 6 6v246a6 6 0 0 1-6 6h-326a6 6 0 0 1-6-6z" stroke="#000" stroke-width="2" fill="#fff"/><use xlink:href="#i" transform="matrix(1,0,0,1,12214.700002008196,-3104.67115218553) translate(120.505859375 114.796875)"/><use xlink:href="#j" transform="matrix(1,0,0,1,12214.700002008196,-3104.67115218553) translate(111.38427734375 152.54765625)"/><path d="M12210.32-3072.7a6 6 0 0 1 6-6h91.04a6 6 0 0 1 6 6v29.48a6 6 0 0 1-6 6h-91.04a6 6 0 0 1-6-6z" fill="none"/><use xlink:href="#c" transform="matrix(1,0,0,1,12215.318843714263,-3073.6860762666847) translate(0 25.4580078125)"/><path d="M12210.32-3020.5a6 6 0 0 1 6-6h70.02a6 6 0 0 1 6 6v29.47a6 6 0 0 1-6 6h-70.02a6 6 0 0 1-6-6z" fill="none"/><use xlink:href="#d" transform="matrix(1,0,0,1,12215.318843714263,-3021.4965691132697) translate(0 25.4580078125)"/><path d="M12210.32-2965.88a6 6 0 0 1 6-6h23.28a6 6 0 0 1 6 6v29.47a6 6 0 0 1-6 6h-23.28a6 6 0 0 1-6-6z" fill="none"/><use xlink:href="#k" transform="matrix(1,0,0,1,12215.318843714263,-2966.879643022488) translate(0 25.4580078125)"/><path d="M12451.85-2991.37a6 6 0 0 1 6-6h83.9a6 6 0 0 1 6 6v29.47a6 6 0 0 1-6 6h-83.9a6 6 0 0 1-6-6z" fill="none"/><use xlink:href="#l" transform="matrix(1,0,0,1,12456.84702798239,-2992.367541864853) translate(0 25.4580078125)"/><path d="M12142.66-4072.1a6 6 0 0 1 6-6h439.54a6 6 0 0 1 6 6v610.37a6 6 0 0 1-6 6h-439.54a6 6 0 0 1-6-6z" stroke="#000" stroke-width="2" fill="#fff"/><use xlink:href="#m" transform="matrix(1,0,0,1,12147.663718099822,-4073.1065289944336) translate(191.1279296875 296.966796875)"/><use xlink:href="#j" transform="matrix(1,0,0,1,12147.663718099822,-4073.1065289944336) translate(168.38427734375 334.717578125)"/><path d="M12142.8-3859.6a6 6 0 0 1 6-6h91.05a6 6 0 0 1 6 6v29.47a6 6 0 0 1-6 6h-91.04a6 6 0 0 1-6-6z" fill="none"/><use xlink:href="#c" transform="matrix(1,0,0,1,12147.808270725189,-3860.596952153954) translate(0 25.4580078125)"/><path d="M12143.48-3763.1a6 6 0 0 1 6-6h70.02a6 6 0 0 1 6 6v29.46a6 6 0 0 1-6 6h-70.02a6 6 0 0 1-6-6z" fill="none"/><use xlink:href="#d" transform="matrix(1,0,0,1,12148.481337988673,-3764.10355210475) translate(0 25.4580078125)"/><path d="M12445.56-4050.62a6 6 0 0 1 6-6H12587a6 6 0 0 1 6 6v29.47a6 6 0 0 1-6 6h-135.44a6 6 0 0 1-6-6z" fill="none"/><use xlink:href="#n" transform="matrix(1,0,0,1,12450.562696497724,-4051.623387294952) translate(0 25.4580078125)"/><path d="M12471.93-3996.65a6 6 0 0 1 6-6h110.1a6 6 0 0 1 6 6v29.47a6 6 0 0 1-6 6h-110.1a6 6 0 0 1-6-6z" fill="none"/><use xlink:href="#o" transform="matrix(1,0,0,1,12476.932777451471,-3997.6520733880093) translate(0 25.4580078125)"/><path d="M12459.34-3944.48a6 6 0 0 1 6-6h122.75a6 6 0 0 1 6 6v29.47a6 6 0 0 1-6 6h-122.76a6 6 0 0 1-6-6z" fill="none"/><use xlink:href="#p" transform="matrix(1,0,0,1,12464.339470873185,-3945.4798032779645) translate(0 25.4580078125)"/><path d="M12452.14-3894.1a6 6 0 0 1 6-6h128.57a6 6 0 0 1 6 6v29.46a6 6 0 0 1-6 6h-128.56a6 6 0 0 1-6-6z" fill="none"/><use xlink:href="#q" transform="matrix(1,0,0,1,12457.143295685592,-3895.1065769648185) translate(0 25.4580078125)"/><path d="M12486.33-3845.53a6 6 0 0 1 6-6h94.54a6 6 0 0 1 6 6v29.47a6 6 0 0 1-6 6h-94.55a6 6 0 0 1-6-6z" fill="none"/><use xlink:href="#r" transform="matrix(1,0,0,1,12491.325127826656,-3846.5323944485704) translate(0 25.4580078125)"/><path d="M12493.52-3798.76a6 6 0 0 1 6-6h88.14a6 6 0 0 1 6 6v29.47a6 6 0 0 1-6 6h-88.14a6 6 0 0 1-6-6z" fill="none"/><use xlink:href="#s" transform="matrix(1,0,0,1,12498.521303014248,-3799.75725572922) translate(0 25.4580078125)"/><path d="M12473.73-3753.78a6 6 0 0 1 6-6h107.95a6 6 0 0 1 6 6v29.47a6 6 0 0 1-6 6h-107.95a6 6 0 0 1-6-6z" fill="none"/><use xlink:href="#t" transform="matrix(1,0,0,1,12478.73182124837,-3754.7811608067677) translate(0 25.4580078125)"/><path d="M12473.73-3703.4a6 6 0 0 1 6-6h107.9a6 6 0 0 1 6 6v29.46a6 6 0 0 1-6 6h-107.9a6 6 0 0 1-6-6z" fill="none"/><use xlink:href="#u" transform="matrix(1,0,0,1,12478.731821248371,-3704.407934493622) translate(0 25.4580078125)"/><path d="M12529.5-3660.95a6 6 0 0 1 6-6h52.88a6 6 0 0 1 6 6v29.47a6 6 0 0 1-6 6h-52.88a6 6 0 0 1-6-6z" fill="none"/><use xlink:href="#v" transform="matrix(1,0,0,1,12534.502178952209,-3661.9505008868273) translate(0 25.4580078125)"/><path d="M12493.52-3619.57a6 6 0 0 1 6-6h88.68a6 6 0 0 1 6 6v29.47a6 6 0 0 1-6 6h-88.68a6 6 0 0 1-6-6z" fill="none"/><use xlink:href="#w" transform="matrix(1,0,0,1,12498.521303014248,-3620.5724935581707) translate(0 25.4580078125)"/><path d="M12495.32-3569.2a6 6 0 0 1 6-6h86.36a6 6 0 0 1 6 6v29.47a6 6 0 0 1-6 6h-86.36a6 6 0 0 1-6-6z" fill="none"/><use xlink:href="#x" transform="matrix(1,0,0,1,12500.320346811146,-3570.1992672450247) translate(0 25.4580078125)"/><path d="M12497.12-3517.03a6 6 0 0 1 6-6h85.6a6 6 0 0 1 6 6v29.47a6 6 0 0 1-6 6h-85.6a6 6 0 0 1-6-6z" fill="none"/><use xlink:href="#y" transform="matrix(1,0,0,1,12502.119390608044,-3518.0269971349803) translate(0 25.4580078125)"/><path d="M11386.3-3835.45l755-9.4" stroke="#000" stroke-width="3" fill="none"/><path d="M11386.35-3833.97h-1.56v-2.94l1.52-.02zM12142.8-3843.4l-1.5.03-.05-2.95 1.56-.02z" stroke="#000" stroke-width=".05"/><path d="M12037.33-3842.76v67.3a6.34 6.34 0 0 0 6.34 6.33 6.34 6.34 0 0 1 6.34 6.34v26.66a6.34 6.34 0 0 1-6.33 6.34 6.34 6.34 0 0 0-6.34 6.34v318.32a24 24 0 0 0 24 24h71.77M12038.15-3843.54h-1.54" stroke="#000" stroke-width="3" fill="none"/><path d="M12134.6-3379.66h-1.54v-2.95h1.54z" stroke="#000" stroke-width=".05"/><path d="M11385.73-3744.82l756.25-3.54" stroke="#000" stroke-width="3" fill="none"/><path d="M11385.77-3743.34h-1.54v-2.94h1.53zM12143.48-3746.9h-1.53v-2.94h1.53z" stroke="#000" stroke-width=".05"/><path d="M11959.7-3746v402.43a24 24 0 0 0 24 24h149.47M11959.7-3745.97v-1.54" stroke="#000" stroke-width="3" fill="none"/><path d="M12134.67-3318.1h-1.54v-2.95h1.54z" stroke="#000" stroke-width=".05"/><path d="M11389.02-3249.4l744.15-2.17" stroke="#000" stroke-width="3" fill="none"/><path d="M11389.06-3247.94h-1.54v-2.94h1.53zM12134.67-3250.1h-1.53v-2.94h1.53z" stroke="#000" stroke-width=".05"/><path d="M11222.1-3850.16a6 6 0 0 1 6-6h150.7a6 6 0 0 1 6 6v29.46a6 6 0 0 1-6 6h-150.7a6 6 0 0 1-6-6z" fill="none"/><use xlink:href="#z" transform="matrix(1,0,0,1,11227.098533609931,-3851.164256143711) translate(0 25.4580078125)"/><path d="M11252.77-3759.55a6 6 0 0 1 6-6h119.46a6 6 0 0 1 6 6v29.47a6 6 0 0 1-6 6h-119.46a6 6 0 0 1-6-6z" fill="none"/><use xlink:href="#A" transform="matrix(1,0,0,1,11257.774083797522,-3760.5446460801027) translate(0 25.4580078125)"/><path d="M11224.16-3264.14a6 6 0 0 1 6-6h151.36a6 6 0 0 1 6 6v29.47a6 6 0 0 1-6 6h-151.36a6 6 0 0 1-6-6z" fill="none"/><use xlink:href="#B" transform="matrix(1,0,0,1,11229.161852943069,-3265.142580122199) translate(0 25.4580078125)"/><path d="M11992.82-3249.66v36.1a24 24 0 0 0 24 24h116.35M11992.82-3249.62v-1.54" stroke="#000" stroke-width="3" fill="none"/><path d="M12134.67-3188.1h-1.54v-2.95h1.54z" stroke="#000" stroke-width=".05"/><path d="M11710.48-3248.84v273.7a24 24 0 0 0 24 24h474.34M11710.48-3248.8v-1.54" stroke="#000" stroke-width="3" fill="none"/><path d="M12210.32-2949.67h-1.54v-2.95h1.54z" stroke="#000" stroke-width=".05"/><path d="M11877.03-3841.54a.3.3 0 0 1 .3.3v57.74a7.82 7.82 0 0 0 7.82 7.82 7.82 7.82 0 0 1 7.83 7.82v30.24a7.82 7.82 0 0 1-7.83 7.82 7.82 7.82 0 0 0-7.82 7.82v429.45a10.63 10.63 0 0 0 10.63 10.63 10.63 10.63 0 0 1 10.63 10.63v29.64a10.63 10.63 0 0 1-10.64 10.63 10.63 10.63 0 0 0-10.63 10.63v138.42a24 24 0 0 0 24 24h307.5M11877.07-3841.54h-1.54" stroke="#000" stroke-width="3" fill="none"/><path d="M12210.32-3056.48h-1.54v-2.95h1.54z" stroke="#000" stroke-width=".05"/><path d="M11800.04-3746.77a5.37 5.37 0 0 0-5.37 5.37v450.03a9.47 9.47 0 0 0 9.46 9.47 9.47 9.47 0 0 1 9.47 9.47v32.6a8.82 8.82 0 0 1-8.82 8.83 8.82 8.82 0 0 0-8.82 8.82v192.42a24 24 0 0 0 24 24h388.86M11800-3746.77h1.54" stroke="#000" stroke-width="3" fill="none"/><path d="M12210.32-3004.3h-1.54v-2.94h1.54z" stroke="#000" stroke-width=".05"/><path d="M12042.36-3284.96a6 6 0 0 1 6-6h78.27a6 6 0 0 1 6 6v29.47a6 6 0 0 1-6 6h-78.26a6 6 0 0 1-6-6z" fill="none"/><use xlink:href="#C" transform="matrix(1,0,0,1,12047.364589732591,-3285.9568924583914) translate(0 25.4580078125)"/><path d="M12042-3222.7a6 6 0 0 1 6-6h77.28a6 6 0 0 1 6 6v29.46a6 6 0 0 1-6 6H12048a6 6 0 0 1-6-6z" fill="none"/><use xlink:href="#D" transform="matrix(1,0,0,1,12047.004780973211,-3223.7099770857167) translate(0 25.4580078125)"/><path d="M12139.57-2984.8a6 6 0 0 1 6-6h57.67a6 6 0 0 1 6 6v29.45a6 6 0 0 1-6 6h-57.67a6 6 0 0 1-6-6z" fill="none"/><use xlink:href="#E" transform="matrix(1,0,0,1,12144.57418247395,-2985.815159426927) translate(0 25.4580078125)"/><path d="M12608.5-3326.94l585.8-3.48" stroke="#000" stroke-width="3" fill="none"/><path d="M12608.54-3325.47h-1.55v-2.94l1.52-.02zM13195.8-3328.95h-1.53l-.02-2.94h1.55z" stroke="#000" stroke-width=".05"/><path d="M12608.5-3237.6h117.3a24 24 0 0 0 24-24v-42.45a24 24 0 0 1 24-24h19.28" stroke="#000" stroke-width="3" fill="none"/><path d="M12608.53-3236.13h-1.54v-2.94h1.53z" stroke="#000" stroke-width=".05"/><path d="M12793.04-3328.05h1.53" stroke="#000" stroke-width="3" fill="none"/><path d="M13195.8-3345.16a6 6 0 0 1 6-6h139.7a6 6 0 0 1 6 6v29.47a6 6 0 0 1-6 6h-139.7a6 6 0 0 1-6-6z" fill="none"/><use xlink:href="#F" transform="matrix(1,0,0,1,13200.799117918388,-3346.1619111248665) translate(0 25.4580078125)"/><path d="M12596.7-3980.26l601.7.53" stroke="#000" stroke-width="3" fill="none"/><path d="M12596.74-3981.74v2.95h-1.54v-2.94zM13199.9-3981.2v2.94h-1.55v-2.95z" stroke="#000" stroke-width=".05"/><path d="M12595.6-3929.74l604.12.67" stroke="#000" stroke-width="3" fill="none"/><path d="M12595.63-3931.22v2.95h-1.54v-2.95zM13201.22-3930.54v2.95h-1.54v-2.94z" stroke="#000" stroke-width=".05"/><path d="M12594.37-3830.8l606.68.4" stroke="#000" stroke-width="3" fill="none"/><path d="M12594.4-3832.27v2.95h-1.53v-2.95zM13202.56-3831.88v2.95h-1.54v-2.95z" stroke="#000" stroke-width=".05"/><path d="M12596.7-3784.26l600.35 1.86" stroke="#000" stroke-width="3" fill="none"/><path d="M12596.75-3785.74v2.95h-1.55v-2.94zM13198.56-3783.88v2.95h-1.55l.02-2.95z" stroke="#000" stroke-width=".05"/><path d="M12594.5-4035.9l603.9-.23" stroke="#000" stroke-width="3" fill="none"/><path d="M12594.55-4034.4h-1.54v-2.96h1.55zM13199.9-4034.66h-1.55v-2.95h1.54z" stroke="#000" stroke-width=".05"/><path d="M12549.25-2976.64l647.94-4.95" stroke="#000" stroke-width="3" fill="none"/><path d="M12549.3-2975.17h-1.55v-2.94l1.53-.02zM13198.7-2980.13l-1.54.02-.02-2.96h1.55z" stroke="#000" stroke-width=".05"/><path d="M12594.2-3879.37l606.85.97" stroke="#000" stroke-width="3" fill="none"/><path d="M12594.25-3880.84v2.95h-1.54v-2.95zM13202.56-3879.88v2.95h-1.55l.02-2.95z" stroke="#000" stroke-width=".05"/><path d="M12595.18-3739.05l597.88.65" stroke="#000" stroke-width="3" fill="none"/><path d="M12595.22-3740.52v2.95h-1.54v-2.95zM13194.56-3739.88v2.95h-1.55l.02-2.95z" stroke="#000" stroke-width=".05"/><path d="M12595.13-3688.67l599.26.93" stroke="#000" stroke-width="3" fill="none"/><path d="M12595.17-3690.15v2.95h-1.54v-2.95zM13195.9-3689.2v2.94h-1.55v-2.95z" stroke="#000" stroke-width=".05"/><path d="M12596.7-3646.93l599.02-.8" stroke="#000" stroke-width="3" fill="none"/><path d="M12596.74-3645.46h-1.54v-2.95h1.54zM13197.22-3646.26h-1.53l-.02-2.95h1.54z" stroke="#000" stroke-width=".05"/><path d="M12596.7-3604.26l599.02.53" stroke="#000" stroke-width="3" fill="none"/><path d="M12596.74-3605.74v2.95h-1.54v-2.94zM13197.22-3605.2v2.94h-1.54v-2.95z" stroke="#000" stroke-width=".05"/><path d="M12595.18-3554.46l603.2 1.4" stroke="#000" stroke-width="3" fill="none"/><path d="M12595.22-3555.94v2.95h-1.54v-2.94zM13199.9-3554.54v2.95h-1.55v-2.95z" stroke="#000" stroke-width=".05"/><path d="M12596.2-3502.3l603.52 1.23" stroke="#000" stroke-width="3" fill="none"/><path d="M12596.26-3503.76v2.95l-1.55-.02v-2.95zM13201.22-3502.54v2.95h-1.54v-2.95z" stroke="#000" stroke-width=".05"/><path d="M13198.7-2996.33a6 6 0 0 1 6-6h85a6 6 0 0 1 6 6v29.46a6 6 0 0 1-6 6h-85a6 6 0 0 1-6-6z" fill="none"/><use xlink:href="#G" transform="matrix(1,0,0,1,13203.68848958333,-2997.3344921875005) translate(0 25.4580078125)"/><path d="M13199.9-4050.87a6 6 0 0 1 6-6h139.68a6 6 0 0 1 6 6v29.47a6 6 0 0 1-6 6h-139.7a6 6 0 0 1-6-6z" fill="none"/><use xlink:href="#H" transform="matrix(1,0,0,1,13204.888489583333,-4051.867825520834) translate(0 25.4580078125)"/><path d="M13199.9-3994.47a6 6 0 0 1 6-6h110.1a6 6 0 0 1 6 6v29.47a6 6 0 0 1-6 6h-110.1a6 6 0 0 1-6-6z" fill="none"/><use xlink:href="#I" transform="matrix(1,0,0,1,13204.888489583333,-3995.4678255208332) translate(0 25.4580078125)"/><path d="M13201.22-3943.8a6 6 0 0 1 6-6h122.76a6 6 0 0 1 6 6v29.47a6 6 0 0 1-6 6h-122.76a6 6 0 0 1-6-6z" fill="none"/><use xlink:href="#J" transform="matrix(1,0,0,1,13206.221822916668,-3944.8011588541667) translate(0 25.4580078125)"/><path d="M13202.56-3893.13a6 6 0 0 1 6-6h128.56a6 6 0 0 1 6 6v29.46a6 6 0 0 1-6 6h-128.57a6 6 0 0 1-6-6z" fill="none"/><use xlink:href="#K" transform="matrix(1,0,0,1,13207.55515625,-3894.1344921874997) translate(0 25.4580078125)"/><path d="M13202.56-3845.13a6 6 0 0 1 6-6h139.7a6 6 0 0 1 6 6v29.46a6 6 0 0 1-6 6h-139.7a6 6 0 0 1-6-6z" fill="none"/><use xlink:href="#L" transform="matrix(1,0,0,1,13207.55515625,-3846.1344921874997) translate(0 25.4580078125)"/><path d="M13198.56-3797.13a6 6 0 0 1 6-6h88.13a6 6 0 0 1 6 6v29.46a6 6 0 0 1-6 6h-88.15a6 6 0 0 1-6-6z" fill="none"/><use xlink:href="#M" transform="matrix(1,0,0,1,13203.555156249999,-3798.1344921874997) translate(0 25.4580078125)"/><path d="M13194.56-3753.13a6 6 0 0 1 6-6h107.95a6 6 0 0 1 6 6v29.46a6 6 0 0 1-6 6h-107.94a6 6 0 0 1-6-6z" fill="none"/><use xlink:href="#N" transform="matrix(1,0,0,1,13199.555156249999,-3754.1344921874997) translate(0 25.4580078125)"/><path d="M13195.9-3702.47a6 6 0 0 1 6-6h107.9a6 6 0 0 1 6 6v29.47a6 6 0 0 1-6 6h-107.9a6 6 0 0 1-6-6z" fill="none"/><use xlink:href="#O" transform="matrix(1,0,0,1,13200.888489583333,-3703.4678255208332) translate(0 25.4580078125)"/><path d="M13197.22-3662.47a6 6 0 0 1 6-6h52.88a6 6 0 0 1 6 6v29.47a6 6 0 0 1-6 6h-52.88a6 6 0 0 1-6-6z" fill="none"/><use xlink:href="#P" transform="matrix(1,0,0,1,13202.221822916665,-3663.4678255208332) translate(0 25.4580078125)"/><path d="M11450.82-4163.95a6 6 0 0 1 6-6h144.53a6 6 0 0 1 6 6v29.46a6 6 0 0 1-6 6h-144.53a6 6 0 0 1-6-6z" fill="none"/><use xlink:href="#Q" transform="matrix(1,0,0,1,11455.823204856832,-4164.955024378728) translate(0 25.4580078125)"/><use xlink:href="#R" transform="matrix(1,0,0,1,11455.823204856832,-4164.955024378728) translate(97.0048828125 25.4580078125)"/><path d="M13197.22-3618.47a6 6 0 0 1 6-6h88.68a6 6 0 0 1 6 6v29.47a6 6 0 0 1-6 6h-88.68a6 6 0 0 1-6-6z" fill="none"/><use xlink:href="#S" transform="matrix(1,0,0,1,13202.221822916666,-3619.4678255208332) translate(0 25.4580078125)"/><path d="M13199.9-3567.8a6 6 0 0 1 6-6h86.35a6 6 0 0 1 6 6v29.47a6 6 0 0 1-6 6h-86.36a6 6 0 0 1-6-6z" fill="none"/><use xlink:href="#T" transform="matrix(1,0,0,1,13204.888489583333,-3568.8011588541667) translate(0 25.4580078125)"/><path d="M13201.22-3515.8a6 6 0 0 1 6-6h85.6a6 6 0 0 1 6 6v29.47a6 6 0 0 1-6 6h-85.6a6 6 0 0 1-6-6z" fill="none"/><use xlink:href="#U" transform="matrix(1,0,0,1,13206.221822916666,-3516.8011588541663) translate(0 25.4580078125)"/><path d="M12134-3412.37a6 6 0 0 1 6-6h460a6 6 0 0 1 6 6v256a6 6 0 0 1-6 6h-460a6 6 0 0 1-6-6z" stroke="#000" stroke-width="2" fill="#fff"/><use xlink:href="#a" transform="matrix(1,0,0,1,12138.991062682753,-3413.3714406434146) translate(205.00634765625 119.669921875)"/><use xlink:href="#b" transform="matrix(1,0,0,1,12138.991062682753,-3413.3714406434146) translate(178.38427734375 157.420703125)"/><path d="M12134.6-3395.87a6 6 0 0 1 6-6h91.04a6 6 0 0 1 6 6v29.46a6 6 0 0 1-6 6h-91.04a6 6 0 0 1-6-6z" fill="none"/><use xlink:href="#c" transform="matrix(1,0,0,1,12139.602151184783,-3396.8739035162916) translate(0 25.4580078125)"/><path d="M12134.67-3334.3a6 6 0 0 1 6-6h70.02a6 6 0 0 1 6 6v29.46a6 6 0 0 1-6 6h-70.03a6 6 0 0 1-6-6z" fill="none"/><use xlink:href="#d" transform="matrix(1,0,0,1,12139.670437682753,-3335.3059328309146) translate(0 25.4580078125)"/><path d="M12134.67-3266.3a6 6 0 0 1 6-6h69.28a6 6 0 0 1 6 6v29.46a6 6 0 0 1-6 6h-69.28a6 6 0 0 1-6-6z" fill="none"/><use xlink:href="#e" transform="matrix(1,0,0,1,12139.670437682753,-3267.3059328309146) translate(0 25.4580078125)"/><path d="M12134.67-3204.3a6 6 0 0 1 6-6h67.94a6 6 0 0 1 6 6v29.46a6 6 0 0 1-6 6h-67.93a6 6 0 0 1-6-6z" fill="none"/><use xlink:href="#f" transform="matrix(1,0,0,1,12139.670437682753,-3205.3059328309146) translate(0 25.4580078125)"/><path d="M12439.4-3343.24a6 6 0 0 1 6-6h154.74a6 6 0 0 1 6 6v29.47a6 6 0 0 1-6 6h-154.74a6 6 0 0 1-6-6z" fill="none"/><use xlink:href="#g" transform="matrix(1,0,0,1,12444.403771016088,-3344.239266164248) translate(0 25.4580078125)"/><path d="M12440.07-3254.57a6 6 0 0 1 6-6h153.4a6 6 0 0 1 6 6v29.47a6 6 0 0 1-6 6h-153.4a6 6 0 0 1-6-6z" fill="none"/><use xlink:href="#h" transform="matrix(1,0,0,1,12445.070437682753,-3255.572599497581) translate(0 25.4580078125)"/><path d="M12209.7-3103.67a6 6 0 0 1 6-6h326a6 6 0 0 1 6 6v246a6 6 0 0 1-6 6h-326a6 6 0 0 1-6-6z" stroke="#000" stroke-width="2" fill="#fff"/><use xlink:href="#i" transform="matrix(1,0,0,1,12214.700002008196,-3104.67115218553) translate(120.505859375 114.796875)"/><use xlink:href="#j" transform="matrix(1,0,0,1,12214.700002008196,-3104.67115218553) translate(111.38427734375 152.54765625)"/><path d="M12210.32-3072.7a6 6 0 0 1 6-6h91.04a6 6 0 0 1 6 6v29.48a6 6 0 0 1-6 6h-91.04a6 6 0 0 1-6-6z" fill="none"/><use xlink:href="#c" transform="matrix(1,0,0,1,12215.318843714263,-3073.6860762666847) translate(0 25.4580078125)"/><path d="M12210.32-3020.5a6 6 0 0 1 6-6h70.02a6 6 0 0 1 6 6v29.47a6 6 0 0 1-6 6h-70.02a6 6 0 0 1-6-6z" fill="none"/><use xlink:href="#d" transform="matrix(1,0,0,1,12215.318843714263,-3021.4965691132697) translate(0 25.4580078125)"/><path d="M12210.32-2965.88a6 6 0 0 1 6-6h23.28a6 6 0 0 1 6 6v29.47a6 6 0 0 1-6 6h-23.28a6 6 0 0 1-6-6z" fill="none"/><use xlink:href="#k" transform="matrix(1,0,0,1,12215.318843714263,-2966.879643022488) translate(0 25.4580078125)"/><path d="M12451.85-2991.37a6 6 0 0 1 6-6h83.9a6 6 0 0 1 6 6v29.47a6 6 0 0 1-6 6h-83.9a6 6 0 0 1-6-6z" fill="none"/><use xlink:href="#l" transform="matrix(1,0,0,1,12456.84702798239,-2992.367541864853) translate(0 25.4580078125)"/><path d="M12142.66-4072.1a6 6 0 0 1 6-6h439.54a6 6 0 0 1 6 6v610.37a6 6 0 0 1-6 6h-439.54a6 6 0 0 1-6-6z" stroke="#000" stroke-width="2" fill="#fff"/><use xlink:href="#m" transform="matrix(1,0,0,1,12147.663718099822,-4073.1065289944336) translate(191.1279296875 296.966796875)"/><use xlink:href="#j" transform="matrix(1,0,0,1,12147.663718099822,-4073.1065289944336) translate(168.38427734375 334.717578125)"/><path d="M12142.8-3859.6a6 6 0 0 1 6-6h91.05a6 6 0 0 1 6 6v29.47a6 6 0 0 1-6 6h-91.04a6 6 0 0 1-6-6z" fill="none"/><use xlink:href="#c" transform="matrix(1,0,0,1,12147.808270725189,-3860.596952153954) translate(0 25.4580078125)"/><path d="M12143.48-3763.1a6 6 0 0 1 6-6h70.02a6 6 0 0 1 6 6v29.46a6 6 0 0 1-6 6h-70.02a6 6 0 0 1-6-6z" fill="none"/><use xlink:href="#d" transform="matrix(1,0,0,1,12148.481337988673,-3764.10355210475) translate(0 25.4580078125)"/><path d="M12445.56-4050.62a6 6 0 0 1 6-6H12587a6 6 0 0 1 6 6v29.47a6 6 0 0 1-6 6h-135.44a6 6 0 0 1-6-6z" fill="none"/><use xlink:href="#n" transform="matrix(1,0,0,1,12450.562696497724,-4051.623387294952) translate(0 25.4580078125)"/><path d="M12471.93-3996.65a6 6 0 0 1 6-6h110.1a6 6 0 0 1 6 6v29.47a6 6 0 0 1-6 6h-110.1a6 6 0 0 1-6-6z" fill="none"/><use xlink:href="#o" transform="matrix(1,0,0,1,12476.932777451471,-3997.6520733880093) translate(0 25.4580078125)"/><path d="M12459.34-3944.48a6 6 0 0 1 6-6h122.75a6 6 0 0 1 6 6v29.47a6 6 0 0 1-6 6h-122.76a6 6 0 0 1-6-6z" fill="none"/><use xlink:href="#p" transform="matrix(1,0,0,1,12464.339470873185,-3945.4798032779645) translate(0 25.4580078125)"/><path d="M12452.14-3894.1a6 6 0 0 1 6-6h128.57a6 6 0 0 1 6 6v29.46a6 6 0 0 1-6 6h-128.56a6 6 0 0 1-6-6z" fill="none"/><use xlink:href="#q" transform="matrix(1,0,0,1,12457.143295685592,-3895.1065769648185) translate(0 25.4580078125)"/><path d="M12486.33-3845.53a6 6 0 0 1 6-6h94.54a6 6 0 0 1 6 6v29.47a6 6 0 0 1-6 6h-94.55a6 6 0 0 1-6-6z" fill="none"/><use xlink:href="#r" transform="matrix(1,0,0,1,12491.325127826656,-3846.5323944485704) translate(0 25.4580078125)"/><path d="M12493.52-3798.76a6 6 0 0 1 6-6h88.14a6 6 0 0 1 6 6v29.47a6 6 0 0 1-6 6h-88.14a6 6 0 0 1-6-6z" fill="none"/><use xlink:href="#s" transform="matrix(1,0,0,1,12498.521303014248,-3799.75725572922) translate(0 25.4580078125)"/><path d="M12473.73-3753.78a6 6 0 0 1 6-6h107.95a6 6 0 0 1 6 6v29.47a6 6 0 0 1-6 6h-107.95a6 6 0 0 1-6-6z" fill="none"/><use xlink:href="#t" transform="matrix(1,0,0,1,12478.73182124837,-3754.7811608067677) translate(0 25.4580078125)"/><path d="M12473.73-3703.4a6 6 0 0 1 6-6h107.9a6 6 0 0 1 6 6v29.46a6 6 0 0 1-6 6h-107.9a6 6 0 0 1-6-6z" fill="none"/><use xlink:href="#u" transform="matrix(1,0,0,1,12478.731821248371,-3704.407934493622) translate(0 25.4580078125)"/><path d="M12529.5-3660.95a6 6 0 0 1 6-6h52.88a6 6 0 0 1 6 6v29.47a6 6 0 0 1-6 6h-52.88a6 6 0 0 1-6-6z" fill="none"/><use xlink:href="#v" transform="matrix(1,0,0,1,12534.502178952209,-3661.9505008868273) translate(0 25.4580078125)"/><path d="M12493.52-3619.57a6 6 0 0 1 6-6h88.68a6 6 0 0 1 6 6v29.47a6 6 0 0 1-6 6h-88.68a6 6 0 0 1-6-6z" fill="none"/><g><use xlink:href="#w" transform="matrix(1,0,0,1,12498.521303014248,-3620.5724935581707) translate(0 25.4580078125)"/></g><path d="M12495.32-3569.2a6 6 0 0 1 6-6h86.36a6 6 0 0 1 6 6v29.47a6 6 0 0 1-6 6h-86.36a6 6 0 0 1-6-6z" fill="none"/><g><use xlink:href="#x" transform="matrix(1,0,0,1,12500.320346811146,-3570.1992672450247) translate(0 25.4580078125)"/></g><path d="M12497.12-3517.03a6 6 0 0 1 6-6h85.6a6 6 0 0 1 6 6v29.47a6 6 0 0 1-6 6h-85.6a6 6 0 0 1-6-6z" fill="none"/><g><use xlink:href="#y" transform="matrix(1,0,0,1,12502.119390608044,-3518.0269971349803) translate(0 25.4580078125)"/></g><defs><path d="M52 0l541-1490h220L1361 0h-200l-149-416H398L254 0H52zm404-582h497c-103-290-145-390-251-756-108 377-145 460-246 756" id="V"/><path d="M180 0v-1490h190v1322h690V0H180" id="W"/><path d="M763 24c-353 0-583-224-583-531v-983h190v968c0 214 149 370 393 370 243 0 391-156 391-370v-968h190v983c0 307-230 531-581 531" id="X"/><g id="a"><use transform="matrix(0.0126953125,0,0,0.0126953125,0,0)" xlink:href="#V"/><use transform="matrix(0.0126953125,0,0,0.0126953125,17.9384765625,0)" xlink:href="#W"/><use transform="matrix(0.0126953125,0,0,0.0126953125,32.6396484375,0)" xlink:href="#X"/></g><path d="M645 0H180v-1490h484c435 0 692 280 692 742 0 466-257 748-711 748zM370-168h263c363 0 539-218 539-580 0-358-176-574-521-574H370v1154" id="Y"/><path d="M628 24c-324 0-524-230-524-574 0-343 198-582 503-582 237 0 487 146 487 559v75H286c9 234 145 362 343 362 132 0 231-58 273-172l174 48C1024-91 857 24 628 24zM287-650h624c-17-190-120-322-304-322-192 0-309 151-320 322" id="Z"/><path d="M613 24c-304 0-509-231-509-576 0-350 205-580 509-580 216 0 392 114 453 309l-173 49c-33-115-133-197-280-197-223 0-326 196-326 419 0 220 103 415 326 415 150 0 252-85 285-206l172 49C1010-95 832 24 613 24" id="aa"/><path d="M613 24c-304 0-509-231-509-576 0-350 205-580 509-580 305 0 511 230 511 580 0 345-206 576-511 576zm0-161c226 0 329-195 329-415 0-222-103-419-329-419-223 0-326 196-326 419 0 220 103 415 326 415" id="ab"/><path d="M577 24c-279 0-473-224-473-580 0-354 195-576 474-576 218 0 287 134 324 193h14v-551h180V0H922v-173h-20C865-111 790 24 577 24zm27-161c203 0 314-172 314-421 0-247-108-413-314-413-212 0-317 181-317 413 0 235 108 421 317 421" id="ac"/><path d="M158 0v-1118h174v172h12c41-113 157-188 290-188 26 0 70 2 91 3v181c-11-2-60-10-108-10-161 0-279 109-279 260V0H158" id="ad"/><g id="b"><use transform="matrix(0.0126953125,0,0,0.0126953125,0,0)" xlink:href="#Y"/><use transform="matrix(0.0126953125,0,0,0.0126953125,18.763671875,0)" xlink:href="#Z"/><use transform="matrix(0.0126953125,0,0,0.0126953125,33.921875,0)" xlink:href="#aa"/><use transform="matrix(0.0126953125,0,0,0.0126953125,48.775390625,0)" xlink:href="#ab"/><use transform="matrix(0.0126953125,0,0,0.0126953125,64.365234375,0)" xlink:href="#ac"/><use transform="matrix(0.0126953125,0,0,0.0126953125,80.28515625,0)" xlink:href="#Z"/><use transform="matrix(0.0126953125,0,0,0.0126953125,95.443359375,0)" xlink:href="#ad"/></g><path fill="#82755b" d="M613 24c-304 0-509-231-509-576 0-350 205-580 509-580 305 0 511 230 511 580 0 345-206 576-511 576zm0-161c226 0 329-195 329-415 0-222-103-419-329-419-223 0-326 196-326 419 0 220 103 415 326 415" id="ae"/><path fill="#82755b" d="M158 418v-1536h174v179h20c37-59 106-193 324-193 279 0 474 222 474 576 0 356-194 580-473 580-213 0-288-135-325-197h-14v591H158zm492-555c209 0 317-186 317-421 0-232-105-413-317-413-206 0-314 166-314 413 0 249 111 421 314 421" id="af"/><path fill="#82755b" d="M613 24c-304 0-509-231-509-576 0-350 205-580 509-580 216 0 392 114 453 309l-173 49c-33-115-133-197-280-197-223 0-326 196-326 419 0 220 103 415 326 415 150 0 252-85 285-206l172 49C1010-95 832 24 613 24" id="ag"/><path fill="#82755b" d="M577 24c-279 0-473-224-473-580 0-354 195-576 474-576 218 0 287 134 324 193h14v-551h180V0H922v-173h-20C865-111 790 24 577 24zm27-161c203 0 314-172 314-421 0-247-108-413-314-413-212 0-317 181-317 413 0 235 108 421 317 421" id="ah"/><path fill="#82755b" d="M628 24c-324 0-524-230-524-574 0-343 198-582 503-582 237 0 487 146 487 559v75H286c9 234 145 362 343 362 132 0 231-58 273-172l174 48C1024-91 857 24 628 24zM287-650h624c-17-190-120-322-304-322-192 0-309 151-320 322" id="ai"/><g id="c"><use transform="matrix(0.0126953125,0,0,0.0126953125,0,0)" xlink:href="#ae"/><use transform="matrix(0.0126953125,0,0,0.0126953125,15.58984375,0)" xlink:href="#af"/><use transform="matrix(0.0126953125,0,0,0.0126953125,31.509765625,0)" xlink:href="#ag"/><use transform="matrix(0.0126953125,0,0,0.0126953125,46.36328125,0)" xlink:href="#ae"/><use transform="matrix(0.0126953125,0,0,0.0126953125,61.953125,0)" xlink:href="#ah"/><use transform="matrix(0.0126953125,0,0,0.0126953125,77.873046875,0)" xlink:href="#ai"/></g><path fill="#82755b" d="M678-1118v154H420V0H240v-964H20v-154h220v-149c0-194 155-293 318-293 85 0 141 18 168 30l-50 154c-19-6-47-17-97-17-111 0-159 58-159 166v109h258" id="aj"/><path fill="#82755b" d="M537 14c-226 0-379-139-379-422v-710h180v695c0 172 97 275 253 275 160 0 281-109 281-300v-670h181V0H879v-209C806-46 684 14 537 14" id="ak"/><path fill="#82755b" d="M338-670V0H158v-1118h173l1 207c72-158 192-221 342-221 226 0 378 139 378 422V0H872v-695c0-172-96-275-252-275-161 0-282 109-282 300" id="al"/><path fill="#82755b" d="M120-303v-155l652-1032h231v1020h202v167h-202V0H821v-303H120zm702-167v-782h-12L323-482v12h499" id="am"/><g id="d"><use transform="matrix(0.0126953125,0,0,0.0126953125,0,0)" xlink:href="#aj"/><use transform="matrix(0.0126953125,0,0,0.0126953125,9.623046875,0)" xlink:href="#ak"/><use transform="matrix(0.0126953125,0,0,0.0126953125,24.9970703125,0)" xlink:href="#al"/><use transform="matrix(0.0126953125,0,0,0.0126953125,40.3583984375,0)" xlink:href="#ag"/><use transform="matrix(0.0126953125,0,0,0.0126953125,55.2119140625,0)" xlink:href="#am"/></g><path fill="#82755b" d="M635 20c-292 0-500-160-510-396h192c11 142 145 229 315 229 187 0 323-105 323-260 0-161-125-274-346-274H488v-165h121c174 0 294-100 294-254 0-148-104-245-266-245-152 0-291 85-297 230H157c8-234 222-395 484-395 278 0 448 188 448 400 0 168-95 291-247 336v12c190 31 301 169 301 357 0 244-216 425-508 425" id="an"/><g id="e"><use transform="matrix(0.0126953125,0,0,0.0126953125,0,0)" xlink:href="#aj"/><use transform="matrix(0.0126953125,0,0,0.0126953125,9.623046875,0)" xlink:href="#ak"/><use transform="matrix(0.0126953125,0,0,0.0126953125,24.9970703125,0)" xlink:href="#al"/><use transform="matrix(0.0126953125,0,0,0.0126953125,40.3583984375,0)" xlink:href="#ag"/><use transform="matrix(0.0126953125,0,0,0.0126953125,55.2119140625,0)" xlink:href="#an"/></g><path fill="#82755b" d="M200 0l662-1311v-12H98v-167h963v177L400 0H200" id="ao"/><g id="f"><use transform="matrix(0.0126953125,0,0,0.0126953125,0,0)" xlink:href="#aj"/><use transform="matrix(0.0126953125,0,0,0.0126953125,9.623046875,0)" xlink:href="#ak"/><use transform="matrix(0.0126953125,0,0,0.0126953125,24.9970703125,0)" xlink:href="#al"/><use transform="matrix(0.0126953125,0,0,0.0126953125,40.3583984375,0)" xlink:href="#ag"/><use transform="matrix(0.0126953125,0,0,0.0126953125,55.2119140625,0)" xlink:href="#ao"/></g><path fill="#82755b" d="M52 0l541-1490h220L1361 0h-200l-149-416H398L254 0H52zm404-582h497c-103-290-145-390-251-756-108 377-145 460-246 756" id="ap"/><path fill="#82755b" d="M180 0v-1490h190v1322h690V0H180" id="aq"/><path fill="#82755b" d="M763 24c-353 0-583-224-583-531v-983h190v968c0 214 149 370 393 370 243 0 391-156 391-370v-968h190v983c0 307-230 531-581 531" id="ar"/><path fill="#82755b" d="M783 20c-382 0-661-292-661-764 0-473 279-766 661-766 302 0 548 182 601 489h-190c-42-204-217-313-411-313-268 0-476 208-476 590 0 381 209 588 476 588 195 0 369-110 411-313h190c-52 303-296 489-601 489" id="as"/><path fill="#82755b" d="M598-1118v154H368v674c0 100 37 144 132 144 23 0 62-6 92-12L629-6c-37 13-88 20-134 20-193 0-307-107-307-290v-688H20v-154h168v-266h180v266h230" id="at"/><path fill="#82755b" d="M158 0v-1118h174v172h12c41-113 157-188 290-188 26 0 70 2 91 3v181c-11-2-60-10-108-10-161 0-279 109-279 260V0H158" id="au"/><path fill="#82755b" d="M338-1490V0H158v-1490h180" id="av"/><g id="g"><use transform="matrix(0.0126953125,0,0,0.0126953125,0,0)" xlink:href="#af"/><use transform="matrix(0.0126953125,0,0,0.0126953125,15.0439453125,0)" xlink:href="#ap"/><use transform="matrix(0.0126953125,0,0,0.0126953125,32.982421875,0)" xlink:href="#aq"/><use transform="matrix(0.0126953125,0,0,0.0126953125,47.68359375,0)" xlink:href="#ar"/><use transform="matrix(0.0126953125,0,0,0.0126953125,67.03125,0)" xlink:href="#as"/><use transform="matrix(0.0126953125,0,0,0.0126953125,86.0234375,0)" xlink:href="#ae"/><use transform="matrix(0.0126953125,0,0,0.0126953125,101.61328125,0)" xlink:href="#al"/><use transform="matrix(0.0126953125,0,0,0.0126953125,116.974609375,0)" xlink:href="#at"/><use transform="matrix(0.0126953125,0,0,0.0126953125,125.48046875,0)" xlink:href="#au"/><use transform="matrix(0.0126953125,0,0,0.0126953125,134.8369140625,0)" xlink:href="#ae"/><use transform="matrix(0.0126953125,0,0,0.0126953125,150.4267578125,0)" xlink:href="#av"/></g><path fill="#82755b" d="M538 24C308 24 148-78 108-271l171-41c32 123 123 178 257 178 156 0 256-77 256-169 0-77-54-128-164-154l-186-44c-203-48-300-148-300-305 0-192 176-326 414-326 230 0 351 112 402 269l-163 42c-31-80-94-158-238-158-133 0-233 69-233 162 0 83 57 129 188 160l169 40c203 48 298 149 298 302 0 196-179 339-441 339" id="aw"/><g id="h"><use transform="matrix(0.0126953125,0,0,0.0126953125,0,0)" xlink:href="#aw"/><use transform="matrix(0.0126953125,0,0,0.0126953125,13.7236328125,0)" xlink:href="#ap"/><use transform="matrix(0.0126953125,0,0,0.0126953125,31.662109375,0)" xlink:href="#aq"/><use transform="matrix(0.0126953125,0,0,0.0126953125,46.36328125,0)" xlink:href="#ar"/><use transform="matrix(0.0126953125,0,0,0.0126953125,65.7109375,0)" xlink:href="#as"/><use transform="matrix(0.0126953125,0,0,0.0126953125,84.703125,0)" xlink:href="#ae"/><use transform="matrix(0.0126953125,0,0,0.0126953125,100.29296875,0)" xlink:href="#al"/><use transform="matrix(0.0126953125,0,0,0.0126953125,115.654296875,0)" xlink:href="#at"/><use transform="matrix(0.0126953125,0,0,0.0126953125,124.16015625,0)" xlink:href="#au"/><use transform="matrix(0.0126953125,0,0,0.0126953125,133.5166015625,0)" xlink:href="#ae"/><use transform="matrix(0.0126953125,0,0,0.0126953125,149.1064453125,0)" xlink:href="#av"/></g><path d="M180 0v-1490h528c311 0 458 177 458 395 0 191-114 278-244 313v14c139 9 302 137 302 371 0 225-148 397-499 397H180zm190-168h350c232 0 321-102 321-231 0-149-120-277-311-277H370v508zm0-668h328c160 0 286-101 286-255 0-129-87-231-280-231H370v486" id="ax"/><path d="M471 26C259 26 90-98 90-318c0-256 228-303 435-329 202-27 287-16 287-108 0-139-79-219-234-219-161 0-248 86-283 164l-173-57c86-203 278-265 451-265 150 0 419 46 419 395V0H815v-152h-12C765-73 660 26 471 26zm31-159c199 0 310-134 310-271v-155c-30 35-226 55-295 64-131 17-246 59-246 186 0 116 97 176 231 176" id="ay"/><path d="M338-670V0H158v-1118h173l1 207c72-158 192-221 342-221 226 0 378 139 378 422V0H872v-695c0-172-96-275-252-275-161 0-282 109-282 300" id="az"/><path d="M338-670V0H158v-1490h180v566c73-149 190-208 336-208 226 0 379 139 379 422V0H872v-695c0-172-96-275-252-275-161 0-282 109-282 300" id="aA"/><g id="i"><use transform="matrix(0.0126953125,0,0,0.0126953125,0,0)" xlink:href="#ax"/><use transform="matrix(0.0126953125,0,0,0.0126953125,17.01171875,0)" xlink:href="#ad"/><use transform="matrix(0.0126953125,0,0,0.0126953125,26.7998046875,0)" xlink:href="#ay"/><use transform="matrix(0.0126953125,0,0,0.0126953125,41.3994140625,0)" xlink:href="#az"/><use transform="matrix(0.0126953125,0,0,0.0126953125,56.7607421875,0)" xlink:href="#aa"/><use transform="matrix(0.0126953125,0,0,0.0126953125,71.6142578125,0)" xlink:href="#aA"/></g><g id="j"><use transform="matrix(0.0126953125,0,0,0.0126953125,0,0)" xlink:href="#Y"/><use transform="matrix(0.0126953125,0,0,0.0126953125,18.763671875,0)" xlink:href="#Z"/><use transform="matrix(0.0126953125,0,0,0.0126953125,33.921875,0)" xlink:href="#aa"/><use transform="matrix(0.0126953125,0,0,0.0126953125,48.775390625,0)" xlink:href="#ab"/><use transform="matrix(0.0126953125,0,0,0.0126953125,64.365234375,0)" xlink:href="#ac"/><use transform="matrix(0.0126953125,0,0,0.0126953125,80.28515625,0)" xlink:href="#Z"/><use transform="matrix(0.0126953125,0,0,0.0126953125,95.443359375,0)" xlink:href="#ad"/></g><g id="k"><use transform="matrix(0.0126953125,0,0,0.0126953125,0,0)" xlink:href="#au"/><use transform="matrix(0.0126953125,0,0,0.0126953125,9.3564453125,0)" xlink:href="#ah"/></g><path fill="#82755b" d="M677 24c-213 0-288-135-325-197h-20V0H158v-1490h180v551h14c37-59 106-193 324-193 279 0 474 222 474 576 0 356-194 580-473 580zm-27-161c209 0 317-186 317-421 0-232-105-413-317-413-206 0-314 166-314 413 0 249 111 421 314 421" id="aB"/><path fill="#82755b" d="M471 26C259 26 90-98 90-318c0-256 228-303 435-329 202-27 287-16 287-108 0-139-79-219-234-219-161 0-248 86-283 164l-173-57c86-203 278-265 451-265 150 0 419 46 419 395V0H815v-152h-12C765-73 660 26 471 26zm31-159c199 0 310-134 310-271v-155c-30 35-226 55-295 64-131 17-246 59-246 186 0 116 97 176 231 176" id="aC"/><path fill="#82755b" d="M338-670V0H158v-1490h180v566c73-149 190-208 336-208 226 0 379 139 379 422V0H872v-695c0-172-96-275-252-275-161 0-282 109-282 300" id="aD"/><g id="l"><use transform="matrix(0.0126953125,0,0,0.0126953125,0,0)" xlink:href="#aB"/><use transform="matrix(0.0126953125,0,0,0.0126953125,15.919921875,0)" xlink:href="#au"/><use transform="matrix(0.0126953125,0,0,0.0126953125,25.7080078125,0)" xlink:href="#aC"/><use transform="matrix(0.0126953125,0,0,0.0126953125,40.3076171875,0)" xlink:href="#al"/><use transform="matrix(0.0126953125,0,0,0.0126953125,55.6689453125,0)" xlink:href="#ag"/><use transform="matrix(0.0126953125,0,0,0.0126953125,70.5224609375,0)" xlink:href="#aD"/></g><path d="M180 0v-1490h270l367 940c28 72 75 218 110 339 35-117 81-264 110-339l362-940h271V0h-187c2-448-5-837 7-1287-157 497-311 829-483 1287H842C666-458 514-784 354-1284c12 438 5 843 7 1284H180" id="aE"/><path d="M158 0v-1118h180V0H158zm91-1301c-68 0-125-53-125-119s57-119 125-119c69 0 126 53 126 119s-57 119-126 119" id="aF"/><g id="m"><use transform="matrix(0.0126953125,0,0,0.0126953125,0,0)" xlink:href="#aE"/><use transform="matrix(0.0126953125,0,0,0.0126953125,23.486328125,0)" xlink:href="#ay"/><use transform="matrix(0.0126953125,0,0,0.0126953125,38.0859375,0)" xlink:href="#aF"/><use transform="matrix(0.0126953125,0,0,0.0126953125,44.3828125,0)" xlink:href="#az"/></g><path fill="#82755b" d="M180 0v-1490h270l367 940c28 72 75 218 110 339 35-117 81-264 110-339l362-940h271V0h-187c2-448-5-837 7-1287-157 497-311 829-483 1287H842C666-458 514-784 354-1284c12 438 5 843 7 1284H180" id="aG"/><path fill="#82755b" d="M158 0v-1118h175l1 205c55-151 181-225 313-225 147 0 245 90 285 228 53-141 190-228 352-228 194 0 352 125 352 384V0h-181v-749c0-161-105-225-225-225-151 0-243 103-243 244V0H807v-767c0-124-93-207-219-207-131 0-250 92-250 270V0H158" id="aH"/><path fill="#82755b" d="M98-1322v-168h1126v168H757V0H567v-1322H98" id="aI"/><path fill="#82755b" d="M180 0v-1490h510c348 0 508 194 508 460 0 198-88 351-276 417L1256 0h-220L726-579c-117 2-238 0-356 1V0H180zm190-747h312c235 0 327-108 327-283 0-177-92-293-329-293H370v576" id="aJ"/><path fill="#82755b" d="M611 442c-248 0-391-105-460-228l146-94c47 65 117 165 314 165 178 0 307-82 307-266v-224h-17C863-141 792-18 576-18c-268 0-472-195-472-546 0-346 197-568 476-568 216 0 288 133 326 193h17v-179h175V29c0 289-215 413-487 413zm-5-620c203 0 314-146 314-390 0-237-108-403-314-403-213 0-319 180-319 403 0 230 109 390 319 390" id="aK"/><g id="n"><use transform="matrix(0.0126953125,0,0,0.0126953125,0,0)" xlink:href="#aG"/><use transform="matrix(0.0126953125,0,0,0.0126953125,23.486328125,0)" xlink:href="#ai"/><use transform="matrix(0.0126953125,0,0,0.0126953125,38.64453125,0)" xlink:href="#aH"/><use transform="matrix(0.0126953125,0,0,0.0126953125,59.642578125,0)" xlink:href="#aI"/><use transform="matrix(0.0126953125,0,0,0.0126953125,74.39453125,0)" xlink:href="#ae"/><use transform="matrix(0.0126953125,0,0,0.0126953125,89.984375,0)" xlink:href="#aJ"/><use transform="matrix(0.0126953125,0,0,0.0126953125,106.3359375,0)" xlink:href="#ai"/><use transform="matrix(0.0126953125,0,0,0.0126953125,121.494140625,0)" xlink:href="#aK"/></g><path fill="#82755b" d="M458 0L52-1490h194c108 439 233 855 324 1313 92-459 221-873 331-1313h216c110 438 234 854 330 1307 92-455 216-869 323-1307h196L1558 0h-221l-256-944c-26-95-50-200-73-331-22 122-44 223-73 331L680 0H458" id="aL"/><path fill="#82755b" d="M158 0v-1118h180V0H158zm91-1301c-68 0-125-53-125-119s57-119 125-119c69 0 126 53 126 119s-57 119-126 119" id="aM"/><g id="o"><use transform="matrix(0.0126953125,0,0,0.0126953125,0,0)" xlink:href="#aJ"/><use transform="matrix(0.0126953125,0,0,0.0126953125,16.3515625,0)" xlink:href="#ai"/><use transform="matrix(0.0126953125,0,0,0.0126953125,31.509765625,0)" xlink:href="#aK"/><use transform="matrix(0.0126953125,0,0,0.0126953125,47.455078125,0)" xlink:href="#aL"/><use transform="matrix(0.0126953125,0,0,0.0126953125,72.1982421875,0)" xlink:href="#au"/><use transform="matrix(0.0126953125,0,0,0.0126953125,82.392578125,0)" xlink:href="#aM"/><use transform="matrix(0.0126953125,0,0,0.0126953125,88.689453125,0)" xlink:href="#at"/><use transform="matrix(0.0126953125,0,0,0.0126953125,96.94140625,0)" xlink:href="#ai"/></g><g id="p"><use transform="matrix(0.0126953125,0,0,0.0126953125,0,0)" xlink:href="#aG"/><use transform="matrix(0.0126953125,0,0,0.0126953125,23.486328125,0)" xlink:href="#ai"/><use transform="matrix(0.0126953125,0,0,0.0126953125,38.64453125,0)" xlink:href="#aH"/><use transform="matrix(0.0126953125,0,0,0.0126953125,60.099609375,0)" xlink:href="#aL"/><use transform="matrix(0.0126953125,0,0,0.0126953125,84.8427734375,0)" xlink:href="#au"/><use transform="matrix(0.0126953125,0,0,0.0126953125,95.037109375,0)" xlink:href="#aM"/><use transform="matrix(0.0126953125,0,0,0.0126953125,101.333984375,0)" xlink:href="#at"/><use transform="matrix(0.0126953125,0,0,0.0126953125,109.5859375,0)" xlink:href="#ai"/></g><path fill="#82755b" d="M180 0v-1490h528c311 0 458 177 458 395 0 191-114 278-244 313v14c139 9 302 137 302 371 0 225-148 397-499 397H180zm190-168h350c232 0 321-102 321-231 0-149-120-277-311-277H370v508zm0-668h328c160 0 286-101 286-255 0-129-87-231-280-231H370v486" id="aN"/><path fill="#82755b" d="M140 405l46-156c120 36 205 19 263-150l32-93L54-1118h197c107 313 237 620 324 950 87-331 219-637 326-950h196L606 167c-68 178-176 259-334 259-64 0-113-12-132-21" id="aO"/><g id="q"><use transform="matrix(0.0126953125,0,0,0.0126953125,0,0)" xlink:href="#aG"/><use transform="matrix(0.0126953125,0,0,0.0126953125,23.486328125,0)" xlink:href="#ai"/><use transform="matrix(0.0126953125,0,0,0.0126953125,38.64453125,0)" xlink:href="#aH"/><use transform="matrix(0.0126953125,0,0,0.0126953125,61.419921875,0)" xlink:href="#aN"/><use transform="matrix(0.0126953125,0,0,0.0126953125,78.431640625,0)" xlink:href="#aO"/><use transform="matrix(0.0126953125,0,0,0.0126953125,93.4248046875,0)" xlink:href="#at"/><use transform="matrix(0.0126953125,0,0,0.0126953125,101.6767578125,0)" xlink:href="#ai"/><use transform="matrix(0.0126953125,0,0,0.0126953125,116.8349609375,0)" xlink:href="#aw"/></g><path fill="#82755b" d="M657 26c-323 0-524-166-541-416h195c15 169 171 246 346 246 202 0 356-106 356-265 5-203-294-238-475-293-239-73-380-191-380-389 0-252 224-419 512-419 294 0 499 171 508 396H992c-17-145-151-228-328-228-193 0-321 102-321 242 0 156 175 211 284 241l149 41c160 44 422 134 422 412 0 244-197 432-541 432" id="aP"/><g id="r"><use transform="matrix(0.0126953125,0,0,0.0126953125,0,0)" xlink:href="#aP"/><use transform="matrix(0.0126953125,0,0,0.0126953125,16.681640625,0)" xlink:href="#ai"/><use transform="matrix(0.0126953125,0,0,0.0126953125,31.83984375,0)" xlink:href="#aw"/><use transform="matrix(0.0126953125,0,0,0.0126953125,45.5634765625,0)" xlink:href="#aw"/><use transform="matrix(0.0126953125,0,0,0.0126953125,59.287109375,0)" xlink:href="#aM"/><use transform="matrix(0.0126953125,0,0,0.0126953125,65.583984375,0)" xlink:href="#ae"/><use transform="matrix(0.0126953125,0,0,0.0126953125,81.173828125,0)" xlink:href="#al"/></g><g id="s"><use transform="matrix(0.0126953125,0,0,0.0126953125,0,0)" xlink:href="#ap"/><use transform="matrix(0.0126953125,0,0,0.0126953125,17.9384765625,0)" xlink:href="#aq"/><use transform="matrix(0.0126953125,0,0,0.0126953125,32.6396484375,0)" xlink:href="#ar"/><use transform="matrix(0.0126953125,0,0,0.0126953125,51.9873046875,0)" xlink:href="#aP"/><use transform="matrix(0.0126953125,0,0,0.0126953125,68.6689453125,0)" xlink:href="#ai"/><use transform="matrix(0.0126953125,0,0,0.0126953125,83.8271484375,0)" xlink:href="#av"/></g><g id="t"><use transform="matrix(0.0126953125,0,0,0.0126953125,0,0)" xlink:href="#ap"/><use transform="matrix(0.0126953125,0,0,0.0126953125,17.9384765625,0)" xlink:href="#aq"/><use transform="matrix(0.0126953125,0,0,0.0126953125,32.6396484375,0)" xlink:href="#ar"/><use transform="matrix(0.0126953125,0,0,0.0126953125,51.9873046875,0)" xlink:href="#aP"/><use transform="matrix(0.0126953125,0,0,0.0126953125,68.6689453125,0)" xlink:href="#au"/><use transform="matrix(0.0126953125,0,0,0.0126953125,78.025390625,0)" xlink:href="#ag"/><use transform="matrix(0.0126953125,0,0,0.0126953125,92.0029296875,0)" xlink:href="#ap"/></g><g id="u"><use transform="matrix(0.0126953125,0,0,0.0126953125,0,0)" xlink:href="#ap"/><use transform="matrix(0.0126953125,0,0,0.0126953125,17.9384765625,0)" xlink:href="#aq"/><use transform="matrix(0.0126953125,0,0,0.0126953125,32.6396484375,0)" xlink:href="#ar"/><use transform="matrix(0.0126953125,0,0,0.0126953125,51.9873046875,0)" xlink:href="#aP"/><use transform="matrix(0.0126953125,0,0,0.0126953125,68.6689453125,0)" xlink:href="#au"/><use transform="matrix(0.0126953125,0,0,0.0126953125,78.025390625,0)" xlink:href="#ag"/><use transform="matrix(0.0126953125,0,0,0.0126953125,92.87890625,0)" xlink:href="#aN"/></g><g id="v"><use transform="matrix(0.0126953125,0,0,0.0126953125,0,0)" xlink:href="#aJ"/><use transform="matrix(0.0126953125,0,0,0.0126953125,16.732421875,0)" xlink:href="#aP"/><use transform="matrix(0.0126953125,0,0,0.0126953125,33.4140625,0)" xlink:href="#ai"/><use transform="matrix(0.0126953125,0,0,0.0126953125,48.572265625,0)" xlink:href="#av"/></g><path fill="#82755b" d="M370-1490V0H180v-1490h190" id="aQ"/><g id="w"><use transform="matrix(0.0126953125,0,0,0.0126953125,0,0)" xlink:href="#aQ"/><use transform="matrix(0.0126953125,0,0,0.0126953125,6.982421875,0)" xlink:href="#aH"/><use transform="matrix(0.0126953125,0,0,0.0126953125,29.7578125,0)" xlink:href="#aH"/><use transform="matrix(0.0126953125,0,0,0.0126953125,52.533203125,0)" xlink:href="#aP"/><use transform="matrix(0.0126953125,0,0,0.0126953125,69.21484375,0)" xlink:href="#ai"/><use transform="matrix(0.0126953125,0,0,0.0126953125,84.373046875,0)" xlink:href="#av"/></g><g id="x"><use transform="matrix(0.0126953125,0,0,0.0126953125,0,0)" xlink:href="#aJ"/><use transform="matrix(0.0126953125,0,0,0.0126953125,16.3515625,0)" xlink:href="#ai"/><use transform="matrix(0.0126953125,0,0,0.0126953125,31.509765625,0)" xlink:href="#aK"/><use transform="matrix(0.0126953125,0,0,0.0126953125,47.455078125,0)" xlink:href="#aP"/><use transform="matrix(0.0126953125,0,0,0.0126953125,64.13671875,0)" xlink:href="#au"/><use transform="matrix(0.0126953125,0,0,0.0126953125,73.4931640625,0)" xlink:href="#ag"/></g><g id="y"><use transform="matrix(0.0126953125,0,0,0.0126953125,0,0)" xlink:href="#aP"/><use transform="matrix(0.0126953125,0,0,0.0126953125,16.681640625,0)" xlink:href="#ai"/><use transform="matrix(0.0126953125,0,0,0.0126953125,31.83984375,0)" xlink:href="#ag"/><use transform="matrix(0.0126953125,0,0,0.0126953125,46.693359375,0)" xlink:href="#aP"/><use transform="matrix(0.0126953125,0,0,0.0126953125,63.375,0)" xlink:href="#au"/><use transform="matrix(0.0126953125,0,0,0.0126953125,72.7314453125,0)" xlink:href="#ag"/></g><path d="M158 418v-1536h174v179h20c37-59 106-193 324-193 279 0 474 222 474 576 0 356-194 580-473 580-213 0-288-135-325-197h-14v591H158zm492-555c209 0 317-186 317-421 0-232-105-413-317-413-206 0-314 166-314 413 0 249 111 421 314 421" id="aR"/><path d="M226 279v-1860h398v153H398V126h226v153H226" id="aS"/><path d="M120-303v-155l652-1032h231v1020h202v167h-202V0H821v-303H120zm702-167v-782h-12L323-482v12h499" id="aT"/><path d="M295 13c-75 0-135-60-135-135s60-135 135-135 135 60 135 135S370 13 295 13zm0-809c-75 0-135-60-135-135s60-135 135-135 135 60 135 135-60 135-135 135" id="aU"/><path d="M646 20c-332 0-524-278-524-764 0-483 194-766 524-766s524 283 524 766c0 485-191 764-524 764zm0-166c218 0 341-220 341-598 0-380-123-601-341-601s-341 222-341 601c0 378 123 598 341 598" id="aV"/><path d="M123 279V126h226v-1554H123v-153h398V279H123" id="aW"/><g id="z"><use transform="matrix(0.0126953125,0,0,0.0126953125,0,0)" xlink:href="#ab"/><use transform="matrix(0.0126953125,0,0,0.0126953125,15.58984375,0)" xlink:href="#aR"/><use transform="matrix(0.0126953125,0,0,0.0126953125,31.509765625,0)" xlink:href="#aa"/><use transform="matrix(0.0126953125,0,0,0.0126953125,46.36328125,0)" xlink:href="#ab"/><use transform="matrix(0.0126953125,0,0,0.0126953125,61.953125,0)" xlink:href="#ac"/><use transform="matrix(0.0126953125,0,0,0.0126953125,77.873046875,0)" xlink:href="#Z"/><use transform="matrix(0.0126953125,0,0,0.0126953125,93.03125,0)" xlink:href="#aS"/><use transform="matrix(0.0126953125,0,0,0.0126953125,102.5146484375,0)" xlink:href="#aT"/><use transform="matrix(0.0126953125,0,0,0.0126953125,119.310546875,0)" xlink:href="#aU"/><use transform="matrix(0.0126953125,0,0,0.0126953125,126.80078125,0)" xlink:href="#aV"/><use transform="matrix(0.0126953125,0,0,0.0126953125,143.203125,0)" xlink:href="#aW"/></g><path d="M678-1118v154H420V0H240v-964H20v-154h220v-149c0-194 155-293 318-293 85 0 141 18 168 30l-50 154c-19-6-47-17-97-17-111 0-159 58-159 166v109h258" id="aX"/><path d="M537 14c-226 0-379-139-379-422v-710h180v695c0 172 97 275 253 275 160 0 281-109 281-300v-670h181V0H879v-209C806-46 684 14 537 14" id="aY"/><path d="M635 20c-292 0-500-160-510-396h192c11 142 145 229 315 229 187 0 323-105 323-260 0-161-125-274-346-274H488v-165h121c174 0 294-100 294-254 0-148-104-245-266-245-152 0-291 85-297 230H157c8-234 222-395 484-395 278 0 448 188 448 400 0 168-95 291-247 336v12c190 31 301 169 301 357 0 244-216 425-508 425" id="aZ"/><g id="A"><use transform="matrix(0.0126953125,0,0,0.0126953125,0,0)" xlink:href="#aX"/><use transform="matrix(0.0126953125,0,0,0.0126953125,9.623046875,0)" xlink:href="#aY"/><use transform="matrix(0.0126953125,0,0,0.0126953125,24.9970703125,0)" xlink:href="#az"/><use transform="matrix(0.0126953125,0,0,0.0126953125,40.3583984375,0)" xlink:href="#aa"/><use transform="matrix(0.0126953125,0,0,0.0126953125,55.2119140625,0)" xlink:href="#aT"/><use transform="matrix(0.0126953125,0,0,0.0126953125,72.0078125,0)" xlink:href="#aS"/><use transform="matrix(0.0126953125,0,0,0.0126953125,81.4912109375,0)" xlink:href="#aZ"/><use transform="matrix(0.0126953125,0,0,0.0126953125,97.55078125,0)" xlink:href="#aU"/><use transform="matrix(0.0126953125,0,0,0.0126953125,105.041015625,0)" xlink:href="#aV"/></g><path d="M538 24C308 24 148-78 108-271l171-41c32 123 123 178 257 178 156 0 256-77 256-169 0-77-54-128-164-154l-186-44c-203-48-300-148-300-305 0-192 176-326 414-326 230 0 351 112 402 269l-163 42c-31-80-94-158-238-158-133 0-233 69-233 162 0 83 57 129 188 160l169 40c203 48 298 149 298 302 0 196-179 339-441 339" id="ba"/><path d="M154 0v-137l495-537c165-179 249-281 249-418 0-156-121-253-280-253-170 0-278 110-278 278H158c0-264 200-443 465-443 266 0 455 183 455 416 0 161-73 288-336 568L416-179v12h687V0H154" id="bb"/><path d="M653-1490V0H466v-1314h-10L96-1047v-204l324-239h233" id="bc"/><g id="B"><use transform="matrix(0.0126953125,0,0,0.0126953125,0,0)" xlink:href="#ba"/><use transform="matrix(0.0126953125,0,0,0.0126953125,13.7236328125,0)" xlink:href="#ab"/><use transform="matrix(0.0126953125,0,0,0.0126953125,29.3134765625,0)" xlink:href="#aY"/><use transform="matrix(0.0126953125,0,0,0.0126953125,44.6875,0)" xlink:href="#ad"/><use transform="matrix(0.0126953125,0,0,0.0126953125,54.0439453125,0)" xlink:href="#aa"/><use transform="matrix(0.0126953125,0,0,0.0126953125,68.8974609375,0)" xlink:href="#Z"/><use transform="matrix(0.0126953125,0,0,0.0126953125,84.0556640625,0)" xlink:href="#aS"/><use transform="matrix(0.0126953125,0,0,0.0126953125,93.5390625,0)" xlink:href="#bb"/><use transform="matrix(0.0126953125,0,0,0.0126953125,109.3955078125,0)" xlink:href="#bc"/><use transform="matrix(0.0126953125,0,0,0.0126953125,119.970703125,0)" xlink:href="#aU"/><use transform="matrix(0.0126953125,0,0,0.0126953125,127.4609375,0)" xlink:href="#aV"/><use transform="matrix(0.0126953125,0,0,0.0126953125,143.86328125,0)" xlink:href="#aW"/></g><g id="C"><use transform="matrix(0.0126953125,0,0,0.0126953125,0,0)" xlink:href="#aS"/><use transform="matrix(0.0126953125,0,0,0.0126953125,9.4833984375,0)" xlink:href="#bc"/><use transform="matrix(0.0126953125,0,0,0.0126953125,20.05859375,0)" xlink:href="#aT"/><use transform="matrix(0.0126953125,0,0,0.0126953125,36.8544921875,0)" xlink:href="#aU"/><use transform="matrix(0.0126953125,0,0,0.0126953125,44.3447265625,0)" xlink:href="#bc"/><use transform="matrix(0.0126953125,0,0,0.0126953125,54.919921875,0)" xlink:href="#bb"/><use transform="matrix(0.0126953125,0,0,0.0126953125,70.7763671875,0)" xlink:href="#aW"/></g><path d="M626 20c-262 0-458-168-468-396h184c12 133 134 229 284 229 180 0 311-137 311-326 0-192-136-335-323-335-92 0-196 33-255 78l-178-22 88-738h784v167H429l-51 435h8c61-51 160-87 263-87 273 0 474 211 474 499 0 286-210 496-497 496" id="bd"/><g id="D"><use transform="matrix(0.0126953125,0,0,0.0126953125,0,0)" xlink:href="#aS"/><use transform="matrix(0.0126953125,0,0,0.0126953125,9.4833984375,0)" xlink:href="#bb"/><use transform="matrix(0.0126953125,0,0,0.0126953125,25.33984375,0)" xlink:href="#bc"/><use transform="matrix(0.0126953125,0,0,0.0126953125,35.9150390625,0)" xlink:href="#aU"/><use transform="matrix(0.0126953125,0,0,0.0126953125,43.4052734375,0)" xlink:href="#bc"/><use transform="matrix(0.0126953125,0,0,0.0126953125,53.98046875,0)" xlink:href="#bd"/><use transform="matrix(0.0126953125,0,0,0.0126953125,69.7861328125,0)" xlink:href="#aW"/></g><g id="E"><use transform="matrix(0.0126953125,0,0,0.0126953125,0,0)" xlink:href="#aS"/><use transform="matrix(0.0126953125,0,0,0.0126953125,9.4833984375,0)" xlink:href="#aT"/><use transform="matrix(0.0126953125,0,0,0.0126953125,26.279296875,0)" xlink:href="#aU"/><use transform="matrix(0.0126953125,0,0,0.0126953125,33.76953125,0)" xlink:href="#aV"/><use transform="matrix(0.0126953125,0,0,0.0126953125,50.171875,0)" xlink:href="#aW"/></g><path d="M783 20c-382 0-661-292-661-764 0-473 279-766 661-766 302 0 548 182 601 489h-190c-42-204-217-313-411-313-268 0-476 208-476 590 0 381 209 588 476 588 195 0 369-110 411-313h190c-52 303-296 489-601 489" id="be"/><path d="M598-1118v154H368v674c0 100 37 144 132 144 23 0 62-6 92-12L629-6c-37 13-88 20-134 20-193 0-307-107-307-290v-688H20v-154h168v-266h180v266h230" id="bf"/><path d="M338-1490V0H158v-1490h180" id="bg"/><g id="F"><use transform="matrix(0.0126953125,0,0,0.0126953125,0,0)" xlink:href="#V"/><use transform="matrix(0.0126953125,0,0,0.0126953125,17.9384765625,0)" xlink:href="#W"/><use transform="matrix(0.0126953125,0,0,0.0126953125,32.6396484375,0)" xlink:href="#X"/><use transform="matrix(0.0126953125,0,0,0.0126953125,51.9873046875,0)" xlink:href="#be"/><use transform="matrix(0.0126953125,0,0,0.0126953125,70.9794921875,0)" xlink:href="#ab"/><use transform="matrix(0.0126953125,0,0,0.0126953125,86.5693359375,0)" xlink:href="#az"/><use transform="matrix(0.0126953125,0,0,0.0126953125,101.9306640625,0)" xlink:href="#bf"/><use transform="matrix(0.0126953125,0,0,0.0126953125,110.4365234375,0)" xlink:href="#ad"/><use transform="matrix(0.0126953125,0,0,0.0126953125,119.79296875,0)" xlink:href="#ab"/><use transform="matrix(0.0126953125,0,0,0.0126953125,135.3828125,0)" xlink:href="#bg"/></g><g id="G"><use transform="matrix(0.0126953125,0,0,0.0126953125,0,0)" xlink:href="#ax"/><use transform="matrix(0.0126953125,0,0,0.0126953125,17.01171875,0)" xlink:href="#ad"/><use transform="matrix(0.0126953125,0,0,0.0126953125,26.7998046875,0)" xlink:href="#ay"/><use transform="matrix(0.0126953125,0,0,0.0126953125,41.3994140625,0)" xlink:href="#az"/><use transform="matrix(0.0126953125,0,0,0.0126953125,56.7607421875,0)" xlink:href="#aa"/><use transform="matrix(0.0126953125,0,0,0.0126953125,71.6142578125,0)" xlink:href="#aA"/></g><path d="M158 0v-1118h175l1 205c55-151 181-225 313-225 147 0 245 90 285 228 53-141 190-228 352-228 194 0 352 125 352 384V0h-181v-749c0-161-105-225-225-225-151 0-243 103-243 244V0H807v-767c0-124-93-207-219-207-131 0-250 92-250 270V0H158" id="bh"/><path d="M98-1322v-168h1126v168H757V0H567v-1322H98" id="bi"/><path d="M180 0v-1490h510c348 0 508 194 508 460 0 198-88 351-276 417L1256 0h-220L726-579c-117 2-238 0-356 1V0H180zm190-747h312c235 0 327-108 327-283 0-177-92-293-329-293H370v576" id="bj"/><path d="M611 442c-248 0-391-105-460-228l146-94c47 65 117 165 314 165 178 0 307-82 307-266v-224h-17C863-141 792-18 576-18c-268 0-472-195-472-546 0-346 197-568 476-568 216 0 288 133 326 193h17v-179h175V29c0 289-215 413-487 413zm-5-620c203 0 314-146 314-390 0-237-108-403-314-403-213 0-319 180-319 403 0 230 109 390 319 390" id="bk"/><g id="H"><use transform="matrix(0.0126953125,0,0,0.0126953125,0,0)" xlink:href="#aE"/><use transform="matrix(0.0126953125,0,0,0.0126953125,23.486328125,0)" xlink:href="#Z"/><use transform="matrix(0.0126953125,0,0,0.0126953125,38.64453125,0)" xlink:href="#bh"/><use transform="matrix(0.0126953125,0,0,0.0126953125,59.642578125,0)" xlink:href="#bi"/><use transform="matrix(0.0126953125,0,0,0.0126953125,74.39453125,0)" xlink:href="#ab"/><use transform="matrix(0.0126953125,0,0,0.0126953125,89.984375,0)" xlink:href="#bj"/><use transform="matrix(0.0126953125,0,0,0.0126953125,106.3359375,0)" xlink:href="#Z"/><use transform="matrix(0.0126953125,0,0,0.0126953125,121.494140625,0)" xlink:href="#bk"/></g><path d="M458 0L52-1490h194c108 439 233 855 324 1313 92-459 221-873 331-1313h216c110 438 234 854 330 1307 92-455 216-869 323-1307h196L1558 0h-221l-256-944c-26-95-50-200-73-331-22 122-44 223-73 331L680 0H458" id="bl"/><g id="I"><use transform="matrix(0.0126953125,0,0,0.0126953125,0,0)" xlink:href="#bj"/><use transform="matrix(0.0126953125,0,0,0.0126953125,16.3515625,0)" xlink:href="#Z"/><use transform="matrix(0.0126953125,0,0,0.0126953125,31.509765625,0)" xlink:href="#bk"/><use transform="matrix(0.0126953125,0,0,0.0126953125,47.455078125,0)" xlink:href="#bl"/><use transform="matrix(0.0126953125,0,0,0.0126953125,72.1982421875,0)" xlink:href="#ad"/><use transform="matrix(0.0126953125,0,0,0.0126953125,82.392578125,0)" xlink:href="#aF"/><use transform="matrix(0.0126953125,0,0,0.0126953125,88.689453125,0)" xlink:href="#bf"/><use transform="matrix(0.0126953125,0,0,0.0126953125,96.94140625,0)" xlink:href="#Z"/></g><g id="J"><use transform="matrix(0.0126953125,0,0,0.0126953125,0,0)" xlink:href="#aE"/><use transform="matrix(0.0126953125,0,0,0.0126953125,23.486328125,0)" xlink:href="#Z"/><use transform="matrix(0.0126953125,0,0,0.0126953125,38.64453125,0)" xlink:href="#bh"/><use transform="matrix(0.0126953125,0,0,0.0126953125,60.099609375,0)" xlink:href="#bl"/><use transform="matrix(0.0126953125,0,0,0.0126953125,84.8427734375,0)" xlink:href="#ad"/><use transform="matrix(0.0126953125,0,0,0.0126953125,95.037109375,0)" xlink:href="#aF"/><use transform="matrix(0.0126953125,0,0,0.0126953125,101.333984375,0)" xlink:href="#bf"/><use transform="matrix(0.0126953125,0,0,0.0126953125,109.5859375,0)" xlink:href="#Z"/></g><path d="M140 405l46-156c120 36 205 19 263-150l32-93L54-1118h197c107 313 237 620 324 950 87-331 219-637 326-950h196L606 167c-68 178-176 259-334 259-64 0-113-12-132-21" id="bm"/><g id="K"><use transform="matrix(0.0126953125,0,0,0.0126953125,0,0)" xlink:href="#aE"/><use transform="matrix(0.0126953125,0,0,0.0126953125,23.486328125,0)" xlink:href="#Z"/><use transform="matrix(0.0126953125,0,0,0.0126953125,38.64453125,0)" xlink:href="#bh"/><use transform="matrix(0.0126953125,0,0,0.0126953125,61.419921875,0)" xlink:href="#ax"/><use transform="matrix(0.0126953125,0,0,0.0126953125,78.431640625,0)" xlink:href="#bm"/><use transform="matrix(0.0126953125,0,0,0.0126953125,93.4248046875,0)" xlink:href="#bf"/><use transform="matrix(0.0126953125,0,0,0.0126953125,101.6767578125,0)" xlink:href="#Z"/><use transform="matrix(0.0126953125,0,0,0.0126953125,116.8349609375,0)" xlink:href="#ba"/></g><path d="M657 26c-323 0-524-166-541-416h195c15 169 171 246 346 246 202 0 356-106 356-265 5-203-294-238-475-293-239-73-380-191-380-389 0-252 224-419 512-419 294 0 499 171 508 396H992c-17-145-151-228-328-228-193 0-321 102-321 242 0 156 175 211 284 241l149 41c160 44 422 134 422 412 0 244-197 432-541 432" id="bn"/><g id="L"><use transform="matrix(0.0126953125,0,0,0.0126953125,0,0)" xlink:href="#bn"/><use transform="matrix(0.0126953125,0,0,0.0126953125,16.681640625,0)" xlink:href="#Z"/><use transform="matrix(0.0126953125,0,0,0.0126953125,31.83984375,0)" xlink:href="#ba"/><use transform="matrix(0.0126953125,0,0,0.0126953125,45.5634765625,0)" xlink:href="#ba"/><use transform="matrix(0.0126953125,0,0,0.0126953125,59.287109375,0)" xlink:href="#aF"/><use transform="matrix(0.0126953125,0,0,0.0126953125,65.583984375,0)" xlink:href="#ab"/><use transform="matrix(0.0126953125,0,0,0.0126953125,81.173828125,0)" xlink:href="#az"/></g><g id="M"><use transform="matrix(0.0126953125,0,0,0.0126953125,0,0)" xlink:href="#V"/><use transform="matrix(0.0126953125,0,0,0.0126953125,17.9384765625,0)" xlink:href="#W"/><use transform="matrix(0.0126953125,0,0,0.0126953125,32.6396484375,0)" xlink:href="#X"/><use transform="matrix(0.0126953125,0,0,0.0126953125,51.9873046875,0)" xlink:href="#bn"/><use transform="matrix(0.0126953125,0,0,0.0126953125,68.6689453125,0)" xlink:href="#Z"/><use transform="matrix(0.0126953125,0,0,0.0126953125,83.8271484375,0)" xlink:href="#bg"/></g><g id="N"><use transform="matrix(0.0126953125,0,0,0.0126953125,0,0)" xlink:href="#V"/><use transform="matrix(0.0126953125,0,0,0.0126953125,17.9384765625,0)" xlink:href="#W"/><use transform="matrix(0.0126953125,0,0,0.0126953125,32.6396484375,0)" xlink:href="#X"/><use transform="matrix(0.0126953125,0,0,0.0126953125,51.9873046875,0)" xlink:href="#bn"/><use transform="matrix(0.0126953125,0,0,0.0126953125,68.6689453125,0)" xlink:href="#ad"/><use transform="matrix(0.0126953125,0,0,0.0126953125,78.025390625,0)" xlink:href="#aa"/><use transform="matrix(0.0126953125,0,0,0.0126953125,92.0029296875,0)" xlink:href="#V"/></g><g id="O"><use transform="matrix(0.0126953125,0,0,0.0126953125,0,0)" xlink:href="#V"/><use transform="matrix(0.0126953125,0,0,0.0126953125,17.9384765625,0)" xlink:href="#W"/><use transform="matrix(0.0126953125,0,0,0.0126953125,32.6396484375,0)" xlink:href="#X"/><use transform="matrix(0.0126953125,0,0,0.0126953125,51.9873046875,0)" xlink:href="#bn"/><use transform="matrix(0.0126953125,0,0,0.0126953125,68.6689453125,0)" xlink:href="#ad"/><use transform="matrix(0.0126953125,0,0,0.0126953125,78.025390625,0)" xlink:href="#aa"/><use transform="matrix(0.0126953125,0,0,0.0126953125,92.87890625,0)" xlink:href="#ax"/></g><g id="P"><use transform="matrix(0.0126953125,0,0,0.0126953125,0,0)" xlink:href="#bj"/><use transform="matrix(0.0126953125,0,0,0.0126953125,16.732421875,0)" xlink:href="#bn"/><use transform="matrix(0.0126953125,0,0,0.0126953125,33.4140625,0)" xlink:href="#Z"/><use transform="matrix(0.0126953125,0,0,0.0126953125,48.572265625,0)" xlink:href="#bg"/></g><path fill="#fcce14" d="M783 20c-382 0-661-292-661-764 0-473 279-766 661-766 302 0 548 182 601 489h-190c-42-204-217-313-411-313-268 0-476 208-476 590 0 381 209 588 476 588 195 0 369-110 411-313h190c-52 303-296 489-601 489" id="bo"/><path fill="#fcce14" d="M613 24c-304 0-509-231-509-576 0-350 205-580 509-580 305 0 511 230 511 580 0 345-206 576-511 576zm0-161c226 0 329-195 329-415 0-222-103-419-329-419-223 0-326 196-326 419 0 220 103 415 326 415" id="bp"/><path fill="#fcce14" d="M338-670V0H158v-1118h173l1 207c72-158 192-221 342-221 226 0 378 139 378 422V0H872v-695c0-172-96-275-252-275-161 0-282 109-282 300" id="bq"/><path fill="#fcce14" d="M598-1118v154H368v674c0 100 37 144 132 144 23 0 62-6 92-12L629-6c-37 13-88 20-134 20-193 0-307-107-307-290v-688H20v-154h168v-266h180v266h230" id="br"/><path fill="#fcce14" d="M158 0v-1118h174v172h12c41-113 157-188 290-188 26 0 70 2 91 3v181c-11-2-60-10-108-10-161 0-279 109-279 260V0H158" id="bs"/><path fill="#fcce14" d="M338-1490V0H158v-1490h180" id="bt"/><g id="Q"><use transform="matrix(0.0126953125,0,0,0.0126953125,0,0)" xlink:href="#bo"/><use transform="matrix(0.0126953125,0,0,0.0126953125,18.9921875,0)" xlink:href="#bp"/><use transform="matrix(0.0126953125,0,0,0.0126953125,34.58203125,0)" xlink:href="#bq"/><use transform="matrix(0.0126953125,0,0,0.0126953125,49.943359375,0)" xlink:href="#br"/><use transform="matrix(0.0126953125,0,0,0.0126953125,58.44921875,0)" xlink:href="#bs"/><use transform="matrix(0.0126953125,0,0,0.0126953125,67.8056640625,0)" xlink:href="#bp"/><use transform="matrix(0.0126953125,0,0,0.0126953125,83.3955078125,0)" xlink:href="#bt"/></g><path fill="#fcce14" d="M763 24c-353 0-583-224-583-531v-983h190v968c0 214 149 370 393 370 243 0 391-156 391-370v-968h190v983c0 307-230 531-581 531" id="bu"/><path fill="#fcce14" d="M158 0v-1118h180V0H158zm91-1301c-68 0-125-53-125-119s57-119 125-119c69 0 126 53 126 119s-57 119-126 119" id="bv"/><g id="R"><use transform="matrix(0.0126953125,0,0,0.0126953125,0,0)" xlink:href="#bu"/><use transform="matrix(0.0126953125,0,0,0.0126953125,19.34765625,0)" xlink:href="#bq"/><use transform="matrix(0.0126953125,0,0,0.0126953125,34.708984375,0)" xlink:href="#bv"/><use transform="matrix(0.0126953125,0,0,0.0126953125,41.005859375,0)" xlink:href="#br"/></g><path d="M370-1490V0H180v-1490h190" id="bw"/><g id="S"><use transform="matrix(0.0126953125,0,0,0.0126953125,0,0)" xlink:href="#bw"/><use transform="matrix(0.0126953125,0,0,0.0126953125,6.982421875,0)" xlink:href="#bh"/><use transform="matrix(0.0126953125,0,0,0.0126953125,29.7578125,0)" xlink:href="#bh"/><use transform="matrix(0.0126953125,0,0,0.0126953125,52.533203125,0)" xlink:href="#bn"/><use transform="matrix(0.0126953125,0,0,0.0126953125,69.21484375,0)" xlink:href="#Z"/><use transform="matrix(0.0126953125,0,0,0.0126953125,84.373046875,0)" xlink:href="#bg"/></g><g id="T"><use transform="matrix(0.0126953125,0,0,0.0126953125,0,0)" xlink:href="#bj"/><use transform="matrix(0.0126953125,0,0,0.0126953125,16.3515625,0)" xlink:href="#Z"/><use transform="matrix(0.0126953125,0,0,0.0126953125,31.509765625,0)" xlink:href="#bk"/><use transform="matrix(0.0126953125,0,0,0.0126953125,47.455078125,0)" xlink:href="#bn"/><use transform="matrix(0.0126953125,0,0,0.0126953125,64.13671875,0)" xlink:href="#ad"/><use transform="matrix(0.0126953125,0,0,0.0126953125,73.4931640625,0)" xlink:href="#aa"/></g><g id="U"><use transform="matrix(0.0126953125,0,0,0.0126953125,0,0)" xlink:href="#bn"/><use transform="matrix(0.0126953125,0,0,0.0126953125,16.681640625,0)" xlink:href="#Z"/><use transform="matrix(0.0126953125,0,0,0.0126953125,31.83984375,0)" xlink:href="#aa"/><use transform="matrix(0.0126953125,0,0,0.0126953125,46.693359375,0)" xlink:href="#bn"/><use transform="matrix(0.0126953125,0,0,0.0126953125,63.375,0)" xlink:href="#ad"/><use transform="matrix(0.0126953125,0,0,0.0126953125,72.7314453125,0)" xlink:href="#aa"/></g></defs></g></svg>