<svg xmlns="http://www.w3.org/2000/svg" xmlns:xlink="http://www.w3.org/1999/xlink" xmlns:lucid="lucid" width="691.98" height="478.07"><g transform="translate(-10173.254920973879 5776.068781723936)" lucid:page-tab-id="0_0"><path d="M2000-7000h11500v5000H2000z" fill="#f2f3f5"/><path d="M10174.25-5729.34a6 6 0 0 1 6-6h585.97a6 6 0 0 1 6 6v364.72a6 6 0 0 1-6 6h-585.97a6 6 0 0 1-6-6z" stroke="#000" stroke-width="2" fill="#cfe4ff"/><path d="M10436-5550.8a6 6 0 0 1 6-6h66.13a6 6 0 0 1 6 6v110.16a6 6 0 0 1-6 6H10442a6 6 0 0 1-6-6z" stroke="#000" stroke-width="2" fill="#fff"/><path d="M10506.36-5552.2a2.8 2.8 0 0 0-2.15-4.6h-59.54a2.8 2.8 0 0 0-2.15 4.6l28.1 33.6a5.02 5.02 0 0 0 7.7 0z" stroke="#000" stroke-width="2" fill="#fff"/><path d="M10444.47-5651.8a6 6 0 0 1 6-6h49.17a6 6 0 0 1 6 6v40.4a6 6 0 0 1-6 6h-49.17a6 6 0 0 1-6-6z" fill="none"/><use xlink:href="#a" transform="matrix(1,0,0,1,10449.468989127747,-5652.798824672652) translate(0 30.9580078125)"/><path d="M10475.06-5559.3v-44.6" stroke="#e81313" stroke-width="3" fill="none"/><path d="M10476.53-5557.8h-2.95v-1.54h2.95zM10476.53-5603.85h-2.95v-1.54h2.95z" stroke="#e81313" stroke-width=".05" fill="#e81313"/><path d="M10443.3-5434.42a6 6 0 0 1-6-6v-30.02a6 6 0 0 1 6-6h21.26a6 6 0 0 1 6 6v30.02a6 6 0 0 1-6 6z" fill="none"/><use xlink:href="#b" transform="matrix(6.123233995736766e-17,-1,1,6.123233995736766e-17,10442.28811144987,-5439.415692163163) translate(0 18.46701388888889)"/><path d="M10487.57-5435.6a6 6 0 0 1-6-6v-32.47a6 6 0 0 1 6-6h19.52a6 6 0 0 1 6 6v32.48a6 6 0 0 1-6 6z" fill="none"/><use xlink:href="#c" transform="matrix(6.123233995736766e-17,-1,1,6.123233995736766e-17,10486.572168012184,-5440.585235142261) translate(0 17.46701388888889)"/><g fill="#fff"><path d="M10343.68-5550.14v106.4h-56.3v-106.4z" fill-opacity="0"/><path d="M10287.4-5550.14l56.28 21.28v63.83l-56.3 21.28z" stroke="#000" stroke-width="1.33"/></g><use xlink:href="#d" transform="matrix(6.123233995736766e-17,1,-1,6.123233995736766e-17,10343.681309301865,-5550.14331867625) translate(41.8203125 42.181640625)"/><path d="M10618.5-5442.88a6 6 0 0 1 6-6h83.3a6 6 0 0 1 6 6v51.06a6 6 0 0 1-6 6h-83.3a6 6 0 0 1-6-6z" stroke="#000" stroke-width="2" fill="#fff"/><use xlink:href="#e" transform="matrix(1,0,0,1,10623.507153966137,-5443.880146994029) translate(32.70811631944444 38.154513888888886)"/><path d="M10345.85-5496.93l87.64 1.2" stroke="#000" stroke-width="3" fill="none"/><path d="M10345.9-5498.4l-.03 2.95-1.52-.02v-2.95zM10435-5497.2v2.95l-1.57-.02.04-2.95z" stroke="#000" stroke-width=".05"/><path d="M10244.88-5469.28l40.34-.32" stroke="#000" stroke-width="3" fill="none"/><path d="M10244.93-5467.8h-1.55v-2.94h1.53zM10286.72-5468.14l-1.53.02-.03-2.95 1.55-.02z" stroke="#000" stroke-width=".05"/><path d="M10192.2-5484a6 6 0 0 1 6-6h39.18a6 6 0 0 1 6 6v29.47a6 6 0 0 1-6 6h-39.18a6 6 0 0 1-6-6z" fill="none"/><use xlink:href="#f" transform="matrix(1,0,0,1,10197.2,-5485) translate(0 25.4580078125)"/><path d="M10516.63-5495.72h125.53a24 24 0 0 1 24 24v20.34" stroke="#000" stroke-width="3" fill="none"/><path d="M10516.66-5494.25h-1.53v-2.95h1.53zM10667.63-5449.88h-2.95v-1.54h2.95z" stroke="#000" stroke-width=".05"/><path d="M10285.22-5521h-14.5a24 24 0 0 1-24-24v-105a24 24 0 0 1 24-24h330.48a24 24 0 0 1 24 24v152.78" stroke="#000" stroke-width="3" fill="none"/><path d="M10286.72-5519.52h-1.54v-2.95h1.54z" stroke="#000" stroke-width=".05"/><path d="M10625.2-5497.26v1.54" stroke="#000" stroke-width="3" fill="none"/><path d="M10513.5-5531.13a6 6 0 0 1 6-6h81.14a6 6 0 0 1 6 6v29.46a6 6 0 0 1-6 6h-81.14a6 6 0 0 1-6-6z" fill="none"/><use xlink:href="#g" transform="matrix(1,0,0,1,10518.503593750002,-5532.1344921875) translate(0 25.4580078125)"/><path d="M10666.17-5383.32l.34 42.35" stroke="#000" stroke-width="3" fill="none"/><path d="M10667.64-5383.3l-2.95.03-.02-1.55h2.95zM10668-5339.47h-2.95v-1.53l2.94-.02z" stroke="#000" stroke-width=".05"/><path d="M10646.45-5333.47a6 6 0 0 1 6-6h28.15a6 6 0 0 1 6 6v29.47a6 6 0 0 1-6 6h-28.15a6 6 0 0 1-6-6z" fill="none"/><use xlink:href="#h" transform="matrix(1,0,0,1,10651.452395462142,-5334.471650721116) translate(0 25.4580078125)"/><path d="M10716.3-5417.35l74.1-.24" stroke="#000" stroke-width="3" fill="none"/><path d="M10716.35-5415.88h-1.55v-2.94h1.54zM10791.9-5416.13h-1.54v-2.94h1.54z" stroke="#000" stroke-width=".05"/><path d="M10497.32-5434.09l-.6 92.36" stroke="#000" stroke-width="3" fill="none"/><path d="M10498.8-5434.04l-2.95-.02v-1.52h2.96zM10498.18-5341.77v1.53h-2.96v-1.55z" stroke="#000" stroke-width=".05"/><path d="M10454.2-5432.14l.28 90.96" stroke="#000" stroke-width="3" fill="none"/><path d="M10455.67-5432.1h-2.95v-1.54h2.95zM10455.96-5339.68h-2.95v-1.53l2.96-.02z" stroke="#000" stroke-width=".05"/><path d="M10434.22-5333.68a6 6 0 0 1 6-6h28.53a6 6 0 0 1 6 6v29.47a6 6 0 0 1-6 6h-28.53a6 6 0 0 1-6-6z" fill="none"/><use xlink:href="#i" transform="matrix(1,0,0,1,10439.222686241692,-5334.676328634077) translate(0 25.4580078125)"/><path d="M10476.22-5334.24a6 6 0 0 1 6-6h28.95a6 6 0 0 1 6 6v29.47a6 6 0 0 1-6 6h-28.95a6 6 0 0 1-6-6z" fill="none"/><use xlink:href="#j" transform="matrix(1,0,0,1,10481.222219390884,-5335.24075046892) translate(0 25.4580078125)"/><path d="M10791.9-5432.33a6 6 0 0 1 6-6h61.33a6 6 0 0 1 6 6v29.46a6 6 0 0 1-6 6h-61.33a6 6 0 0 1-6-6z" fill="none"/><use xlink:href="#k" transform="matrix(1,0,0,1,10796.8963671875,-5433.3344921875) translate(0 25.4580078125)"/><path d="M10492-5770.07a6 6 0 0 1 6-6h269.15a6 6 0 0 1 6 6v29.47a6 6 0 0 1-6 6H10498a6 6 0 0 1-6-6z" fill="none"/><use xlink:href="#l" transform="matrix(1,0,0,1,10497.010155356624,-5771.068781723936) translate(0 25.4580078125)"/><use xlink:href="#m" transform="matrix(1,0,0,1,10497.010155356624,-5771.068781723936) translate(161.12890625 25.4580078125)"/><use xlink:href="#n" transform="matrix(1,0,0,1,10497.010155356624,-5771.068781723936) translate(199.51953125 25.4580078125)"/><path d="M10436-5550.8a6 6 0 0 1 6-6h66.13a6 6 0 0 1 6 6v110.16a6 6 0 0 1-6 6H10442a6 6 0 0 1-6-6z" stroke="#000" stroke-width="2" fill="#fff"/><path d="M10506.36-5552.2a2.8 2.8 0 0 0-2.15-4.6h-59.54a2.8 2.8 0 0 0-2.15 4.6l28.1 33.6a5.02 5.02 0 0 0 7.7 0z" stroke="#000" stroke-width="2" fill="#fff"/><path d="M10444.47-5651.8a6 6 0 0 1 6-6h49.17a6 6 0 0 1 6 6v40.4a6 6 0 0 1-6 6h-49.17a6 6 0 0 1-6-6z" fill="none"/><use xlink:href="#a" transform="matrix(1,0,0,1,10449.468989127747,-5652.798824672652) translate(0 30.9580078125)"/><path d="M10475.06-5559.3v-44.6" stroke="#e81313" stroke-width="3" fill="none"/><path d="M10476.53-5557.8h-2.95v-1.54h2.95zM10476.53-5603.85h-2.95v-1.54h2.95z" stroke="#e81313" stroke-width=".05" fill="#e81313"/><path d="M10443.3-5434.42a6 6 0 0 1-6-6v-30.02a6 6 0 0 1 6-6h21.26a6 6 0 0 1 6 6v30.02a6 6 0 0 1-6 6z" fill="none"/><use xlink:href="#b" transform="matrix(6.123233995736766e-17,-1,1,6.123233995736766e-17,10442.28811144987,-5439.415692163163) translate(0 18.46701388888889)"/><path d="M10487.57-5435.6a6 6 0 0 1-6-6v-32.47a6 6 0 0 1 6-6h19.52a6 6 0 0 1 6 6v32.48a6 6 0 0 1-6 6z" fill="none"/><g><use xlink:href="#c" transform="matrix(6.123233995736766e-17,-1,1,6.123233995736766e-17,10486.572168012184,-5440.585235142261) translate(0 17.46701388888889)"/></g><defs><path fill="#e81313" d="M783 20c-382 0-661-292-661-764 0-473 279-766 661-766 302 0 548 182 601 489h-190c-42-204-217-313-411-313-268 0-476 208-476 590 0 381 209 588 476 588 195 0 369-110 411-313h190c-52 303-296 489-601 489" id="o"/><path fill="#e81313" d="M180 0v-1490h190v1322h690V0H180" id="p"/><path fill="#e81313" d="M180 0v-1490h190c0 262 1 526-3 784 217-279 467-523 702-784h249L716-845 1319 0h-225L585-716 370-489V0H180" id="q"/><g id="a"><use transform="matrix(0.0126953125,0,0,0.0126953125,0,0)" xlink:href="#o"/><use transform="matrix(0.0126953125,0,0,0.0126953125,18.9921875,0)" xlink:href="#p"/><use transform="matrix(0.0126953125,0,0,0.0126953125,33.693359375,0)" xlink:href="#q"/></g><path fill="#008a0e" d="M180 0v-1490h908v168H370v486h669v168H370v500h727V0H180" id="r"/><path fill="#008a0e" d="M180 0v-1490h224l606 953c40 63 108 177 176 312-27-437-7-821-13-1265h190V0h-226C860-448 622-778 356-1262c27 476 11 792 15 1262H180" id="s"/><g id="b"><use transform="matrix(0.008680555555555556,0,0,0.008680555555555556,0,0)" xlink:href="#r"/><use transform="matrix(0.008680555555555556,0,0,0.008680555555555556,10.68576388888889,0)" xlink:href="#s"/></g><path fill="#008a0e" d="M783 20c-382 0-661-292-661-764 0-473 279-766 661-766 302 0 548 182 601 489h-190c-42-204-217-313-411-313-268 0-476 208-476 590 0 381 209 588 476 588 195 0 369-110 411-313h190c-52 303-296 489-601 489" id="t"/><path fill="#008a0e" d="M180 0v-1490h190v1322h690V0H180" id="u"/><path fill="#008a0e" d="M180 0v-1490h510c348 0 508 194 508 460 0 198-88 351-276 417L1256 0h-220L726-579c-117 2-238 0-356 1V0H180zm190-747h312c235 0 327-108 327-283 0-177-92-293-329-293H370v576" id="v"/><g id="c"><use transform="matrix(0.008680555555555556,0,0,0.008680555555555556,0,0)" xlink:href="#t"/><use transform="matrix(0.008680555555555556,0,0,0.008680555555555556,12.986111111111112,0)" xlink:href="#u"/><use transform="matrix(0.008680555555555556,0,0,0.008680555555555556,23.038194444444446,0)" xlink:href="#v"/></g><path d="M671-608v428H524v-428H100v-146h424v-428h147v428h424v146H671" id="w"/><use transform="matrix(0.01953125,0,0,0.01953125,0,0)" xlink:href="#w" id="d"/><path d="M1181-520L237-44v-194l712-338v-12L237-926v-196l944 476v126" id="x"/><use transform="matrix(0.015190972222222222,0,0,0.015190972222222222,0,0)" xlink:href="#x" id="e"/><path d="M646 20c-332 0-524-278-524-764 0-483 194-766 524-766s524 283 524 766c0 485-191 764-524 764zm0-166c218 0 341-220 341-598 0-380-123-601-341-601s-341 222-341 601c0 378 123 598 341 598" id="y"/><path d="M65 0l393-574-370-544h210c88 136 192 297 267 435 67-142 176-302 264-435h206L661-564 1053 0H844c-94-144-206-310-287-458C484-308 366-142 273 0H65" id="z"/><path d="M653-1490V0H466v-1314h-10L96-1047v-204l324-239h233" id="A"/><g id="f"><use transform="matrix(0.0126953125,0,0,0.0126953125,0,0)" xlink:href="#y"/><use transform="matrix(0.0126953125,0,0,0.0126953125,16.40234375,0)" xlink:href="#z"/><use transform="matrix(0.0126953125,0,0,0.0126953125,30.595703125,0)" xlink:href="#A"/></g><path fill="#bc1c7f" d="M783 20c-382 0-661-292-661-764 0-473 279-766 661-766 302 0 548 182 601 489h-190c-42-204-217-313-411-313-268 0-476 208-476 590 0 381 209 588 476 588 195 0 369-110 411-313h190c-52 303-296 489-601 489" id="B"/><path fill="#bc1c7f" d="M140 405l46-156c120 36 205 19 263-150l32-93L54-1118h197c107 313 237 620 324 950 87-331 219-637 326-950h196L606 167c-68 178-176 259-334 259-64 0-113-12-132-21" id="C"/><path fill="#bc1c7f" d="M613 24c-304 0-509-231-509-576 0-350 205-580 509-580 216 0 392 114 453 309l-173 49c-33-115-133-197-280-197-223 0-326 196-326 419 0 220 103 415 326 415 150 0 252-85 285-206l172 49C1010-95 832 24 613 24" id="D"/><path fill="#bc1c7f" d="M338-1490V0H158v-1490h180" id="E"/><path fill="#bc1c7f" d="M628 24c-324 0-524-230-524-574 0-343 198-582 503-582 237 0 487 146 487 559v75H286c9 234 145 362 343 362 132 0 231-58 273-172l174 48C1024-91 857 24 628 24zM287-650h624c-17-190-120-322-304-322-192 0-309 151-320 322" id="F"/><path fill="#bc1c7f" d="M538 24C308 24 148-78 108-271l171-41c32 123 123 178 257 178 156 0 256-77 256-169 0-77-54-128-164-154l-186-44c-203-48-300-148-300-305 0-192 176-326 414-326 230 0 351 112 402 269l-163 42c-31-80-94-158-238-158-133 0-233 69-233 162 0 83 57 129 188 160l169 40c203 48 298 149 298 302 0 196-179 339-441 339" id="G"/><g id="g"><use transform="matrix(0.0126953125,0,0,0.0126953125,0,0)" xlink:href="#B"/><use transform="matrix(0.0126953125,0,0,0.0126953125,18.9921875,0)" xlink:href="#C"/><use transform="matrix(0.0126953125,0,0,0.0126953125,33.0966796875,0)" xlink:href="#D"/><use transform="matrix(0.0126953125,0,0,0.0126953125,47.9501953125,0)" xlink:href="#E"/><use transform="matrix(0.0126953125,0,0,0.0126953125,54.2470703125,0)" xlink:href="#F"/><use transform="matrix(0.0126953125,0,0,0.0126953125,69.4052734375,0)" xlink:href="#G"/></g><path d="M598-1118v154H368v674c0 100 37 144 132 144 23 0 62-6 92-12L629-6c-37 13-88 20-134 20-193 0-307-107-307-290v-688H20v-154h168v-266h180v266h230" id="H"/><path d="M613 24c-304 0-509-231-509-576 0-350 205-580 509-580 305 0 511 230 511 580 0 345-206 576-511 576zm0-161c226 0 329-195 329-415 0-222-103-419-329-419-223 0-326 196-326 419 0 220 103 415 326 415" id="I"/><path d="M338-1490V0H158v-1490h180" id="J"/><g id="h"><use transform="matrix(0.0126953125,0,0,0.0126953125,0,0)" xlink:href="#H"/><use transform="matrix(0.0126953125,0,0,0.0126953125,8.251953125,0)" xlink:href="#I"/><use transform="matrix(0.0126953125,0,0,0.0126953125,23.841796875,0)" xlink:href="#J"/></g><path d="M628 24c-324 0-524-230-524-574 0-343 198-582 503-582 237 0 487 146 487 559v75H286c9 234 145 362 343 362 132 0 231-58 273-172l174 48C1024-91 857 24 628 24zM287-650h624c-17-190-120-322-304-322-192 0-309 151-320 322" id="K"/><path d="M338-670V0H158v-1118h173l1 207c72-158 192-221 342-221 226 0 378 139 378 422V0H872v-695c0-172-96-275-252-275-161 0-282 109-282 300" id="L"/><g id="i"><use transform="matrix(0.0126953125,0,0,0.0126953125,0,0)" xlink:href="#K"/><use transform="matrix(0.0126953125,0,0,0.0126953125,15.158203125,0)" xlink:href="#L"/></g><path d="M613 24c-304 0-509-231-509-576 0-350 205-580 509-580 216 0 392 114 453 309l-173 49c-33-115-133-197-280-197-223 0-326 196-326 419 0 220 103 415 326 415 150 0 252-85 285-206l172 49C1010-95 832 24 613 24" id="M"/><path d="M158 0v-1118h174v172h12c41-113 157-188 290-188 26 0 70 2 91 3v181c-11-2-60-10-108-10-161 0-279 109-279 260V0H158" id="N"/><g id="j"><use transform="matrix(0.0126953125,0,0,0.0126953125,0,0)" xlink:href="#M"/><use transform="matrix(0.0126953125,0,0,0.0126953125,14.853515625,0)" xlink:href="#J"/><use transform="matrix(0.0126953125,0,0,0.0126953125,21.150390625,0)" xlink:href="#N"/></g><path d="M657 26c-323 0-524-166-541-416h195c15 169 171 246 346 246 202 0 356-106 356-265 5-203-294-238-475-293-239-73-380-191-380-389 0-252 224-419 512-419 294 0 499 171 508 396H992c-17-145-151-228-328-228-193 0-321 102-321 242 0 156 175 211 284 241l149 41c160 44 422 134 422 412 0 244-197 432-541 432" id="O"/><path d="M471 26C259 26 90-98 90-318c0-256 228-303 435-329 202-27 287-16 287-108 0-139-79-219-234-219-161 0-248 86-283 164l-173-57c86-203 278-265 451-265 150 0 419 46 419 395V0H815v-152h-12C765-73 660 26 471 26zm31-159c199 0 310-134 310-271v-155c-30 35-226 55-295 64-131 17-246 59-246 186 0 116 97 176 231 176" id="P"/><g id="k"><use transform="matrix(0.0126953125,0,0,0.0126953125,0,0)" xlink:href="#O"/><use transform="matrix(0.0126953125,0,0,0.0126953125,16.681640625,0)" xlink:href="#H"/><use transform="matrix(0.0126953125,0,0,0.0126953125,25.314453125,0)" xlink:href="#P"/><use transform="matrix(0.0126953125,0,0,0.0126953125,39.9140625,0)" xlink:href="#H"/><use transform="matrix(0.0126953125,0,0,0.0126953125,48.166015625,0)" xlink:href="#K"/></g><path fill="#635dff" d="M783 20c-382 0-661-292-661-764 0-473 279-766 661-766 302 0 548 182 601 489h-190c-42-204-217-313-411-313-268 0-476 208-476 590 0 381 209 588 476 588 195 0 369-110 411-313h190c-52 303-296 489-601 489" id="Q"/><path fill="#635dff" d="M613 24c-304 0-509-231-509-576 0-350 205-580 509-580 305 0 511 230 511 580 0 345-206 576-511 576zm0-161c226 0 329-195 329-415 0-222-103-419-329-419-223 0-326 196-326 419 0 220 103 415 326 415" id="R"/><path fill="#635dff" d="M158 0v-1118h175l1 205c55-151 181-225 313-225 147 0 245 90 285 228 53-141 190-228 352-228 194 0 352 125 352 384V0h-181v-749c0-161-105-225-225-225-151 0-243 103-243 244V0H807v-767c0-124-93-207-219-207-131 0-250 92-250 270V0H158" id="S"/><path fill="#635dff" d="M158 418v-1536h174v179h20c37-59 106-193 324-193 279 0 474 222 474 576 0 356-194 580-473 580-213 0-288-135-325-197h-14v591H158zm492-555c209 0 317-186 317-421 0-232-105-413-317-413-206 0-314 166-314 413 0 249 111 421 314 421" id="T"/><path fill="#635dff" d="M471 26C259 26 90-98 90-318c0-256 228-303 435-329 202-27 287-16 287-108 0-139-79-219-234-219-161 0-248 86-283 164l-173-57c86-203 278-265 451-265 150 0 419 46 419 395V0H815v-152h-12C765-73 660 26 471 26zm31-159c199 0 310-134 310-271v-155c-30 35-226 55-295 64-131 17-246 59-246 186 0 116 97 176 231 176" id="U"/><path fill="#635dff" d="M158 0v-1118h174v172h12c41-113 157-188 290-188 26 0 70 2 91 3v181c-11-2-60-10-108-10-161 0-279 109-279 260V0H158" id="V"/><path fill="#635dff" d="M577 24c-279 0-473-224-473-580 0-354 195-576 474-576 218 0 287 134 324 193h14v-551h180V0H922v-173h-20C865-111 790 24 577 24zm27-161c203 0 314-172 314-421 0-247-108-413-314-413-212 0-317 181-317 413 0 235 108 421 317 421" id="W"/><g id="l"><use transform="matrix(0.0126953125,0,0,0.0126953125,0,0)" xlink:href="#Q"/><use transform="matrix(0.0126953125,0,0,0.0126953125,18.9921875,0)" xlink:href="#R"/><use transform="matrix(0.0126953125,0,0,0.0126953125,34.58203125,0)" xlink:href="#S"/><use transform="matrix(0.0126953125,0,0,0.0126953125,57.357421875,0)" xlink:href="#T"/><use transform="matrix(0.0126953125,0,0,0.0126953125,73.53125,0)" xlink:href="#U"/><use transform="matrix(0.0126953125,0,0,0.0126953125,88.130859375,0)" xlink:href="#V"/><use transform="matrix(0.0126953125,0,0,0.0126953125,97.9189453125,0)" xlink:href="#U"/><use transform="matrix(0.0126953125,0,0,0.0126953125,112.5185546875,0)" xlink:href="#W"/><use transform="matrix(0.0126953125,0,0,0.0126953125,128.4384765625,0)" xlink:href="#R"/><use transform="matrix(0.0126953125,0,0,0.0126953125,144.0283203125,0)" xlink:href="#V"/></g><path fill="#635dff" d="M628 24c-324 0-524-230-524-574 0-343 198-582 503-582 237 0 487 146 487 559v75H286c9 234 145 362 343 362 132 0 231-58 273-172l174 48C1024-91 857 24 628 24zM287-650h624c-17-190-120-322-304-322-192 0-309 151-320 322" id="X"/><g id="m"><use transform="matrix(0.0126953125,0,0,0.0126953125,0,0)" xlink:href="#W"/><use transform="matrix(0.0126953125,0,0,0.0126953125,15.919921875,0)" xlink:href="#X"/></g><path fill="#635dff" d="M613 24c-304 0-509-231-509-576 0-350 205-580 509-580 216 0 392 114 453 309l-173 49c-33-115-133-197-280-197-223 0-326 196-326 419 0 220 103 415 326 415 150 0 252-85 285-206l172 49C1010-95 832 24 613 24" id="Y"/><path fill="#635dff" d="M158 0v-1118h180V0H158zm91-1301c-68 0-125-53-125-119s57-119 125-119c69 0 126 53 126 119s-57 119-126 119" id="Z"/><path fill="#635dff" d="M338-1490V0H158v-1490h180" id="aa"/><path fill="#635dff" d="M538 24C308 24 148-78 108-271l171-41c32 123 123 178 257 178 156 0 256-77 256-169 0-77-54-128-164-154l-186-44c-203-48-300-148-300-305 0-192 176-326 414-326 230 0 351 112 402 269l-163 42c-31-80-94-158-238-158-133 0-233 69-233 162 0 83 57 129 188 160l169 40c203 48 298 149 298 302 0 196-179 339-441 339" id="ab"/><g id="n"><use transform="matrix(0.0126953125,0,0,0.0126953125,0,0)" xlink:href="#Y"/><use transform="matrix(0.0126953125,0,0,0.0126953125,14.853515625,0)" xlink:href="#Z"/><use transform="matrix(0.0126953125,0,0,0.0126953125,21.150390625,0)" xlink:href="#Y"/><use transform="matrix(0.0126953125,0,0,0.0126953125,36.00390625,0)" xlink:href="#aa"/><use transform="matrix(0.0126953125,0,0,0.0126953125,42.30078125,0)" xlink:href="#R"/><use transform="matrix(0.0126953125,0,0,0.0126953125,57.890625,0)" xlink:href="#ab"/></g></defs></g></svg>